<?xml version="1.0" encoding="utf-8"?>
<!-- Generator: Adobe Illustrator 27.7.0, SVG Export Plug-In . SVG Version: 6.00 Build 0)  -->
<svg version="1.1" id="Layer_1" xmlns="http://www.w3.org/2000/svg" xmlns:xlink="http://www.w3.org/1999/xlink" x="0px" y="0px"
	 viewBox="0 0 612 792" style="enable-background:new 0 0 612 792;" xml:space="preserve">
<style type="text/css">
	.st0{fill:#FFFFFF;}
	.st1{fill:#FF0000;}
</style>
<g>
	<path class="st0" d="M576.51,10.04H27.45v67.92h5.66v23.58h22.95v47.94c0,7.16,5.8,12.96,12.96,12.96h473.95
		c7.16,0,12.96-5.8,12.96-12.96V77.96h20.57V10.04z"/>
	<g>
		<path class="st1" d="M355.53,30.88c-0.14-0.61-0.35-1.04-0.62-1.28c-0.27-0.24-0.64-0.36-1.1-0.36s-0.82,0.12-1.1,0.36
			c-0.27,0.24-0.48,0.67-0.62,1.28c-0.14,0.61-0.24,1.44-0.28,2.47c-0.04,1.04-0.07,2.34-0.07,3.91s0.02,2.88,0.07,3.91
			c0.04,1.04,0.14,1.86,0.28,2.47c0.14,0.61,0.35,1.04,0.62,1.28c0.27,0.24,0.64,0.36,1.1,0.36s0.82-0.12,1.1-0.36
			c0.27-0.24,0.48-0.67,0.62-1.28c0.14-0.61,0.23-1.44,0.28-2.47c0.04-1.04,0.07-2.34,0.07-3.91s-0.02-2.88-0.07-3.91
			C355.77,32.32,355.67,31.5,355.53,30.88z"/>
		<path class="st1" d="M471.36,34.7c0.41-0.51,0.62-1.18,0.62-2.01c0-0.98-0.2-1.68-0.61-2.1c-0.4-0.42-1.06-0.62-1.98-0.62h-1.18
			v5.5h1.21C470.3,35.47,470.94,35.21,471.36,34.7z"/>
		<path class="st1" d="M371.64,29.97h-1.18v5.5h1.21c0.87,0,1.52-0.26,1.93-0.77c0.41-0.51,0.62-1.18,0.62-2.01
			c0-0.98-0.2-1.68-0.61-2.1C373.21,30.17,372.55,29.97,371.64,29.97z"/>
		<polygon class="st1" points="399.32,30.36 397.65,40.29 401.05,40.29 399.38,30.36 		"/>
		<path class="st1" d="M419.42,31.24c-0.19-0.52-0.45-0.87-0.8-1.03c-0.35-0.16-0.82-0.25-1.41-0.25h-1.21v14.61h1.21
			c0.59,0,1.06-0.08,1.41-0.25c0.35-0.16,0.62-0.51,0.8-1.03c0.19-0.52,0.31-1.27,0.36-2.23s0.08-2.23,0.08-3.8s-0.03-2.84-0.08-3.8
			C419.72,32.51,419.6,31.77,419.42,31.24z"/>
		<path class="st1" d="M333.88,43.66c0.14,0.61,0.35,1.04,0.62,1.28c0.27,0.24,0.64,0.36,1.1,0.36c0.46,0,0.82-0.12,1.1-0.36
			c0.27-0.24,0.48-0.67,0.62-1.28c0.14-0.61,0.23-1.44,0.28-2.47c0.04-1.04,0.07-2.34,0.07-3.91s-0.02-2.88-0.07-3.91
			c-0.04-1.04-0.14-1.86-0.28-2.47c-0.14-0.61-0.35-1.04-0.62-1.28c-0.27-0.24-0.64-0.36-1.1-0.36c-0.46,0-0.82,0.12-1.1,0.36
			c-0.27,0.24-0.48,0.67-0.62,1.28c-0.14,0.61-0.24,1.44-0.28,2.47c-0.04,1.04-0.07,2.34-0.07,3.91s0.02,2.88,0.07,3.91
			C333.64,42.23,333.74,43.05,333.88,43.66z"/>
		<path class="st1" d="M266.95,30.88c-0.14-0.61-0.35-1.04-0.62-1.28c-0.27-0.24-0.64-0.36-1.1-0.36s-0.82,0.12-1.1,0.36
			c-0.27,0.24-0.48,0.67-0.62,1.28s-0.23,1.44-0.28,2.47c-0.04,1.04-0.07,2.34-0.07,3.91s0.02,2.88,0.07,3.91
			c0.04,1.04,0.14,1.86,0.28,2.47c0.14,0.61,0.35,1.04,0.62,1.28c0.27,0.24,0.64,0.36,1.1,0.36s0.82-0.12,1.1-0.36
			c0.27-0.24,0.48-0.67,0.62-1.28c0.14-0.61,0.23-1.44,0.28-2.47c0.04-1.04,0.07-2.34,0.07-3.91s-0.02-2.88-0.07-3.91
			C267.18,32.32,267.09,31.5,266.95,30.88z"/>
		<path class="st1" d="M318.64,31.24c-0.19-0.52-0.45-0.87-0.8-1.03c-0.35-0.16-0.82-0.25-1.41-0.25h-1.21v14.61h1.21
			c0.59,0,1.06-0.08,1.41-0.25c0.35-0.16,0.62-0.51,0.8-1.03c0.19-0.52,0.31-1.27,0.36-2.23s0.08-2.23,0.08-3.8s-0.03-2.84-0.08-3.8
			C318.95,32.51,318.83,31.77,318.64,31.24z"/>
		<path class="st1" d="M335.75,60.72c-0.28-0.21-1.27,0.04-2.98,0.73c-0.31,0.14-0.51,0.24-0.58,0.31c-0.07,0.07-0.07,0.13,0,0.18
			c0.07,0.05,0.23,0.13,0.47,0.24c0.14,0.07,0.26,0.12,0.37,0.16c0.49,0.24,0.85,0.44,1.1,0.58c0.35,0.24,0.65,0.42,0.89,0.52
			c0.21-0.28,0.43-0.76,0.65-1.44C335.9,61.32,335.92,60.89,335.75,60.72z"/>
		<path class="st1" d="M341.3,58.78c-0.39,0.1-0.71,0.22-0.97,0.34c-0.26,0.12-0.47,0.23-0.63,0.31c-0.16,0.09-0.29,0.24-0.39,0.47
			c-0.1,0.23-0.18,0.4-0.24,0.52c-0.05,0.12-0.13,0.38-0.24,0.76c-0.1,0.38-0.19,0.7-0.26,0.94c0,0.07-0.52,1.78-1.57,5.13
			c-1.12,3.45-1.66,5.23-1.62,5.34c0,0.1,0.05,0.17,0.16,0.21c0.1,0.04,0.24,0.04,0.39,0.03c0.16-0.02,0.31-0.04,0.44-0.08
			c0.14-0.03,0.3-0.08,0.47-0.13c0.17-0.05,0.28-0.1,0.31-0.13c4.64-1.22,7.9-2.16,9.79-2.83c7.64-2.79,11.22-5.86,10.73-9.21
			C357.12,56.76,351.66,56.2,341.3,58.78z"/>
		<path class="st1" d="M433.47,71.71c-0.84,0-1.64,0.35-2.41,1.05c-1.08,1.05-2.05,2.56-2.91,4.55c-0.86,1.99-1.28,3.77-1.28,5.34
			c0,0.63,0.11,0.99,0.34,1.1c0.23,0.1,0.6-0.05,1.13-0.47c0.56-0.45,1.1-1.05,1.62-1.78c0.52-0.73,1.08-1.6,1.68-2.59
			c0.59-0.99,1.03-1.72,1.31-2.17c0.14-0.21,0.29-0.4,0.44-0.58c0.16-0.17,0.28-0.32,0.37-0.44c0.09-0.12,0.24-0.27,0.44-0.45
			c0.21-0.17,0.35-0.3,0.42-0.37c0.07-0.07,0.24-0.22,0.52-0.44c0.28-0.23,0.47-0.37,0.58-0.45c0.28-0.24,0.41-0.42,0.39-0.52
			c-0.02-0.11-0.15-0.28-0.39-0.52C435.06,72.13,434.31,71.71,433.47,71.71z"/>
		<path class="st1" d="M404.42,83.75c4.5-2.13,7.9-4.89,10.21-8.27c1.12-1.68,0.98-2.48-0.42-2.41c-0.94,0.04-1.96,0.37-3.04,0.99
			c-2.41,1.4-4.97,4.45-7.69,9.16c-0.31,0.56-0.36,0.86-0.13,0.89C403.58,84.15,403.93,84.03,404.42,83.75z"/>
		<path class="st1" d="M0,0v110.2c24.56,7.5,97.35,18.85,293.97-4.8c37.9-4.56,71.46-7.61,101.15-9.5c0.42-1.33,1.17-3.71,2.25-7.18
			c0.17-0.56,0.88-2.76,2.12-6.6c0.87-2.71,1.59-4.96,2.14-6.77c-1.45,0.5-3.35,0.75-5.72,0.75c-0.52,0-0.87,0.1-1.05,0.31
			c-0.17,0.21-0.26,0.59-0.26,1.15c-0.42,1.95-1.12,3.51-2.09,4.66c-0.84,1.26-1.95,2.23-3.35,2.93l-0.42,0.21
			c-0.91,0.45-1.97,0.8-3.19,1.05c-1.22,0.24-2.34,0.31-3.35,0.21c-0.84-0.03-1.5-0.32-1.99-0.86c-0.49-0.54-0.78-1.23-0.86-2.07
			c-0.09-0.84-0.11-1.64-0.05-2.41c0.05-0.77,0.17-1.52,0.34-2.25c0.03-0.1,0.07-0.2,0.1-0.3c-0.35,0.18-0.72,0.35-1.1,0.51
			c-1.5,0.63-2.88,0.75-4.13,0.37c-0.28-0.1-0.52-0.24-0.73-0.39c-0.21-0.16-0.38-0.31-0.5-0.44c-0.12-0.14-0.21-0.33-0.26-0.58
			c-0.05-0.24-0.1-0.44-0.13-0.6c-0.04-0.16-0.03-0.37,0.03-0.65c0.05-0.28,0.1-0.5,0.13-0.65c0.04-0.16,0.11-0.39,0.23-0.71
			c0.12-0.31,0.21-0.53,0.26-0.65c0.05-0.12,0.16-0.35,0.31-0.68c0.16-0.33,0.23-0.53,0.23-0.6c0.42-0.73,0.55-1.27,0.39-1.62
			c-0.16-0.35-0.72-0.37-1.7-0.05c-0.59,0.17-1.18,0.4-1.75,0.68c-0.58,0.28-1.13,0.65-1.65,1.1c-0.52,0.45-0.99,0.86-1.39,1.2
			c-0.4,0.35-0.84,0.86-1.31,1.52c-0.47,0.66-0.84,1.17-1.1,1.52c-0.26,0.35-0.62,0.92-1.07,1.73c-0.45,0.8-0.76,1.35-0.92,1.65
			c-0.16,0.3-0.47,0.89-0.94,1.78c-0.47,0.89-0.74,1.44-0.81,1.65c-0.04,0.04-0.1,0.13-0.18,0.29c-0.09,0.16-0.15,0.27-0.18,0.34
			c-0.04,0.07-0.1,0.17-0.18,0.31c-0.09,0.14-0.16,0.24-0.21,0.31c-0.05,0.07-0.12,0.16-0.21,0.26c-0.09,0.1-0.18,0.17-0.29,0.21
			c-0.1,0.04-0.21,0.08-0.31,0.13c-0.1,0.05-0.22,0.07-0.34,0.05c-0.12-0.02-0.27-0.04-0.44-0.08c-0.87-0.28-1.17-0.94-0.89-1.99
			c0.21-0.77,0.55-1.87,1.02-3.3c0.47-1.43,0.74-2.3,0.81-2.62c1.33-4.22,2.2-6.94,2.62-8.17c0.14-0.42,0.28-0.75,0.42-0.99
			c0.14-0.24,0.36-0.45,0.65-0.63c0.3-0.17,0.65-0.19,1.07-0.05c0.35,0.14,0.61,0.28,0.79,0.42c0.17,0.14,0.26,0.32,0.26,0.55
			c0,0.23-0.01,0.4-0.03,0.52c-0.02,0.12-0.1,0.36-0.24,0.71c-0.14,0.35-0.23,0.56-0.26,0.63c-0.63,1.81-0.89,2.76-0.79,2.83
			c0.07,0.04,0.16,0.02,0.26-0.05c0.1-0.07,0.23-0.18,0.39-0.34c0.16-0.16,0.3-0.31,0.42-0.44c0.12-0.14,0.25-0.29,0.39-0.44
			c0.14-0.16,0.23-0.24,0.26-0.24c0.98-1.05,2.04-1.92,3.19-2.62c0.7-0.45,1.4-0.82,2.12-1.1c0.72-0.28,1.52-0.47,2.41-0.58
			s1.65,0.04,2.28,0.42c0.7,0.38,1.1,0.92,1.2,1.62c0.1,0.7,0.02,1.38-0.26,2.04c-0.28,0.66-0.58,1.4-0.92,2.2
			c-0.33,0.8-0.52,1.4-0.55,1.78c0,1.12,1.47,0.31,4.4-2.41c0.17-0.14,0.3-0.26,0.37-0.37c0.66-0.59,1.17-1.08,1.52-1.47
			c0.53-0.6,0.98-1,1.37-1.19c0.33-0.37,0.68-0.71,1.04-1.01c0.84-0.7,1.77-1.2,2.8-1.49c1.03-0.3,2.1-0.2,3.22,0.29
			c0.98,0.42,1.72,0.95,2.22,1.6c0.51,0.65,0.85,1.2,1.02,1.65c0.17,0.45,0.35,0.72,0.52,0.79c1.22,0.35,2.36,0.38,3.43,0.1
			c1.06-0.28,2.12-0.63,3.17-1.05c0.72-0.29,1.21-0.46,1.52-0.53c0.1-0.34,0.19-0.65,0.26-0.88c0.11-0.35,0.28-0.73,0.52-1.15
			c0.24-0.42,0.51-0.68,0.79-0.79c0.56-0.24,1.02-0.17,1.39,0.21c0.37,0.38,0.53,0.86,0.5,1.41v0.16c-0.07,0.35-0.39,1.32-0.97,2.91
			c-0.58,1.59-0.83,2.5-0.76,2.75c0.07,0.24,0.66-0.33,1.78-1.73c1.29-1.47,2.81-2.64,4.55-3.53c1.75-0.89,3.44-1.14,5.08-0.76
			c1.29,0.31,2.09,1.02,2.41,2.12c0.31,1.1,0.17,2.21-0.42,3.32c-0.31,0.73-0.82,1.55-1.52,2.46c-0.63,0.77-1.52,1.71-2.67,2.83
			c-1.08,1.01-0.77,1.1,0.94,0.26c0.1-0.03,0.26-0.1,0.47-0.21c0.14-0.11,0.23-0.16,0.26-0.16c2.23-1.12,4.13-2.16,5.68-3.14
			c1.55-0.98,3.1-2.18,4.63-3.61c0.31-0.31,0.57-0.55,0.76-0.71c0.19-0.16,0.46-0.33,0.81-0.52c0.02-0.01,0.03-0.01,0.05-0.02
			c0.68-1.03,1.43-1.89,2.25-2.57c0.84-0.7,1.77-1.2,2.8-1.49c1.03-0.3,2.1-0.2,3.22,0.29c0.98,0.42,1.72,0.95,2.22,1.6
			c0.51,0.65,0.85,1.2,1.02,1.65c0.17,0.45,0.35,0.72,0.52,0.79c1.22,0.35,2.36,0.38,3.43,0.1c1.06-0.28,2.12-0.63,3.17-1.05
			c0.53-0.21,0.95-0.37,1.25-0.46c0.67-0.67,1.66-1.35,3.01-2.05c1.41-0.73,2.5-0.99,3.27-0.79l0.1,0.05
			c0.59,0.28,0.86,0.71,0.81,1.28c-0.05,0.58-0.38,1.04-0.97,1.39c-0.07,0.04-0.46,0.18-1.18,0.44c-0.72,0.26-1.28,0.53-1.7,0.81
			c-0.42,0.28-0.63,0.58-0.63,0.89c0,0.28,0.18,0.59,0.55,0.94c0.37,0.35,0.82,0.71,1.36,1.07c0.54,0.37,0.88,0.64,1.02,0.81
			c0.28,0.28,0.56,0.63,0.84,1.05c0.52,0.8,0.79,1.65,0.81,2.54c0.02,0.89-0.27,1.72-0.86,2.49c-0.77,0.87-2.05,1.68-3.85,2.41
			c-1.8,0.73-3.41,1.24-4.84,1.52c-0.63,0.1-1.18,0.07-1.65-0.1c-0.47-0.17-0.69-0.58-0.65-1.2c0-0.28,0.1-0.53,0.29-0.76
			c0.19-0.23,0.46-0.42,0.81-0.58c0.35-0.16,0.66-0.28,0.94-0.37c0.28-0.09,0.65-0.18,1.1-0.29c0.45-0.1,0.73-0.17,0.84-0.21
			c0.28-0.07,0.51-0.13,0.71-0.18c0.19-0.05,0.47-0.14,0.84-0.26c0.37-0.12,0.69-0.24,0.97-0.37c0.28-0.12,0.58-0.26,0.89-0.42
			c0.31-0.16,0.58-0.33,0.79-0.52c0.21-0.19,0.38-0.4,0.52-0.63c0.14-0.23,0.2-0.47,0.18-0.73c-0.02-0.26-0.11-0.51-0.29-0.76
			c-0.24-0.38-0.66-0.82-1.26-1.31c-0.59-0.49-1.16-0.93-1.7-1.33c-0.54-0.4-1.02-0.85-1.44-1.33c-0.02-0.02-0.03-0.05-0.05-0.07
			c-1.49,0.6-3.52,0.91-6.13,0.91c-0.52,0-0.87,0.1-1.05,0.31c-0.17,0.21-0.26,0.59-0.26,1.15c-0.42,1.95-1.12,3.51-2.09,4.66
			c-0.84,1.26-1.95,2.23-3.35,2.93l-0.42,0.21c-0.91,0.45-1.97,0.8-3.19,1.05c-1.22,0.24-2.34,0.31-3.35,0.21
			c-0.84-0.03-1.5-0.32-1.99-0.86c-0.49-0.54-0.78-1.23-0.86-2.07c-0.09-0.84-0.11-1.64-0.05-2.41c0.05-0.74,0.16-1.47,0.33-2.18
			c-2.44,1.79-4.94,3.25-7.5,4.38c-3.4,1.5-7.3,2.7-11.7,3.61c-0.17,0-0.53,0.04-1.07,0.13c-0.54,0.09-0.97,0.16-1.28,0.21
			c-0.31,0.05-0.67,0.17-1.07,0.34c-0.4,0.17-0.69,0.38-0.86,0.63c-0.21,0.24-0.42,0.61-0.63,1.1c-0.21,0.49-0.38,0.94-0.52,1.36
			c-0.14,0.42-0.29,0.93-0.44,1.54c-0.16,0.61-0.27,1.02-0.34,1.23c-0.23,0.74-0.44,1.43-0.63,2.07
			C573.98,84.92,612,115.38,612,115.38V0H0z M327.67,31.69c0.28-1.54,0.75-2.8,1.41-3.77c0.66-0.97,1.52-1.68,2.59-2.13
			c1.07-0.45,2.38-0.67,3.93-0.67s2.86,0.22,3.93,0.67c1.07,0.45,1.93,1.16,2.59,2.13c0.65,0.97,1.12,2.23,1.41,3.77
			c0.28,1.54,0.43,3.4,0.43,5.59c0,2.18-0.14,4.05-0.43,5.59c-0.28,1.54-0.75,2.8-1.41,3.77c-0.66,0.97-1.52,1.67-2.59,2.08
			c-1.07,0.41-2.38,0.62-3.93,0.62s-2.86-0.21-3.93-0.62c-1.07-0.41-1.93-1.11-2.59-2.08c-0.65-0.97-1.13-2.23-1.41-3.77
			c-0.28-1.54-0.43-3.4-0.43-5.59C327.24,35.09,327.39,33.23,327.67,31.69z M219.88,88.12c0,3.86-3.13,6.99-6.99,6.99H52.14
			c-3.86,0-6.99-3.13-6.99-6.99V26.86c0-3.86,3.13-6.99,6.99-6.99h160.74c3.86,0,6.99,3.13,6.99,6.99V88.12z M273.16,42.86
			c-0.28,1.54-0.75,2.8-1.41,3.77c-0.66,0.97-1.52,1.67-2.59,2.08c-1.07,0.41-2.38,0.62-3.93,0.62c-1.55,0-2.86-0.21-3.93-0.62
			s-1.93-1.11-2.59-2.08c-0.66-0.97-1.13-2.23-1.41-3.77c-0.28-1.54-0.43-3.4-0.43-5.59c0-2.18,0.14-4.05,0.43-5.59
			c0.28-1.54,0.75-2.8,1.41-3.77c0.66-0.97,1.52-1.68,2.59-2.13c1.07-0.45,2.38-0.67,3.93-0.67c1.55,0,2.86,0.22,3.93,0.67
			c1.07,0.45,1.93,1.16,2.59,2.13c0.65,0.97,1.12,2.23,1.41,3.77s0.43,3.4,0.43,5.59C273.58,39.46,273.44,41.32,273.16,42.86z
			 M291.37,40.91c0,1.64-0.17,3-0.52,4.09c-0.35,1.09-0.86,1.97-1.52,2.62c-0.67,0.66-1.49,1.1-2.47,1.34
			c-0.98,0.24-2.12,0.36-3.41,0.36c-1.27,0-2.4-0.12-3.39-0.36c-0.99-0.24-1.82-0.69-2.49-1.34c-0.67-0.66-1.17-1.53-1.52-2.62
			c-0.35-1.09-0.52-2.46-0.52-4.09V25.58h6.09v16.87c0,1.14,0.16,1.89,0.49,2.28s0.78,0.57,1.34,0.57s1.02-0.19,1.34-0.57
			s0.49-1.14,0.49-2.28V25.58h6.09V40.91z M307.75,30.75h-4.59v18.22h-6.09V30.75h-4.52v-5.18h15.2V30.75z M309.13,48.97V25.58h8.85
			c1.77,0,3.15,0.32,4.13,0.97c0.98,0.64,1.72,1.51,2.21,2.59c0.49,1.08,0.79,2.33,0.9,3.74c0.11,1.41,0.16,2.88,0.16,4.41
			c0,1.53-0.05,3-0.16,4.41c-0.11,1.41-0.41,2.65-0.9,3.73c-0.49,1.08-1.23,1.94-2.21,2.59c-0.98,0.64-2.36,0.97-4.13,0.97H309.13z
			 M359.98,63.8c-0.56,1.22-1.29,2.25-2.2,3.09c-0.91,0.84-2.06,1.66-3.45,2.46c-1.4,0.8-2.62,1.43-3.66,1.88
			c-1.05,0.45-2.23,0.91-3.56,1.36c-3.21,1.12-7,2.18-11.36,3.19c-0.35,0.1-0.64,0.21-0.86,0.31c-0.23,0.1-0.4,0.18-0.52,0.24
			c-0.12,0.05-0.24,0.19-0.37,0.42c-0.12,0.23-0.2,0.38-0.24,0.44c-0.04,0.07-0.1,0.31-0.21,0.71c-0.1,0.4-0.17,0.65-0.21,0.76
			c-0.35,1.29-0.92,3.15-1.7,5.57c-0.79,2.43-1.35,4.2-1.7,5.31c-0.38,1.43-1.03,2.08-1.94,1.94c-1.08-0.21-1.4-1.06-0.94-2.56
			c0.1-0.35,0.26-0.83,0.47-1.44c0.21-0.61,0.35-1.04,0.42-1.28c1.01-3.25,1.64-5.25,1.88-6.02c0.03-0.03,0.11-0.23,0.24-0.58
			c0.12-0.35,0.22-0.61,0.29-0.79c0.07-0.17,0.13-0.43,0.18-0.76c0.05-0.33,0.03-0.51-0.08-0.55c-0.11-0.21-0.44-0.39-1-0.55
			c-0.56-0.16-0.99-0.37-1.28-0.63c-0.3-0.26-0.29-0.67,0.03-1.23c0.17-0.38,0.46-0.65,0.86-0.79c0.4-0.14,0.79-0.21,1.18-0.21
			c0.38,0,0.77-0.11,1.15-0.34c0.38-0.23,0.66-0.58,0.84-1.07c0.1-0.24,0.23-0.63,0.37-1.15c0.14-0.52,0.23-0.82,0.26-0.89
			c0.24-0.8,0.4-1.49,0.47-2.07c0.07-0.58-0.01-1.19-0.24-1.83c-0.23-0.65-0.69-1.16-1.39-1.54c-0.87-0.49-2.06-0.75-3.56-0.79
			h-0.21c-0.77,0-1.97,0.16-3.61,0.47c-1.47,0.24-2.28-0.12-2.46-1.1c-0.07-0.28-0.06-0.53,0.03-0.76c0.09-0.23,0.27-0.43,0.55-0.6
			c0.28-0.17,0.5-0.31,0.65-0.39c0.16-0.09,0.45-0.2,0.89-0.34c0.44-0.14,0.67-0.23,0.71-0.26c5.23-2.02,9.11-3.4,11.62-4.13
			c0.42-0.14,0.7-0.29,0.84-0.44c0.14-0.16,0.24-0.39,0.29-0.71c0.05-0.31,0.13-0.58,0.24-0.79c0.24-0.42,0.58-0.66,1.02-0.73
			c0.44-0.07,0.85,0.07,1.23,0.42c0.07,0.07,0.17,0.17,0.31,0.31c0.14,0.14,0.23,0.23,0.26,0.26c0.03,0.04,0.11,0.08,0.23,0.13
			s0.23,0.08,0.31,0.08c0.09,0,0.2-0.01,0.34-0.03c0.14-0.02,0.31-0.04,0.52-0.08c1.08-0.28,2.13-0.52,3.14-0.73
			c1.01-0.21,2.24-0.41,3.69-0.6c1.45-0.19,2.77-0.24,3.98-0.13c1.2,0.1,2.37,0.32,3.51,0.65c1.13,0.33,2.08,0.92,2.83,1.75
			c0.75,0.84,1.23,1.88,1.44,3.14l0.05,0.16C360.73,61.31,360.54,62.58,359.98,63.8z M361.74,42.86c-0.28,1.54-0.75,2.8-1.41,3.77
			c-0.66,0.97-1.52,1.67-2.59,2.08c-1.07,0.41-2.38,0.62-3.93,0.62s-2.86-0.21-3.93-0.62c-1.07-0.41-1.93-1.11-2.59-2.08
			c-0.65-0.97-1.13-2.23-1.41-3.77c-0.28-1.54-0.43-3.4-0.43-5.59c0-2.18,0.14-4.05,0.43-5.59s0.75-2.8,1.41-3.77
			c0.66-0.97,1.52-1.68,2.59-2.13c1.07-0.45,2.38-0.67,3.93-0.67s2.86,0.22,3.93,0.67c1.07,0.45,1.93,1.16,2.59,2.13
			c0.65,0.97,1.12,2.23,1.41,3.77c0.28,1.54,0.43,3.4,0.43,5.59C362.17,39.46,362.03,41.32,361.74,42.86z M381.14,48.97h-6.49
			c-0.15-0.31-0.27-0.67-0.34-1.08c-0.08-0.41-0.13-0.83-0.16-1.25c-0.03-0.41-0.05-0.81-0.07-1.2c-0.01-0.38-0.02-0.69-0.02-0.93
			v-1.57c0-0.66-0.03-1.2-0.1-1.64c-0.07-0.44-0.18-0.78-0.34-1.03c-0.16-0.25-0.37-0.43-0.62-0.52c-0.25-0.1-0.56-0.15-0.93-0.15
			h-1.61v9.37h-6.09V25.58h9.53c1.16,0,2.15,0.15,2.97,0.46c0.82,0.31,1.49,0.74,2,1.29s0.88,1.22,1.11,1.98
			c0.23,0.76,0.34,1.59,0.34,2.49c0,1.57-0.32,2.84-0.95,3.8c-0.63,0.96-1.65,1.55-3.05,1.77v0.07c1.46,0.13,2.47,0.64,3.01,1.54
			c0.55,0.9,0.82,2.13,0.82,3.7v2c0,0.31,0,0.62,0,0.95c0,0.33,0.01,0.64,0.03,0.93c0.02,0.29,0.05,0.56,0.1,0.8
			c0.04,0.24,0.1,0.43,0.16,0.56c0.09,0.13,0.17,0.26,0.26,0.38c0.09,0.12,0.23,0.24,0.43,0.34V48.97z M402.4,48.97l-0.62-4.1h-4.85
			l-0.62,4.1h-6.39l5.6-23.39h7.67l5.7,23.39H402.4z M425.99,41.68c-0.11,1.41-0.41,2.65-0.9,3.73c-0.49,1.08-1.23,1.94-2.21,2.59
			s-2.36,0.97-4.13,0.97h-8.85V25.58h8.85c1.77,0,3.15,0.32,4.13,0.97c0.98,0.64,1.72,1.51,2.21,2.59c0.49,1.08,0.79,2.33,0.9,3.74
			c0.11,1.41,0.16,2.88,0.16,4.41C426.15,38.8,426.09,40.27,425.99,41.68z M479.48,25.58h15.2v5.18h-4.59v18.22h-6.09V30.75h-4.52
			V25.58z M462.12,25.58h9.53c1.16,0,2.15,0.15,2.97,0.46c0.82,0.31,1.49,0.74,2,1.29s0.88,1.22,1.11,1.98
			c0.23,0.76,0.34,1.59,0.34,2.49c0,1.57-0.32,2.84-0.95,3.8c-0.63,0.96-1.65,1.55-3.05,1.77v0.07c1.46,0.13,2.47,0.64,3.01,1.54
			c0.55,0.9,0.82,2.13,0.82,3.7v2c0,0.31,0,0.62,0,0.95c0,0.33,0.01,0.64,0.03,0.93c0.02,0.29,0.05,0.56,0.1,0.8
			c0.04,0.24,0.1,0.43,0.16,0.56c0.09,0.13,0.17,0.26,0.26,0.38c0.09,0.12,0.23,0.24,0.43,0.34v0.33h-6.49
			c-0.15-0.31-0.27-0.67-0.34-1.08c-0.08-0.41-0.13-0.83-0.16-1.25c-0.03-0.41-0.05-0.81-0.07-1.2c-0.01-0.38-0.02-0.69-0.02-0.93
			v-1.57c0-0.66-0.03-1.2-0.1-1.64c-0.07-0.44-0.18-0.78-0.34-1.03c-0.16-0.25-0.37-0.43-0.62-0.52c-0.25-0.1-0.56-0.15-0.93-0.15
			h-1.61v9.37h-6.09V25.58z M439.71,48.97h-7.86l-4.95-23.39h6.39l2.46,17.63h0.07l2.46-17.63h6.49L439.71,48.97z M445.74,48.97
			V25.58h13.86v4.98h-7.76v4h7.27v4.78h-7.27v4.65h8.06v4.98H445.74z M500.31,74.69c-1.12,1.43-2.16,2.7-3.14,3.8
			c-0.98,1.1-2.18,2.34-3.61,3.72c-1.43,1.38-2.91,2.46-4.42,3.25c-1.52,0.79-2.99,1.2-4.42,1.23c-0.49,0-0.92-0.07-1.28-0.21
			c-0.37-0.14-0.65-0.36-0.84-0.65c-0.19-0.3-0.36-0.6-0.5-0.92c-0.14-0.31-0.22-0.72-0.24-1.23c-0.02-0.51-0.03-0.92-0.03-1.26
			c0-0.33,0.04-0.79,0.13-1.36c0.09-0.58,0.15-0.98,0.18-1.2c0.03-0.23,0.1-0.58,0.21-1.07c0-0.01,0-0.02,0.01-0.02
			c-0.53,0.62-0.93,1.05-1.18,1.31c-0.26,0.26-0.66,0.67-1.2,1.23c-0.54,0.56-0.98,0.99-1.31,1.28c-0.33,0.3-0.76,0.66-1.28,1.1
			c-0.52,0.44-0.99,0.79-1.41,1.05c-0.42,0.26-0.88,0.52-1.39,0.79c-0.51,0.26-1,0.46-1.49,0.6c-2.16,0.8-3.77,0.8-4.82,0
			c-0.63-0.45-1.05-1.36-1.26-2.72c0-0.42-0.07-0.7-0.21-0.84c-0.14,0-0.72,0.49-1.73,1.47c-1.08,0.77-2.31,1.37-3.69,1.81
			c-1.38,0.44-2.68,0.6-3.9,0.5c-0.84-0.03-1.48-0.3-1.94-0.79c-0.45-0.49-0.7-1.09-0.73-1.81c-0.04-0.71,0.02-1.42,0.16-2.12
			c0.14-0.7,0.35-1.38,0.63-2.04c0.59-1.4,1.43-2.81,2.51-4.24c1.08-1.43,2.34-2.72,3.77-3.87c1.43-1.15,2.94-1.96,4.53-2.43
			c1.59-0.47,3.18-0.46,4.79,0.03c0.7,0.24,1.28,0.63,1.75,1.15c0.47,0.52,0.65,1.12,0.55,1.78c-0.14,0.7-0.63,0.92-1.47,0.68
			c-0.31-0.1-0.67-0.25-1.07-0.44c-0.4-0.19-0.76-0.32-1.07-0.39c-0.31-0.07-0.72-0.09-1.2-0.05c-1.75,0-3.45,0.68-5.1,2.04
			c-1.66,1.36-3.05,2.93-4.16,4.71c-0.31,0.56-0.58,1.09-0.81,1.6c-0.23,0.51-0.44,1.09-0.63,1.75c-0.19,0.66-0.12,1.14,0.21,1.44
			c0.33,0.3,0.95,0.32,1.86,0.08c1.99-0.66,3.66-1.8,5.03-3.4c0.45-0.49,0.86-0.99,1.23-1.49c0.37-0.51,0.63-0.91,0.79-1.2
			c0.16-0.3,0.42-0.79,0.79-1.47c0.37-0.68,0.64-1.18,0.81-1.49c1.08-1.47,1.99-1.74,2.72-0.84c0.42,0.45,0.26,2.09-0.47,4.92
			c-0.77,2.9-1.01,4.64-0.73,5.23c0.38,0.73,1.48,0.51,3.3-0.68c0.84-0.59,1.74-1.34,2.7-2.25c0.96-0.91,1.75-1.71,2.36-2.41
			c0.61-0.7,1.44-1.67,2.49-2.91c1.05-1.24,1.78-2.08,2.2-2.54c0.03-0.03,0.17-0.15,0.42-0.34c0.17-0.14,0.29-0.22,0.39-0.29
			c0.78-2.59,1.76-5.61,2.96-9.05c1.15-3.38,1.92-5.6,2.3-6.65c0.45-1.22,1.12-1.73,1.99-1.52c0.38,0.07,0.66,0.31,0.84,0.71
			c0.17,0.4,0.21,0.81,0.1,1.23c-0.04,0.24-0.11,0.54-0.24,0.89c-0.12,0.35-0.27,0.73-0.44,1.15c-0.17,0.42-0.28,0.72-0.31,0.89
			c-0.7,1.92-1.62,4.72-2.77,8.4c-1.15,3.68-1.85,5.89-2.09,6.62c0,0.04-0.1,0.34-0.29,0.92c-0.19,0.58-0.34,1.05-0.44,1.41
			c-0.1,0.37-0.25,0.88-0.44,1.54c-0.19,0.66-0.33,1.23-0.42,1.7c-0.09,0.47-0.15,0.96-0.18,1.47c-0.04,0.51-0.01,0.93,0.08,1.26
			c0.09,0.33,0.25,0.55,0.5,0.65c0.52,0.31,1.4,0.07,2.62-0.73c1.22-0.8,2.53-1.92,3.93-3.35c1.4-1.43,2.57-2.68,3.53-3.74
			c0.96-1.06,1.75-1.98,2.38-2.75c0-0.03,0.03-0.07,0.1-0.1c0.14-0.21,0.25-0.37,0.34-0.47c0.09-0.1,0.21-0.24,0.37-0.42
			c0.16-0.17,0.31-0.31,0.44-0.39c0.14-0.09,0.3-0.16,0.47-0.24c0.17-0.07,0.35-0.1,0.52-0.08c0.17,0.02,0.35,0.08,0.52,0.18
			l0.16,0.1C501.41,72.46,501.33,73.4,500.31,74.69z M501.93,48.97h-6.09V25.58h6.09V48.97z M517.88,47.64
			c-1.42,1.12-3.47,1.69-6.16,1.69c-1.27,0-2.39-0.1-3.36-0.31c-0.97-0.21-1.79-0.57-2.46-1.08c-0.67-0.51-1.17-1.18-1.52-2.01
			c-0.35-0.83-0.52-1.86-0.52-3.08v-0.82h5.9v0.56c0,1,0.19,1.71,0.56,2.11c0.37,0.4,0.85,0.61,1.44,0.61
			c0.63,0,1.12-0.22,1.46-0.66c0.34-0.44,0.51-0.97,0.51-1.61c0-0.76-0.23-1.37-0.7-1.82c-0.47-0.45-1.06-0.83-1.77-1.15
			c-0.71-0.32-1.48-0.64-2.31-0.97c-0.83-0.33-1.6-0.75-2.31-1.28c-0.71-0.52-1.3-1.21-1.77-2.06c-0.47-0.85-0.7-1.97-0.7-3.34
			c0-2.38,0.63-4.19,1.9-5.44c1.27-1.25,3.19-1.87,5.77-1.87c2.67,0,4.59,0.57,5.78,1.72c1.19,1.15,1.79,2.98,1.79,5.49h-5.7v-0.56
			c0-0.7-0.14-1.29-0.43-1.79c-0.28-0.49-0.72-0.74-1.31-0.74c-0.65,0-1.14,0.21-1.44,0.64c-0.31,0.43-0.46,0.9-0.46,1.42
			c0,0.76,0.25,1.37,0.74,1.82c0.49,0.45,1.11,0.84,1.85,1.16c0.74,0.33,1.54,0.66,2.39,1c0.85,0.34,1.65,0.78,2.39,1.33
			c0.74,0.55,1.36,1.26,1.85,2.15c0.49,0.88,0.74,2.04,0.74,3.46C520.01,44.71,519.3,46.52,517.88,47.64z M528.03,48.97h-6.09V25.58
			h6.09V48.97z M547.2,48.97h-6.68l-4.06-14.45h-0.07v14.45h-5.7V25.58h6.82l3.93,14.42h0.07V25.58h5.7V48.97z M556.04,41.19
			c0.04,1.04,0.14,1.86,0.28,2.47c0.14,0.61,0.35,1.04,0.62,1.28c0.27,0.24,0.64,0.36,1.1,0.36c0.33,0,0.62-0.07,0.87-0.2
			c0.25-0.13,0.46-0.38,0.64-0.74c0.17-0.36,0.31-0.86,0.41-1.51c0.1-0.64,0.15-1.47,0.15-2.47h-2.16v-4.13h7.86v12.71h-4.13
			l-0.13-2.06h-0.07c-0.2,0.5-0.48,0.92-0.83,1.24c-0.36,0.33-0.76,0.57-1.21,0.74c-0.45,0.16-0.93,0.28-1.44,0.34
			c-0.51,0.07-1.03,0.1-1.56,0.1c-1.55,0-2.77-0.26-3.67-0.77c-0.9-0.51-1.57-1.28-2.03-2.31c-0.46-1.03-0.75-2.29-0.87-3.8
			c-0.12-1.51-0.18-3.23-0.18-5.18c0-1.97,0.12-3.7,0.34-5.21c0.23-1.51,0.67-2.77,1.31-3.8c0.64-1.03,1.53-1.81,2.67-2.34
			c1.14-0.53,2.6-0.8,4.39-0.8c1.07,0,2.06,0.14,2.97,0.43c0.91,0.28,1.69,0.74,2.34,1.38c0.66,0.63,1.17,1.45,1.54,2.44
			c0.37,0.99,0.56,2.2,0.56,3.62h-5.9c0-1.25-0.11-2.15-0.33-2.72c-0.22-0.68-0.69-1.02-1.41-1.02c-0.5,0-0.9,0.12-1.2,0.36
			c-0.3,0.24-0.51,0.67-0.66,1.28c-0.14,0.61-0.23,1.44-0.28,2.47c-0.04,1.04-0.07,2.34-0.07,3.91S556,40.15,556.04,41.19z"/>
		<path class="st1" d="M433.58,81.18c-0.31,0.63-0.37,0.91-0.16,0.84c0.91-0.45,1.76-1.52,2.57-3.19c0.42-0.91,0.49-1.33,0.21-1.26
			c-0.18,0.07-0.54,0.49-1.1,1.26C434.75,79.18,434.24,79.96,433.58,81.18z"/>
		<path class="st1" d="M389.51,75.27c0.21-0.17,0.35-0.3,0.42-0.37c0.07-0.07,0.24-0.22,0.52-0.44c0.28-0.23,0.47-0.37,0.58-0.45
			c0.28-0.24,0.41-0.42,0.39-0.52c-0.02-0.11-0.15-0.28-0.39-0.52c-0.66-0.84-1.41-1.26-2.25-1.26c-0.84,0-1.64,0.35-2.41,1.05
			c-1.08,1.05-2.05,2.56-2.91,4.55c-0.86,1.99-1.28,3.77-1.28,5.34c0,0.63,0.11,0.99,0.34,1.1c0.23,0.1,0.6-0.05,1.13-0.47
			c0.56-0.45,1.1-1.05,1.62-1.78c0.52-0.73,1.08-1.6,1.68-2.59c0.59-0.99,1.03-1.72,1.31-2.17c0.14-0.21,0.29-0.4,0.44-0.58
			c0.16-0.17,0.28-0.32,0.37-0.44C389.15,75.59,389.3,75.44,389.51,75.27z"/>
		<path class="st1" d="M388.72,82.02c0.91-0.45,1.76-1.52,2.57-3.19c0.42-0.91,0.49-1.33,0.21-1.26c-0.18,0.07-0.54,0.49-1.1,1.26
			c-0.35,0.35-0.86,1.13-1.52,2.36C388.56,81.81,388.51,82.09,388.72,82.02z"/>
	</g>
	<path d="M612,115.74l-0.01-0.49c0,0-52.28-41.89-317.69-9.96c-31.64,3.81-60.05,6.7-85.58,8.85c25.83-1.09,54.52-2.72,86.38-5
		c211.82-15.13,291.95,9.29,316.9,20.71V115.74z"/>
</g>
</svg>
