<?xml version="1.0" encoding="utf-8"?>
<!-- Generator: Adobe Illustrator 27.7.0, SVG Export Plug-In . SVG Version: 6.00 Build 0)  -->
<svg version="1.1" id="Layer_1" xmlns="http://www.w3.org/2000/svg" xmlns:xlink="http://www.w3.org/1999/xlink" x="0px" y="0px"
	 viewBox="0 0 612 792" style="enable-background:new 0 0 612 792;" xml:space="preserve">
<style type="text/css">
	.st0{fill:#FFFFFF;}
	.st1{fill:#FF0000;}
</style>
<rect x="19" y="725" class="st0" width="212" height="53"/>
<g>
	<path class="st1" d="M172.57,751.88c-0.13,0.05-0.4,0.36-0.81,0.93c-0.26,0.26-0.63,0.84-1.12,1.74c-0.23,0.46-0.27,0.67-0.12,0.62
		c0.67-0.34,1.3-1.12,1.9-2.36C172.73,752.14,172.78,751.83,172.57,751.88z"/>
	<path class="st1" d="M170.77,750.5c0.06-0.09,0.17-0.2,0.33-0.33c0.15-0.13,0.26-0.22,0.31-0.27c0.05-0.05,0.18-0.16,0.39-0.33
		c0.21-0.17,0.35-0.28,0.43-0.33c0.21-0.18,0.3-0.31,0.29-0.39c-0.01-0.08-0.11-0.21-0.29-0.39c-0.49-0.62-1.05-0.93-1.67-0.93
		s-1.21,0.26-1.78,0.77c-0.8,0.77-1.52,1.9-2.15,3.37c-0.63,1.47-0.95,2.79-0.95,3.95c0,0.46,0.08,0.74,0.25,0.81
		c0.17,0.08,0.45-0.04,0.83-0.35c0.41-0.33,0.81-0.77,1.2-1.32s0.8-1.18,1.24-1.92s0.76-1.27,0.97-1.61c0.1-0.16,0.21-0.3,0.33-0.43
		C170.62,750.7,170.71,750.59,170.77,750.5z"/>
	<path class="st1" d="M68.34,751.45c0.72-0.15,1.43-0.45,2.13-0.89s1.24-0.93,1.63-1.47s0.48-0.94,0.29-1.2s-0.61-0.27-1.26-0.04
		c-1.45,0.44-2.84,1.43-4.18,2.98c-0.1,0-0.19,0.03-0.25,0.1s-0.1,0.14-0.1,0.21c-0.39,0.44-0.27,0.65,0.35,0.62
		C67.51,751.74,67.98,751.63,68.34,751.45z"/>
	<path class="st1" d="M196.5,750.83c-0.1,0-0.19,0.03-0.25,0.1s-0.1,0.14-0.1,0.21c-0.39,0.44-0.27,0.65,0.35,0.62
		c0.57-0.03,1.03-0.13,1.39-0.31c0.72-0.15,1.43-0.45,2.13-0.89c0.7-0.44,1.24-0.93,1.63-1.47s0.48-0.94,0.29-1.2
		s-0.61-0.27-1.26-0.04C199.24,748.29,197.84,749.28,196.5,750.83z"/>
	<path class="st1" d="M317.02,694.67C51.61,726.59-0.67,684.71-0.67,684.71v107.25h611.34v-0.01V689.88
		C586.14,682.39,513.43,671.05,317.02,694.67z M59.63,757.86c-0.26,0.27-0.65,0.41-1.16,0.41c-0.21-0.03-0.52-0.05-0.95-0.08
		s-0.75-0.05-0.99-0.08c-2.63-0.05-5.32,0.15-8.05,0.62c-2.74,0.46-5.01,1.25-6.81,2.36c-0.08,0.05-0.25,0.17-0.5,0.35
		c-0.26,0.18-0.46,0.32-0.62,0.41c-0.16,0.09-0.35,0.18-0.58,0.27c-0.23,0.09-0.45,0.11-0.66,0.06s-0.37-0.18-0.5-0.39
		c-0.21-0.28-0.27-0.57-0.19-0.87s0.26-0.55,0.54-0.75l0.12-0.08c0.08-0.05,0.43-0.25,1.05-0.58s1.08-0.64,1.37-0.91
		c0.3-0.27,0.51-0.6,0.64-0.99c0.1-0.21,0.21-0.55,0.33-1.03s0.19-0.75,0.21-0.83c0.36-1.16,0.89-2.84,1.59-5.03
		s1.12-3.55,1.28-4.07c1.83-5.81,2.83-8.97,2.98-9.49c0.03-0.05,0.07-0.19,0.14-0.41c0.06-0.22,0.11-0.37,0.14-0.46
		s0.08-0.23,0.17-0.41c0.09-0.18,0.18-0.31,0.27-0.39s0.2-0.15,0.33-0.21s0.28-0.08,0.46-0.06c0.39,0.03,0.66,0.19,0.81,0.48
		c0.16,0.3,0.19,0.63,0.12,0.99c-0.05,0.18-0.12,0.39-0.19,0.64c-0.08,0.25-0.17,0.52-0.27,0.81c-0.1,0.3-0.17,0.51-0.19,0.64
		c-0.18,0.57-0.89,2.81-2.13,6.74c-1.24,3.92-2.18,6.92-2.83,8.98c-0.03,0.05-0.08,0.2-0.17,0.45c-0.09,0.25-0.17,0.46-0.23,0.66
		c-0.06,0.19-0.14,0.43-0.23,0.7s-0.14,0.48-0.16,0.62c-0.01,0.14-0.01,0.26,0.02,0.37c0.08,0.13,0.62,0.03,1.63-0.31
		c2.56-0.77,5.69-1.12,9.41-1.05c2.04,0.03,3.23,0.13,3.56,0.31c0.31,0.15,0.5,0.39,0.56,0.72
		C59.98,757.29,59.89,757.59,59.63,757.86z M137.22,748.93c-0.05,0.1-0.13,0.23-0.23,0.37c-0.1,0.14-0.19,0.26-0.25,0.35
		c-0.06,0.09-0.16,0.21-0.29,0.35c-0.13,0.14-0.21,0.24-0.23,0.29c-0.05,0.05-0.37,0.43-0.95,1.14s-0.96,1.16-1.12,1.36
		c-0.17,0.19-0.54,0.61-1.1,1.24c-0.57,0.63-1,1.08-1.3,1.34s-0.72,0.62-1.26,1.08s-1.02,0.81-1.43,1.03
		c-0.41,0.22-0.88,0.44-1.39,0.66c-0.52,0.22-1.02,0.37-1.51,0.45c-1.34,0.15-2.25-0.14-2.71-0.87c-0.46-0.74-0.59-1.78-0.39-3.12
		c0.08-0.57,0.33-1.52,0.76-2.87c0.43-1.34,0.65-2.34,0.68-2.98c0.1-1.5-0.84-1.59-2.83-0.27c-0.72,0.46-1.32,0.94-1.78,1.43
		c-1.91,1.86-3.54,4.29-4.88,7.28c-0.41,0.93-0.96,1.37-1.63,1.32c-0.36-0.03-0.61-0.19-0.76-0.48c-0.14-0.3-0.16-0.63-0.06-0.99
		c0.15-0.52,0.4-1.3,0.74-2.34c0.34-1.05,0.52-1.62,0.54-1.72c0.1-0.29,0.2-0.61,0.31-0.94c-0.59,0.42-1.25,0.79-1.97,1.09
		c-1.11,0.46-2.13,0.56-3.06,0.27c-0.21-0.08-0.39-0.17-0.54-0.29s-0.28-0.23-0.37-0.33c-0.09-0.1-0.15-0.25-0.19-0.43
		s-0.07-0.33-0.1-0.45s-0.02-0.28,0.02-0.48c0.04-0.21,0.07-0.37,0.1-0.48c0.03-0.12,0.08-0.29,0.17-0.52
		c0.09-0.23,0.15-0.39,0.19-0.48c0.04-0.09,0.12-0.26,0.23-0.5s0.17-0.39,0.17-0.45c0.31-0.54,0.41-0.94,0.29-1.2
		s-0.54-0.27-1.26-0.04c-0.44,0.13-0.87,0.3-1.3,0.5c-0.43,0.21-0.83,0.48-1.22,0.81c-0.39,0.34-0.73,0.63-1.03,0.89
		c-0.3,0.26-0.62,0.63-0.97,1.12s-0.62,0.87-0.81,1.12c-0.19,0.26-0.46,0.68-0.79,1.28c-0.34,0.59-0.56,1-0.68,1.22
		s-0.35,0.66-0.7,1.32c-0.35,0.66-0.55,1.06-0.6,1.22c-0.03,0.03-0.07,0.1-0.14,0.21c-0.06,0.12-0.11,0.2-0.14,0.25
		s-0.07,0.13-0.14,0.23c-0.06,0.1-0.12,0.18-0.15,0.23c-0.04,0.05-0.09,0.12-0.16,0.19c-0.06,0.08-0.14,0.13-0.21,0.15
		c-0.08,0.03-0.15,0.06-0.23,0.1s-0.16,0.05-0.25,0.04s-0.2-0.03-0.33-0.06c-0.65-0.21-0.87-0.7-0.66-1.47
		c0.15-0.57,0.41-1.38,0.75-2.44c0.24-0.73,0.4-1.24,0.5-1.58c-0.24,0.27-0.45,0.5-0.58,0.63c-0.19,0.19-0.49,0.5-0.89,0.91
		s-0.72,0.73-0.97,0.95c-0.25,0.22-0.56,0.49-0.95,0.81s-0.74,0.58-1.05,0.77c-0.31,0.19-0.65,0.39-1.03,0.58
		c-0.37,0.19-0.74,0.34-1.1,0.45c-1.6,0.59-2.79,0.59-3.56,0c-0.46-0.33-0.77-1.01-0.93-2.01c0-0.31-0.05-0.52-0.15-0.62
		c-0.1,0-0.53,0.36-1.28,1.08c-0.8,0.57-1.71,1.01-2.73,1.34c-1.02,0.32-1.98,0.45-2.88,0.37c-0.62-0.03-1.1-0.22-1.43-0.58
		c-0.34-0.36-0.52-0.81-0.54-1.34c-0.03-0.53,0.01-1.05,0.12-1.57c0.07-0.33,0.16-0.66,0.27-0.98c-1.16,0.68-2.41,1.33-3.76,1.97
		c-4.1,1.92-7.63,2.85-10.57,2.77c-0.96,0-1.65-0.25-2.09-0.75s-0.63-1.13-0.58-1.88s0.19-1.48,0.41-2.21
		c0.22-0.72,0.51-1.39,0.87-2.01c0.9-1.57,2.07-2.94,3.5-4.08c1.43-1.15,2.96-1.86,4.59-2.15c1.11-0.16,1.95,0.05,2.52,0.62
		s0.77,1.39,0.62,2.48c-0.1,0.77-0.45,1.48-1.05,2.13s-1.31,1.16-2.15,1.55c-0.84,0.39-1.68,0.69-2.52,0.91s-1.65,0.36-2.42,0.41
		c-0.67,0.08-1.13,0.22-1.37,0.43c-0.25,0.21-0.41,0.63-0.48,1.28c-0.15,0.93,0.54,1.32,2.09,1.16c2.35-0.26,5.45-1.39,9.29-3.41
		c2.73-1.43,4.82-2.83,6.3-4.2c0.17-0.18,0.35-0.35,0.53-0.52c0.11-0.12,0.23-0.24,0.34-0.35c0.19-0.19,0.37-0.34,0.55-0.46
		c0.08-0.06,0.14-0.14,0.22-0.2c1.06-0.85,2.17-1.45,3.35-1.8c1.17-0.35,2.36-0.34,3.54,0.02c0.52,0.18,0.95,0.46,1.3,0.85
		c0.35,0.39,0.48,0.83,0.41,1.32c-0.1,0.52-0.46,0.68-1.08,0.5c-0.23-0.08-0.5-0.19-0.79-0.33c-0.3-0.14-0.56-0.24-0.79-0.29
		s-0.53-0.06-0.89-0.04c-1.25,0-2.47,0.48-3.66,1.43c-0.07,0.14-0.14,0.28-0.25,0.43c-0.57,0.56-1.19,1.11-1.85,1.65
		c-0.39,0.47-0.76,0.97-1.09,1.49c-0.23,0.41-0.43,0.81-0.6,1.18c-0.17,0.38-0.32,0.81-0.46,1.3s-0.09,0.85,0.15,1.06
		c0.25,0.22,0.7,0.24,1.37,0.06c1.47-0.49,2.71-1.33,3.72-2.52c0.33-0.36,0.64-0.73,0.91-1.1c0.27-0.37,0.46-0.67,0.58-0.89
		c0.12-0.22,0.31-0.58,0.58-1.08c0.27-0.5,0.47-0.87,0.6-1.1c0.8-1.08,1.47-1.29,2.01-0.62c0.31,0.34,0.19,1.55-0.35,3.64
		c-0.57,2.14-0.75,3.43-0.54,3.87c0.28,0.54,1.1,0.37,2.44-0.5c0.62-0.44,1.28-0.99,1.99-1.67c0.71-0.67,1.29-1.26,1.74-1.78
		s1.06-1.23,1.84-2.15s1.32-1.54,1.63-1.88c0.03-0.03,0.13-0.11,0.31-0.25s0.3-0.23,0.37-0.27c0,0,0.01-0.01,0.02-0.01
		c0.16-0.49,0.29-0.89,0.39-1.17c0.1-0.31,0.21-0.55,0.31-0.74c0.1-0.18,0.26-0.33,0.48-0.46s0.48-0.14,0.79-0.04
		c0.26,0.1,0.45,0.21,0.58,0.31c0.13,0.1,0.19,0.24,0.19,0.41s-0.01,0.3-0.02,0.39c-0.01,0.09-0.07,0.26-0.17,0.52
		s-0.17,0.41-0.19,0.46c-0.46,1.34-0.66,2.04-0.58,2.09c0.05,0.03,0.12,0.01,0.19-0.04c0.08-0.05,0.17-0.14,0.29-0.25
		s0.22-0.23,0.31-0.33c0.09-0.1,0.19-0.21,0.29-0.33s0.17-0.17,0.19-0.17c0.72-0.77,1.51-1.42,2.36-1.94
		c0.52-0.33,1.04-0.61,1.57-0.81c0.53-0.21,1.12-0.35,1.78-0.43c0.66-0.08,1.22,0.03,1.68,0.31c0.52,0.28,0.81,0.68,0.89,1.2
		s0.01,1.02-0.19,1.51c-0.21,0.49-0.43,1.03-0.68,1.63c-0.25,0.59-0.38,1.03-0.41,1.32c0,0.83,1.08,0.23,3.25-1.78
		c0.13-0.1,0.22-0.19,0.27-0.27c0.49-0.44,0.86-0.8,1.12-1.08c0.22-0.25,0.42-0.44,0.6-0.6c0.1-0.33,0.19-0.62,0.25-0.84
		c0.41-1.26,1.02-1.69,1.82-1.28c0.21,0.1,0.35,0.23,0.44,0.37c0.09,0.14,0.13,0.31,0.12,0.5c-0.01,0.19-0.04,0.35-0.08,0.48
		s-0.11,0.32-0.21,0.56c-0.1,0.25-0.18,0.42-0.23,0.52c-0.41,1.24-0.48,1.81-0.19,1.7c0.18-0.1,0.5-0.41,0.97-0.93
		c0.46-0.52,0.76-0.83,0.89-0.93c0.88-0.8,1.9-1.46,3.06-1.97s2.19-0.61,3.1-0.27c0.59,0.23,0.95,0.74,1.08,1.51
		c0.13,0.77,0.11,1.54-0.06,2.3s-0.41,1.66-0.72,2.69s-0.49,1.68-0.54,1.94c-0.26,1.29-0.2,2.1,0.17,2.44
		c0.37,0.33,1.15,0.14,2.34-0.58l0.15-0.12c0.75-0.49,1.5-1.12,2.27-1.9c0.76-0.77,1.68-1.81,2.77-3.1
		c1.08-1.29,1.74-2.05,1.97-2.28c0.9-1.01,1.64-1.2,2.21-0.58c0.08,0.13,0.14,0.25,0.17,0.37c0.04,0.12,0.04,0.25,0.02,0.39
		C137.31,748.71,137.27,748.83,137.22,748.93z M162.35,747.5c-0.08,0.18-0.42,1.01-1.03,2.48s-1.02,2.48-1.24,3.04
		s-0.52,1.38-0.91,2.46s-0.7,2.04-0.93,2.87c-0.21,0.72-0.37,1.6-0.5,2.63c-0.05,0.41-0.19,0.74-0.43,0.97
		c-0.23,0.23-0.54,0.28-0.93,0.16c-0.77-0.21-0.96-1.21-0.54-3.02c0.03-0.05,0.04-0.09,0.04-0.12c0.44-2.01,1.57-5.21,3.41-9.6
		c0.1-0.26,0.31-0.77,0.62-1.53s0.54-1.32,0.7-1.68c0.15-0.36,0.37-0.89,0.64-1.59s0.48-1.28,0.64-1.74
		c0.15-0.46,0.33-0.99,0.52-1.57s0.35-1.13,0.48-1.65c0.39-1.63,0.32-2.38-0.19-2.25c-0.18,0.05-0.44,0.23-0.77,0.54
		c-0.23,0.23-0.5,0.55-0.81,0.95s-0.6,0.79-0.87,1.16s-0.6,0.87-0.99,1.47s-0.7,1.1-0.95,1.47c-0.25,0.38-0.57,0.92-0.99,1.63
		c-0.41,0.71-0.69,1.2-0.83,1.47c-0.14,0.27-0.41,0.75-0.81,1.43s-0.61,1.05-0.64,1.1c-0.05,0.1-0.2,0.38-0.45,0.83
		s-0.45,0.81-0.6,1.06c-0.15,0.26-0.38,0.63-0.68,1.12c-0.3,0.49-0.56,0.9-0.79,1.22c-0.23,0.32-0.5,0.7-0.81,1.12
		c-0.31,0.43-0.61,0.77-0.89,1.04c-0.28,0.27-0.58,0.54-0.89,0.79c-0.31,0.26-0.62,0.43-0.93,0.52s-0.61,0.12-0.89,0.1
		c-1.63-0.23-2.25-2.37-1.86-6.43c0.03-0.18,0.04-0.32,0.04-0.41c0-0.09,0.01-0.19,0.02-0.31c0.01-0.12,0.01-0.2,0-0.25
		s-0.03-0.08-0.06-0.08c-0.08,0.05-0.65,1.19-1.7,3.41c-0.41,0.83-1.08,2.2-2.01,4.12s-1.64,3.4-2.13,4.43
		c-0.15,0.31-0.28,0.54-0.39,0.7c-0.1,0.16-0.27,0.29-0.5,0.41s-0.49,0.13-0.77,0.06c-0.18-0.08-0.33-0.17-0.45-0.29
		s-0.19-0.26-0.21-0.43c-0.03-0.17-0.03-0.32-0.02-0.45s0.06-0.3,0.14-0.5c0.08-0.21,0.14-0.37,0.19-0.48
		c0.05-0.12,0.14-0.28,0.25-0.48c0.12-0.21,0.2-0.33,0.25-0.39c0.21-0.44,1.19-2.45,2.94-6.04c3.72-7.67,5.87-12.12,6.47-13.36
		c0-0.03,0.07-0.19,0.21-0.5s0.25-0.54,0.33-0.68s0.19-0.31,0.33-0.5s0.28-0.33,0.41-0.41c0.39-0.21,0.75-0.18,1.1,0.08
		s0.48,0.63,0.41,1.12c-0.03,0.16-0.08,0.37-0.15,0.64c-0.08,0.27-0.17,0.57-0.29,0.89s-0.19,0.55-0.21,0.68
		c-0.85,2.87-1.51,5.47-1.97,7.82c-0.72,3.85-0.68,5.67,0.12,5.46c0.36-0.08,0.85-0.55,1.47-1.43c0.41-0.57,0.85-1.23,1.3-1.97
		c0.45-0.75,0.83-1.41,1.14-1.97s0.7-1.3,1.18-2.19s0.85-1.56,1.1-1.99c3.25-5.86,5.85-9.02,7.78-9.49
		c0.85-0.18,1.54-0.06,2.05,0.37c0.52,0.43,0.79,1.09,0.81,1.99c0.03,1.68-0.92,4.81-2.83,9.41
		C162.48,747.19,162.4,747.37,162.35,747.5z M214.43,749.44c-2.38,2.35-5.61,4.49-9.72,6.41c-4.1,1.92-7.63,2.85-10.57,2.77
		c-0.96,0-1.65-0.25-2.09-0.75s-0.63-1.13-0.58-1.88s0.19-1.48,0.41-2.21c0.04-0.15,0.11-0.28,0.16-0.43
		c-0.85,0.25-1.65,0.27-2.38,0.04c-0.21-0.08-0.39-0.17-0.54-0.29s-0.28-0.23-0.37-0.33c-0.09-0.1-0.15-0.25-0.19-0.43
		c-0.04-0.18-0.07-0.33-0.1-0.45s-0.02-0.28,0.02-0.48c0.04-0.21,0.07-0.37,0.1-0.48c0.03-0.12,0.08-0.29,0.17-0.52
		c0.09-0.23,0.15-0.39,0.19-0.48c0.04-0.09,0.12-0.26,0.23-0.5s0.17-0.39,0.17-0.45c0.31-0.54,0.41-0.94,0.29-1.2
		s-0.54-0.27-1.26-0.04c-0.44,0.13-0.87,0.3-1.3,0.5c-0.43,0.21-0.83,0.48-1.22,0.81c-0.39,0.34-0.73,0.63-1.03,0.89
		s-0.62,0.63-0.97,1.12s-0.62,0.87-0.81,1.12c-0.19,0.26-0.46,0.68-0.79,1.28c-0.34,0.59-0.56,1-0.68,1.22s-0.35,0.66-0.7,1.32
		c-0.35,0.66-0.55,1.06-0.6,1.22c-0.03,0.03-0.07,0.1-0.14,0.21c-0.06,0.12-0.11,0.2-0.14,0.25s-0.07,0.13-0.14,0.23
		c-0.06,0.1-0.12,0.18-0.15,0.23c-0.04,0.05-0.09,0.12-0.16,0.19c-0.06,0.08-0.14,0.13-0.21,0.15c-0.08,0.03-0.15,0.06-0.23,0.1
		s-0.16,0.05-0.25,0.04s-0.2-0.03-0.33-0.06c-0.65-0.21-0.87-0.7-0.66-1.47c0.15-0.57,0.41-1.38,0.75-2.44
		c0.35-1.06,0.55-1.7,0.6-1.94c0.29-0.93,0.55-1.74,0.78-2.47c-1.06,0.36-2.46,0.54-4.19,0.54c-0.39,0-0.65,0.08-0.77,0.23
		c-0.13,0.16-0.19,0.44-0.19,0.85c-0.31,1.45-0.83,2.59-1.55,3.45c-0.62,0.93-1.45,1.65-2.48,2.17l-0.31,0.16
		c-0.67,0.34-1.46,0.59-2.36,0.77s-1.73,0.23-2.48,0.16c-0.62-0.03-1.11-0.24-1.47-0.64s-0.57-0.91-0.64-1.53
		c-0.06-0.62-0.08-1.21-0.04-1.78c0.04-0.57,0.12-1.12,0.25-1.66c0.21-0.7,0.48-1.42,0.83-2.17s0.78-1.52,1.3-2.3
		c0.52-0.79,1.08-1.44,1.7-1.96s1.31-0.88,2.07-1.1c0.76-0.22,1.55-0.15,2.38,0.21c0.72,0.31,1.27,0.7,1.65,1.18
		c0.37,0.48,0.63,0.88,0.75,1.22c0.13,0.34,0.26,0.53,0.39,0.58c0.9,0.26,1.75,0.28,2.54,0.08c0.79-0.21,1.57-0.46,2.34-0.77
		c0.55-0.22,0.93-0.35,1.15-0.4c0.11-0.34,0.21-0.62,0.28-0.84c0.1-0.31,0.21-0.55,0.31-0.74c0.1-0.18,0.26-0.33,0.48-0.46
		s0.48-0.14,0.79-0.04c0.26,0.1,0.45,0.21,0.58,0.31s0.19,0.24,0.19,0.41s-0.01,0.3-0.02,0.39c-0.01,0.09-0.07,0.26-0.17,0.52
		c-0.1,0.26-0.17,0.41-0.19,0.46c-0.46,1.34-0.66,2.04-0.58,2.09c0.05,0.03,0.12,0.01,0.19-0.04c0.08-0.05,0.17-0.14,0.29-0.25
		s0.22-0.23,0.31-0.33c0.09-0.1,0.19-0.21,0.29-0.33c0.1-0.12,0.17-0.17,0.19-0.17c0.72-0.77,1.51-1.42,2.36-1.94
		c0.52-0.33,1.04-0.61,1.57-0.81c0.53-0.21,1.12-0.35,1.78-0.43s1.22,0.03,1.68,0.31c0.52,0.28,0.81,0.68,0.89,1.2
		s0.01,1.02-0.19,1.51c-0.21,0.49-0.43,1.03-0.68,1.63c-0.25,0.59-0.38,1.03-0.41,1.32c0,0.83,1.08,0.23,3.25-1.78
		c0.13-0.1,0.22-0.19,0.27-0.27c0.49-0.44,0.86-0.8,1.12-1.08c0.52-0.59,0.94-0.92,1.28-0.97c0.05,0,0.09,0.01,0.14,0.01
		c1.24-0.86,2.55-1.43,3.92-1.67c1.11-0.16,1.95,0.05,2.52,0.62s0.77,1.39,0.62,2.48c-0.1,0.77-0.45,1.48-1.05,2.13
		s-1.31,1.16-2.15,1.55s-1.68,0.69-2.52,0.91c-0.84,0.22-1.65,0.36-2.42,0.41c-0.67,0.08-1.13,0.22-1.37,0.43
		c-0.25,0.21-0.41,0.63-0.48,1.28c-0.15,0.93,0.54,1.32,2.09,1.16c2.35-0.26,5.45-1.39,9.29-3.41c3.3-1.73,5.69-3.42,7.16-5.07
		c0.77-0.77,1.46-0.93,2.05-0.46C215.05,748,214.99,748.64,214.43,749.44z"/>
</g>
</svg>
