<?xml version="1.0" encoding="utf-8"?>
<!-- Generator: Adobe Illustrator 27.7.0, SVG Export Plug-In . SVG Version: 6.00 Build 0)  -->
<svg version="1.1" id="Layer_1" xmlns="http://www.w3.org/2000/svg" xmlns:xlink="http://www.w3.org/1999/xlink" x="0px" y="0px"
	 viewBox="0 0 612 792" style="enable-background:new 0 0 612 792;" xml:space="preserve">
<style type="text/css">
	.st0{fill:#FFFFFF;}
	.st1{fill:#FF0000;}
</style>
<path class="st0" d="M576.51,10.04H27.45v67.92h5.66v23.58h22.95v47.94c0,7.16,5.8,12.96,12.96,12.96h473.95
	c7.16,0,12.96-5.8,12.96-12.96V77.96h20.57V10.04z"/>
<path d="M593.61,0.65H0v102.18c30.87,11.68,108.87,20.24,294.78,6.96C507.5,94.6,587.41,119.29,612,130.65V1.55L593.61,0.65z
	 M219.88,88.12c0,3.86-3.13,6.99-6.99,6.99H52.14c-3.86,0-6.99-3.13-6.99-6.99V26.86c0-3.86,3.13-6.99,6.99-6.99h160.74
	c3.86,0,6.99,3.13,6.99,6.99V88.12z"/>
<path class="st1" d="M0,0v110.2c24.56,7.5,97.35,18.85,293.97-4.8C559.67,73.45,612,115.38,612,115.38V0H0z M219.88,88.12
	c0,3.86-3.13,6.99-6.99,6.99H52.14c-3.86,0-6.99-3.13-6.99-6.99V26.86c0-3.86,3.13-6.99,6.99-6.99h160.74
	c3.86,0,6.99,3.13,6.99,6.99V88.12z"/>
</svg>
