<?xml version="1.0" encoding="utf-8"?>
<!-- Generator: Adobe Illustrator 27.7.0, SVG Export Plug-In . SVG Version: 6.00 Build 0)  -->
<svg version="1.1" id="Layer_1" xmlns="http://www.w3.org/2000/svg" xmlns:xlink="http://www.w3.org/1999/xlink" x="0px" y="0px"
	 viewBox="0 0 612 792" style="enable-background:new 0 0 612 792;" xml:space="preserve">
<style type="text/css">
	.st0{fill:#FF0000;}
	.st1{fill:#FFFFFF;}
	.st2{fill:none;stroke:#FFFFFF;stroke-miterlimit:10;}
</style>
<g>
	<path d="M377.15,680.24h3c0.82,0,1.4,0.24,1.75,0.73c0.2,0.29,0.3,0.62,0.3,0.99c0,0.44-0.12,0.8-0.37,1.08
		c-0.13,0.15-0.32,0.28-0.56,0.41c0.36,0.14,0.62,0.29,0.8,0.46c0.31,0.3,0.47,0.72,0.47,1.25c0,0.45-0.14,0.85-0.42,1.21
		c-0.42,0.54-1.09,0.81-2.01,0.81h-2.95V680.24z M379.8,683.17c0.4,0,0.71-0.05,0.94-0.17c0.35-0.17,0.53-0.49,0.53-0.94
		c0-0.45-0.19-0.76-0.56-0.92c-0.21-0.09-0.52-0.13-0.94-0.13h-1.7v2.15H379.8z M380.12,686.38c0.58,0,1-0.17,1.25-0.5
		c0.16-0.21,0.23-0.47,0.23-0.77c0-0.5-0.23-0.85-0.68-1.03c-0.24-0.1-0.56-0.15-0.96-0.15h-1.88v2.44H380.12z"/>
	<path d="M383.84,680.24h0.95v6.94h-0.95V680.24z"/>
	<path d="M386.32,680.24h0.94v6.12h3.48v0.83h-4.42V680.24z"/>
	<path d="M391.7,680.24h0.94v6.12h3.48v0.83h-4.42V680.24z"/>
	<path d="M397.06,680.24h3c0.82,0,1.4,0.24,1.75,0.73c0.2,0.29,0.3,0.62,0.3,0.99c0,0.44-0.12,0.8-0.37,1.08
		c-0.13,0.15-0.32,0.28-0.56,0.41c0.36,0.14,0.62,0.29,0.8,0.46c0.31,0.3,0.47,0.72,0.47,1.25c0,0.45-0.14,0.85-0.42,1.21
		c-0.42,0.54-1.09,0.81-2.01,0.81h-2.95V680.24z M399.71,683.17c0.4,0,0.71-0.05,0.94-0.17c0.35-0.17,0.53-0.49,0.53-0.94
		c0-0.45-0.19-0.76-0.56-0.92c-0.21-0.09-0.52-0.13-0.94-0.13h-1.7v2.15H399.71z M400.03,686.38c0.58,0,1-0.17,1.25-0.5
		c0.16-0.21,0.23-0.47,0.23-0.77c0-0.5-0.23-0.85-0.68-1.03c-0.24-0.1-0.56-0.15-0.96-0.15h-1.88v2.44H400.03z"/>
	<path d="M409.26,681.23c0.46,0.61,0.69,1.4,0.69,2.36c0,1.04-0.26,1.9-0.79,2.58c-0.62,0.81-1.5,1.21-2.64,1.21
		c-1.07,0-1.91-0.35-2.52-1.06c-0.54-0.68-0.82-1.54-0.82-2.58c0-0.94,0.23-1.74,0.7-2.41c0.6-0.86,1.48-1.29,2.66-1.29
		C407.76,680.05,408.67,680.45,409.26,681.23z M408.43,685.66c0.37-0.59,0.56-1.28,0.56-2.05c0-0.82-0.21-1.47-0.64-1.97
		s-1.01-0.75-1.75-0.75c-0.72,0-1.3,0.25-1.76,0.74s-0.68,1.22-0.68,2.18c0,0.77,0.19,1.42,0.58,1.95c0.39,0.53,1.02,0.79,1.89,0.79
		C407.46,686.55,408.06,686.25,408.43,685.66z"/>
	<path d="M413.08,680.24h1.06l2.52,6.94h-1.03l-0.7-2.08h-2.75l-0.75,2.08h-0.96L413.08,680.24z M414.63,684.34l-1.05-3.07
		l-1.12,3.07H414.63z"/>
	<path d="M417.63,680.24h3.16c0.52,0,0.95,0.08,1.29,0.23c0.64,0.3,0.96,0.84,0.96,1.64c0,0.42-0.08,0.76-0.26,1.02
		s-0.41,0.48-0.72,0.64c0.27,0.11,0.47,0.25,0.61,0.43c0.14,0.18,0.21,0.47,0.23,0.87l0.03,0.93c0.01,0.26,0.03,0.46,0.07,0.59
		c0.06,0.22,0.16,0.36,0.3,0.42v0.16h-1.15c-0.03-0.06-0.06-0.14-0.08-0.23c-0.02-0.09-0.03-0.28-0.05-0.55l-0.06-1.16
		c-0.02-0.45-0.19-0.76-0.49-0.91c-0.17-0.08-0.45-0.13-0.82-0.13h-2.08v2.98h-0.94V680.24z M420.69,683.42
		c0.43,0,0.77-0.09,1.02-0.26c0.25-0.18,0.38-0.5,0.38-0.96c0-0.49-0.17-0.83-0.52-1.01c-0.19-0.09-0.44-0.14-0.75-0.14h-2.23v2.37
		H420.69z"/>
	<path d="M424.55,680.24h2.78c0.94,0,1.67,0.34,2.19,1.02c0.46,0.61,0.69,1.39,0.69,2.35c0,0.74-0.14,1.4-0.41,2
		c-0.48,1.05-1.31,1.58-2.49,1.58h-2.77V680.24z M427.14,686.38c0.31,0,0.57-0.03,0.77-0.1c0.36-0.12,0.65-0.36,0.88-0.71
		c0.18-0.28,0.31-0.64,0.39-1.08c0.05-0.26,0.07-0.5,0.07-0.73c0-0.86-0.17-1.53-0.5-2c-0.33-0.48-0.87-0.71-1.61-0.71h-1.63v5.33
		H427.14z"/>
</g>
<path class="st0" d="M372.27,679.49c0-2.19-1.78-3.97-3.97-3.97s-3.97,1.78-3.97,3.97c0,0.49,0.09,0.97,0.26,1.4l0,0.01l3.74,9.67
	l3.55-9.36C372.12,680.69,372.27,680.11,372.27,679.49z"/>
<g>
	<path d="M503.3,680.24h1.1l2,3.34l2-3.34h1.11l-2.63,4.14v2.8h-0.94v-2.8L503.3,680.24z"/>
	<path d="M516.01,681.23c0.46,0.61,0.69,1.4,0.69,2.36c0,1.04-0.26,1.9-0.79,2.58c-0.62,0.81-1.5,1.21-2.64,1.21
		c-1.07,0-1.91-0.35-2.52-1.06c-0.54-0.68-0.82-1.54-0.82-2.58c0-0.94,0.23-1.74,0.7-2.41c0.6-0.86,1.48-1.29,2.66-1.29
		C514.52,680.05,515.42,680.45,516.01,681.23z M515.18,685.66c0.37-0.59,0.56-1.28,0.56-2.05c0-0.82-0.21-1.47-0.64-1.97
		s-1.01-0.75-1.75-0.75c-0.72,0-1.3,0.25-1.76,0.74s-0.68,1.22-0.68,2.18c0,0.77,0.19,1.42,0.58,1.95c0.39,0.53,1.02,0.79,1.89,0.79
		C514.21,686.55,514.81,686.25,515.18,685.66z"/>
	<path d="M518.84,680.24v4.29c0,0.5,0.1,0.92,0.29,1.26c0.28,0.5,0.76,0.76,1.43,0.76c0.8,0,1.35-0.27,1.64-0.82
		c0.16-0.3,0.23-0.69,0.23-1.2v-4.29h0.95v3.9c0,0.85-0.12,1.51-0.35,1.97c-0.42,0.84-1.22,1.26-2.4,1.26
		c-1.18,0-1.97-0.42-2.4-1.26c-0.23-0.46-0.35-1.12-0.35-1.97v-3.9H518.84z"/>
	<path d="M524.93,680.24h3.16c0.52,0,0.95,0.08,1.29,0.23c0.64,0.3,0.96,0.84,0.96,1.64c0,0.42-0.08,0.76-0.26,1.02
		s-0.41,0.48-0.72,0.64c0.27,0.11,0.47,0.25,0.61,0.43c0.14,0.18,0.21,0.47,0.23,0.87l0.03,0.93c0.01,0.26,0.03,0.46,0.07,0.59
		c0.06,0.22,0.16,0.36,0.3,0.42v0.16h-1.15c-0.03-0.06-0.06-0.14-0.08-0.23c-0.02-0.09-0.03-0.28-0.05-0.55l-0.06-1.16
		c-0.02-0.45-0.19-0.76-0.49-0.91c-0.17-0.08-0.45-0.13-0.82-0.13h-2.08v2.98h-0.94V680.24z M527.98,683.42
		c0.43,0,0.77-0.09,1.02-0.26c0.25-0.18,0.38-0.5,0.38-0.96c0-0.49-0.17-0.83-0.52-1.01c-0.19-0.09-0.44-0.14-0.75-0.14h-2.23v2.37
		H527.98z"/>
	<path d="M534.49,680.24h0.94v6.12h3.48v0.83h-4.42V680.24z"/>
	<path d="M545.59,681.23c0.46,0.61,0.69,1.4,0.69,2.36c0,1.04-0.26,1.9-0.79,2.58c-0.62,0.81-1.5,1.21-2.64,1.21
		c-1.07,0-1.91-0.35-2.52-1.06c-0.54-0.68-0.82-1.54-0.82-2.58c0-0.94,0.23-1.74,0.7-2.41c0.6-0.86,1.48-1.29,2.66-1.29
		C544.1,680.05,545,680.45,545.59,681.23z M544.76,685.66c0.37-0.59,0.56-1.28,0.56-2.05c0-0.82-0.21-1.47-0.64-1.97
		s-1.01-0.75-1.75-0.75c-0.72,0-1.3,0.25-1.76,0.74s-0.68,1.22-0.68,2.18c0,0.77,0.19,1.42,0.58,1.95c0.39,0.53,1.02,0.79,1.89,0.79
		C543.79,686.55,544.39,686.25,544.76,685.66z"/>
	<path d="M552.31,680.75c0.48,0.46,0.75,0.99,0.8,1.58h-0.92c-0.1-0.45-0.31-0.8-0.61-1.06c-0.3-0.26-0.73-0.39-1.28-0.39
		c-0.67,0-1.21,0.24-1.63,0.72c-0.41,0.48-0.62,1.22-0.62,2.21c0,0.81,0.19,1.47,0.56,1.98c0.37,0.51,0.93,0.76,1.67,0.76
		c0.68,0,1.2-0.27,1.55-0.8c0.19-0.28,0.33-0.65,0.42-1.11h0.92c-0.08,0.73-0.35,1.34-0.8,1.84c-0.54,0.6-1.28,0.89-2.21,0.89
		c-0.8,0-1.47-0.24-2.01-0.73c-0.71-0.65-1.07-1.64-1.07-2.99c0-1.02,0.27-1.87,0.8-2.52c0.58-0.71,1.38-1.07,2.4-1.07
		C551.16,680.05,551.83,680.28,552.31,680.75z"/>
	<path d="M556.41,680.24h1.06l2.52,6.94h-1.03l-0.7-2.08h-2.75l-0.75,2.08h-0.96L556.41,680.24z M557.96,684.34l-1.05-3.07
		l-1.12,3.07H557.96z"/>
	<path d="M565.89,680.24v0.83h-2.34v6.12h-0.95v-6.12h-2.34v-0.83H565.89z"/>
	<path d="M566.97,680.24h0.95v6.94h-0.95V680.24z"/>
	<path d="M575.17,681.23c0.46,0.61,0.69,1.4,0.69,2.36c0,1.04-0.26,1.9-0.79,2.58c-0.62,0.81-1.5,1.21-2.64,1.21
		c-1.07,0-1.91-0.35-2.52-1.06c-0.54-0.68-0.82-1.54-0.82-2.58c0-0.94,0.23-1.74,0.7-2.41c0.6-0.86,1.48-1.29,2.66-1.29
		C573.67,680.05,574.58,680.45,575.17,681.23z M574.34,685.66c0.37-0.59,0.56-1.28,0.56-2.05c0-0.82-0.21-1.47-0.64-1.97
		s-1.01-0.75-1.75-0.75c-0.72,0-1.3,0.25-1.76,0.74s-0.68,1.22-0.68,2.18c0,0.77,0.19,1.42,0.58,1.95c0.39,0.53,1.02,0.79,1.89,0.79
		C573.37,686.55,573.97,686.25,574.34,685.66z"/>
	<path d="M576.98,680.24h1.11l3.46,5.61v-5.61h0.9v6.94h-1.06l-3.51-5.6v5.6h-0.9V680.24z"/>
</g>
<path d="M498.93,679.49c0-2.19-1.78-3.97-3.97-3.97s-3.97,1.78-3.97,3.97c0,0.49,0.09,0.97,0.26,1.4l0,0.01l3.74,9.67l3.55-9.36
	C498.79,680.69,498.93,680.11,498.93,679.49z"/>
<path class="st1" d="M294.27,109.28c-121.39,9.46-193.87,7.33-237.76,2.5v26.38c0,7.16,5.8,12.96,12.96,12.96h473.95
	c7.16,0,12.96-5.8,12.96-12.96v-31.3C510.81,101.52,430.8,98.64,294.27,109.28z"/>
<g>
	<path class="st1" d="M259.66,25.81c0.29-1.54,0.77-2.79,1.44-3.76c0.67-0.97,1.55-1.68,2.65-2.13c1.1-0.45,2.44-0.67,4.03-0.67
		c1.59,0,2.93,0.22,4.03,0.67c1.1,0.45,1.98,1.16,2.65,2.13c0.67,0.97,1.15,2.23,1.44,3.76s0.44,3.4,0.44,5.58
		c0,2.18-0.15,4.04-0.44,5.58s-0.77,2.79-1.44,3.76c-0.67,0.97-1.56,1.66-2.65,2.08c-1.1,0.41-2.44,0.62-4.03,0.62
		c-1.59,0-2.93-0.21-4.03-0.62s-1.98-1.11-2.65-2.08c-0.67-0.97-1.15-2.23-1.44-3.76c-0.29-1.54-0.44-3.4-0.44-5.58
		C259.22,29.2,259.36,27.34,259.66,25.81z M265.73,35.3c0.04,1.04,0.14,1.86,0.28,2.47c0.15,0.61,0.36,1.04,0.64,1.28
		c0.28,0.24,0.65,0.36,1.12,0.36s0.84-0.12,1.12-0.36c0.28-0.24,0.49-0.67,0.64-1.28c0.15-0.61,0.24-1.43,0.28-2.47
		c0.04-1.04,0.07-2.34,0.07-3.91s-0.02-2.87-0.07-3.91c-0.05-1.04-0.14-1.86-0.28-2.47c-0.15-0.61-0.36-1.04-0.64-1.28
		c-0.28-0.24-0.65-0.36-1.12-0.36s-0.84,0.12-1.12,0.36c-0.28,0.24-0.49,0.67-0.64,1.28c-0.15,0.61-0.24,1.43-0.28,2.47
		c-0.05,1.04-0.07,2.34-0.07,3.91S265.68,34.26,265.73,35.3z"/>
	<path class="st1" d="M284.55,36.56c0,1.13,0.17,1.89,0.5,2.27s0.79,0.57,1.38,0.57s1.04-0.19,1.38-0.57s0.5-1.14,0.5-2.27V19.7
		h6.24v15.32c0,1.64-0.18,3-0.54,4.09c-0.36,1.09-0.88,1.96-1.56,2.62c-0.68,0.65-1.53,1.1-2.53,1.34
		c-1.01,0.24-2.17,0.36-3.49,0.36c-1.3,0-2.46-0.12-3.47-0.36s-1.87-0.69-2.55-1.34c-0.68-0.65-1.2-1.53-1.56-2.62
		c-0.36-1.09-0.54-2.45-0.54-4.09V19.7h6.24V36.56z"/>
	<path class="st1" d="M295.76,24.87V19.7h15.57v5.17h-4.7v18.2h-6.24v-18.2H295.76z"/>
	<path class="st1" d="M321.79,19.7c1.81,0,3.22,0.32,4.23,0.97c1.01,0.64,1.76,1.51,2.26,2.59c0.5,1.08,0.81,2.32,0.92,3.73
		c0.11,1.41,0.17,2.87,0.17,4.4c0,1.53-0.06,2.99-0.17,4.4c-0.11,1.41-0.42,2.65-0.92,3.73c-0.5,1.08-1.26,1.94-2.26,2.59
		c-1.01,0.64-2.42,0.97-4.23,0.97h-9.06V19.7H321.79z M320.22,38.68c0.6,0,1.09-0.08,1.44-0.25c0.36-0.16,0.63-0.51,0.82-1.03
		c0.19-0.52,0.31-1.27,0.37-2.23s0.08-2.23,0.08-3.8s-0.03-2.84-0.08-3.8s-0.18-1.7-0.37-2.23c-0.19-0.52-0.46-0.87-0.82-1.03
		c-0.36-0.16-0.84-0.25-1.44-0.25h-1.24v14.6H320.22z"/>
	<path class="st1" d="M331.72,25.81c0.29-1.54,0.77-2.79,1.44-3.76c0.67-0.97,1.55-1.68,2.65-2.13c1.1-0.45,2.44-0.67,4.03-0.67
		c1.59,0,2.93,0.22,4.03,0.67c1.1,0.45,1.98,1.16,2.65,2.13c0.67,0.97,1.15,2.23,1.44,3.76c0.29,1.54,0.44,3.4,0.44,5.58
		c0,2.18-0.15,4.04-0.44,5.58c-0.29,1.54-0.77,2.79-1.44,3.76c-0.67,0.97-1.55,1.66-2.65,2.08c-1.1,0.41-2.44,0.62-4.03,0.62
		c-1.59,0-2.93-0.21-4.03-0.62c-1.1-0.41-1.98-1.11-2.65-2.08c-0.67-0.97-1.15-2.23-1.44-3.76c-0.29-1.54-0.44-3.4-0.44-5.58
		C331.29,29.2,331.43,27.34,331.72,25.81z M337.8,35.3c0.04,1.04,0.14,1.86,0.29,2.47c0.15,0.61,0.36,1.04,0.64,1.28
		c0.28,0.24,0.65,0.36,1.12,0.36c0.47,0,0.84-0.12,1.12-0.36c0.28-0.24,0.49-0.67,0.64-1.28c0.15-0.61,0.24-1.43,0.29-2.47
		c0.05-1.04,0.07-2.34,0.07-3.91s-0.02-2.87-0.07-3.91c-0.05-1.04-0.14-1.86-0.29-2.47c-0.15-0.61-0.36-1.04-0.64-1.28
		c-0.28-0.24-0.65-0.36-1.12-0.36c-0.47,0-0.84,0.12-1.12,0.36c-0.28,0.24-0.49,0.67-0.64,1.28c-0.15,0.61-0.24,1.43-0.29,2.47
		c-0.05,1.04-0.07,2.34-0.07,3.91S337.75,34.26,337.8,35.3z"/>
	<path class="st1" d="M350.38,25.81c0.29-1.54,0.77-2.79,1.44-3.76c0.67-0.97,1.55-1.68,2.65-2.13c1.1-0.45,2.44-0.67,4.03-0.67
		c1.59,0,2.93,0.22,4.03,0.67c1.1,0.45,1.98,1.16,2.65,2.13c0.67,0.97,1.15,2.23,1.44,3.76c0.29,1.54,0.44,3.4,0.44,5.58
		c0,2.18-0.15,4.04-0.44,5.58c-0.29,1.54-0.77,2.79-1.44,3.76c-0.67,0.97-1.55,1.66-2.65,2.08c-1.1,0.41-2.44,0.62-4.03,0.62
		c-1.59,0-2.93-0.21-4.03-0.62c-1.1-0.41-1.98-1.11-2.65-2.08c-0.67-0.97-1.15-2.23-1.44-3.76c-0.29-1.54-0.44-3.4-0.44-5.58
		C349.94,29.2,350.09,27.34,350.38,25.81z M356.45,35.3c0.04,1.04,0.14,1.86,0.29,2.47c0.15,0.61,0.36,1.04,0.64,1.28
		c0.28,0.24,0.65,0.36,1.12,0.36c0.47,0,0.84-0.12,1.12-0.36c0.28-0.24,0.49-0.67,0.64-1.28c0.15-0.61,0.24-1.43,0.29-2.47
		c0.05-1.04,0.07-2.34,0.07-3.91s-0.02-2.87-0.07-3.91c-0.05-1.04-0.14-1.86-0.29-2.47c-0.15-0.61-0.36-1.04-0.64-1.28
		c-0.28-0.24-0.65-0.36-1.12-0.36c-0.47,0-0.84,0.12-1.12,0.36c-0.28,0.24-0.49,0.67-0.64,1.28c-0.15,0.61-0.24,1.43-0.29,2.47
		c-0.05,1.04-0.07,2.34-0.07,3.91S356.41,34.26,356.45,35.3z"/>
	<path class="st1" d="M379.07,19.7c1.19,0,2.2,0.15,3.04,0.46c0.84,0.31,1.52,0.74,2.05,1.29c0.53,0.56,0.91,1.22,1.14,1.98
		c0.24,0.76,0.35,1.59,0.35,2.49c0,1.57-0.32,2.84-0.97,3.8c-0.65,0.96-1.69,1.55-3.12,1.77v0.07c1.5,0.13,2.53,0.64,3.09,1.54
		c0.56,0.9,0.84,2.13,0.84,3.7v2c0,0.31,0,0.62,0,0.95s0.01,0.64,0.03,0.93c0.02,0.29,0.06,0.56,0.1,0.8
		c0.04,0.24,0.1,0.43,0.17,0.56c0.09,0.13,0.18,0.26,0.27,0.38c0.09,0.12,0.24,0.23,0.44,0.34v0.33h-6.64
		c-0.16-0.31-0.27-0.67-0.35-1.08c-0.08-0.41-0.13-0.83-0.17-1.24c-0.03-0.41-0.06-0.81-0.07-1.19c-0.01-0.38-0.02-0.69-0.02-0.93
		v-1.57c0-0.65-0.03-1.2-0.1-1.64c-0.07-0.44-0.18-0.78-0.35-1.03c-0.17-0.25-0.38-0.43-0.64-0.52c-0.26-0.1-0.58-0.15-0.96-0.15
		h-1.64v9.36h-6.24V19.7H379.07z M376.79,29.59c0.9,0,1.55-0.26,1.98-0.77c0.42-0.51,0.64-1.18,0.64-2.01
		c0-0.98-0.21-1.68-0.62-2.09s-1.09-0.62-2.03-0.62h-1.21v5.5H376.79z"/>
	<path class="st1" d="M409.06,19.7l5.84,23.37h-6.64l-0.64-4.09h-4.97l-0.64,4.09h-6.54l5.74-23.37H409.06z M405.1,24.48l-1.71,9.92
		h3.49l-1.71-9.92H405.1z"/>
	<path class="st1" d="M425,19.7c1.81,0,3.22,0.32,4.23,0.97c1.01,0.64,1.76,1.51,2.26,2.59c0.5,1.08,0.81,2.32,0.92,3.73
		c0.11,1.41,0.17,2.87,0.17,4.4c0,1.53-0.06,2.99-0.17,4.4c-0.11,1.41-0.42,2.65-0.92,3.73c-0.5,1.08-1.26,1.94-2.26,2.59
		c-1.01,0.64-2.42,0.97-4.23,0.97h-9.06V19.7H425z M423.42,38.68c0.6,0,1.09-0.08,1.44-0.25c0.36-0.16,0.63-0.51,0.82-1.03
		c0.19-0.52,0.31-1.27,0.37-2.23s0.08-2.23,0.08-3.8s-0.03-2.84-0.08-3.8s-0.18-1.7-0.37-2.23c-0.19-0.52-0.46-0.87-0.82-1.03
		c-0.36-0.16-0.84-0.25-1.44-0.25h-1.24v14.6H423.42z"/>
	<path class="st1" d="M439.9,19.7l2.52,17.61h0.07L445,19.7h6.64l-5.17,23.37h-8.05l-5.07-23.37H439.9z"/>
	<path class="st1" d="M466.84,19.7v4.97h-7.95v3.99h7.45v4.78h-7.45v4.65h8.25v4.97h-14.49V19.7H466.84z"/>
	<path class="st1" d="M479.19,19.7c1.19,0,2.2,0.15,3.04,0.46c0.84,0.31,1.52,0.74,2.05,1.29c0.53,0.56,0.91,1.22,1.14,1.98
		c0.24,0.76,0.35,1.59,0.35,2.49c0,1.57-0.32,2.84-0.97,3.8c-0.65,0.96-1.69,1.55-3.12,1.77v0.07c1.5,0.13,2.53,0.64,3.09,1.54
		c0.56,0.9,0.84,2.13,0.84,3.7v2c0,0.31,0,0.62,0,0.95s0.01,0.64,0.03,0.93s0.06,0.56,0.1,0.8c0.04,0.24,0.1,0.43,0.17,0.56
		c0.09,0.13,0.18,0.26,0.27,0.38c0.09,0.12,0.24,0.23,0.44,0.34v0.33h-6.64c-0.16-0.31-0.27-0.67-0.35-1.08
		c-0.08-0.41-0.13-0.83-0.17-1.24c-0.03-0.41-0.06-0.81-0.07-1.19c-0.01-0.38-0.02-0.69-0.02-0.93v-1.57c0-0.65-0.03-1.2-0.1-1.64
		c-0.07-0.44-0.18-0.78-0.35-1.03c-0.17-0.25-0.38-0.43-0.64-0.52c-0.26-0.1-0.58-0.15-0.96-0.15h-1.64v9.36h-6.24V19.7H479.19z
		 M476.91,29.59c0.9,0,1.55-0.26,1.98-0.77c0.42-0.51,0.64-1.18,0.64-2.01c0-0.98-0.21-1.68-0.62-2.09
		c-0.41-0.41-1.09-0.62-2.03-0.62h-1.21v5.5H476.91z"/>
	<path class="st1" d="M487.21,24.87V19.7h15.57v5.17h-4.7v18.2h-6.24v-18.2H487.21z"/>
	<path class="st1" d="M510.19,19.7v23.37h-6.24V19.7H510.19z"/>
	<path class="st1" d="M522.23,25.89c0-0.7-0.15-1.29-0.44-1.78c-0.29-0.49-0.74-0.74-1.34-0.74c-0.67,0-1.16,0.21-1.48,0.64
		c-0.31,0.43-0.47,0.9-0.47,1.42c0,0.76,0.25,1.37,0.75,1.82c0.5,0.45,1.13,0.83,1.9,1.16c0.76,0.33,1.58,0.66,2.45,1
		c0.87,0.34,1.69,0.78,2.45,1.33c0.76,0.55,1.39,1.26,1.9,2.14c0.5,0.88,0.75,2.03,0.75,3.45c0,2.49-0.73,4.29-2.18,5.42
		c-1.45,1.12-3.56,1.69-6.31,1.69c-1.3,0-2.44-0.1-3.44-0.31c-1-0.21-1.83-0.57-2.52-1.08c-0.68-0.51-1.2-1.18-1.56-2.01
		c-0.36-0.83-0.54-1.85-0.54-3.08v-0.82h6.04v0.56c0,1,0.19,1.71,0.57,2.11c0.38,0.4,0.87,0.61,1.48,0.61
		c0.65,0,1.15-0.22,1.49-0.65c0.35-0.44,0.52-0.97,0.52-1.6c0-0.76-0.24-1.37-0.72-1.82c-0.48-0.45-1.09-0.83-1.81-1.15
		c-0.73-0.32-1.52-0.64-2.37-0.97c-0.85-0.33-1.64-0.75-2.36-1.28c-0.73-0.52-1.33-1.21-1.81-2.06c-0.48-0.85-0.72-1.96-0.72-3.34
		c0-2.38,0.65-4.19,1.95-5.43c1.3-1.24,3.27-1.87,5.91-1.87c2.73,0,4.7,0.57,5.92,1.72c1.22,1.15,1.83,2.97,1.83,5.48h-5.84V25.89z"
		/>
	<path class="st1" d="M536.93,19.7v23.37h-6.24V19.7H536.93z"/>
	<path class="st1" d="M546.63,19.7l4.03,14.4h0.07V19.7h5.84v23.37h-6.84l-4.16-14.43h-0.07v14.43h-5.84V19.7H546.63z"/>
	<path class="st1" d="M575.61,30.37v12.7h-4.23l-0.13-2.06h-0.07c-0.2,0.5-0.49,0.92-0.86,1.24c-0.37,0.33-0.78,0.57-1.24,0.74
		c-0.46,0.16-0.95,0.28-1.48,0.34s-1.06,0.1-1.59,0.1c-1.59,0-2.84-0.26-3.76-0.77c-0.92-0.51-1.61-1.28-2.08-2.31
		c-0.47-1.03-0.77-2.29-0.89-3.8c-0.12-1.51-0.19-3.23-0.19-5.17c0-1.96,0.12-3.7,0.35-5.2c0.24-1.51,0.68-2.77,1.34-3.8
		c0.66-1.03,1.57-1.81,2.73-2.34c1.16-0.53,2.66-0.8,4.5-0.8c1.1,0,2.11,0.14,3.04,0.43c0.93,0.28,1.73,0.74,2.4,1.37
		c0.67,0.63,1.2,1.45,1.58,2.44c0.38,0.99,0.57,2.2,0.57,3.62h-6.04c0-1.24-0.11-2.15-0.34-2.72c-0.22-0.68-0.7-1.01-1.44-1.01
		c-0.51,0-0.92,0.12-1.22,0.36c-0.3,0.24-0.53,0.67-0.67,1.28c-0.15,0.61-0.24,1.43-0.29,2.47c-0.05,1.04-0.07,2.34-0.07,3.91
		s0.02,2.88,0.07,3.91c0.05,1.04,0.14,1.86,0.29,2.47c0.15,0.61,0.36,1.04,0.64,1.28c0.28,0.24,0.65,0.36,1.12,0.36
		c0.34,0,0.63-0.07,0.89-0.2c0.26-0.13,0.47-0.38,0.65-0.74c0.18-0.36,0.32-0.86,0.42-1.51c0.1-0.64,0.15-1.47,0.15-2.47h-2.21
		v-4.12H575.61z"/>
</g>
<g>
	<path class="st1" d="M332.01,80.27c1.04-3.24,1.68-5.25,1.93-6.01c0.04-0.03,0.12-0.23,0.24-0.58c0.13-0.35,0.22-0.61,0.29-0.78
		c0.07-0.17,0.13-0.43,0.19-0.76c0.05-0.33,0.03-0.51-0.08-0.55c-0.11-0.21-0.45-0.39-1.02-0.55c-0.57-0.16-1.01-0.37-1.31-0.63
		c-0.3-0.26-0.29-0.67,0.03-1.23c0.18-0.38,0.47-0.64,0.89-0.78c0.41-0.14,0.81-0.21,1.21-0.21c0.39,0,0.79-0.11,1.18-0.34
		c0.39-0.23,0.68-0.58,0.86-1.07c0.11-0.24,0.23-0.63,0.38-1.15c0.14-0.52,0.23-0.82,0.27-0.89c0.25-0.8,0.41-1.49,0.48-2.07
		c0.07-0.58-0.01-1.18-0.24-1.83c-0.23-0.64-0.71-1.16-1.42-1.54c-0.89-0.49-2.11-0.75-3.65-0.78h-0.21c-0.79,0-2.02,0.16-3.7,0.47
		c-1.5,0.24-2.34-0.12-2.52-1.1c-0.07-0.28-0.06-0.53,0.03-0.76c0.09-0.23,0.28-0.43,0.56-0.6c0.29-0.17,0.51-0.3,0.67-0.39
		c0.16-0.09,0.46-0.2,0.91-0.34c0.45-0.14,0.69-0.23,0.72-0.26c5.36-2.02,9.33-3.4,11.9-4.13c0.43-0.14,0.71-0.29,0.86-0.44
		c0.14-0.16,0.24-0.39,0.29-0.71c0.05-0.31,0.13-0.58,0.24-0.78c0.25-0.42,0.6-0.66,1.05-0.73c0.45-0.07,0.87,0.07,1.26,0.42
		c0.07,0.07,0.18,0.17,0.32,0.31c0.14,0.14,0.23,0.23,0.27,0.26c0.04,0.04,0.12,0.08,0.24,0.13s0.23,0.08,0.32,0.08
		c0.09,0,0.21-0.01,0.35-0.03c0.14-0.02,0.32-0.04,0.54-0.08c1.11-0.28,2.18-0.52,3.22-0.73c1.04-0.21,2.3-0.41,3.78-0.6
		c1.48-0.19,2.84-0.24,4.07-0.13c1.23,0.1,2.43,0.32,3.59,0.65c1.16,0.33,2.13,0.92,2.89,1.75c0.77,0.84,1.26,1.88,1.47,3.14
		l0.05,0.16c0.18,1.33-0.02,2.6-0.59,3.82c-0.57,1.22-1.32,2.25-2.25,3.08c-0.93,0.84-2.11,1.66-3.54,2.46
		c-1.43,0.8-2.68,1.43-3.75,1.88c-1.07,0.45-2.29,0.91-3.65,1.36c-3.29,1.12-7.17,2.18-11.63,3.19c-0.36,0.1-0.65,0.21-0.88,0.31
		c-0.23,0.1-0.41,0.18-0.54,0.24c-0.13,0.05-0.25,0.19-0.37,0.42c-0.13,0.23-0.21,0.38-0.24,0.44c-0.04,0.07-0.11,0.31-0.22,0.71
		c-0.11,0.4-0.18,0.65-0.21,0.76c-0.36,1.29-0.94,3.15-1.74,5.57c-0.8,2.42-1.38,4.19-1.74,5.31c-0.39,1.43-1.05,2.07-1.98,1.93
		c-1.11-0.21-1.43-1.06-0.97-2.56c0.11-0.35,0.27-0.83,0.48-1.44C331.8,80.94,331.94,80.51,332.01,80.27z M337.21,56.42
		c0.5,0.24,0.88,0.44,1.13,0.58c0.36,0.24,0.66,0.42,0.91,0.52c0.21-0.28,0.44-0.76,0.67-1.44c0.23-0.68,0.26-1.11,0.08-1.28
		c-0.29-0.21-1.3,0.04-3.06,0.73c-0.32,0.14-0.52,0.24-0.59,0.31c-0.07,0.07-0.07,0.13,0,0.18s0.23,0.13,0.48,0.24
		C336.98,56.34,337.1,56.39,337.21,56.42z M341.29,61.34c-1.14,3.45-1.7,5.23-1.66,5.33c0,0.1,0.05,0.17,0.16,0.21
		c0.11,0.04,0.24,0.04,0.4,0.03c0.16-0.02,0.31-0.04,0.46-0.08c0.14-0.03,0.3-0.08,0.48-0.13c0.18-0.05,0.29-0.1,0.32-0.13
		c4.75-1.22,8.1-2.16,10.02-2.82c7.83-2.79,11.49-5.86,10.99-9.2c-0.57-3.69-6.16-4.25-16.78-1.67c-0.39,0.1-0.72,0.22-0.99,0.34
		c-0.27,0.12-0.48,0.23-0.64,0.31c-0.16,0.09-0.3,0.24-0.4,0.47c-0.11,0.23-0.19,0.4-0.24,0.52c-0.05,0.12-0.13,0.38-0.24,0.76
		c-0.11,0.38-0.2,0.7-0.27,0.94C342.89,56.28,342.36,57.99,341.29,61.34z"/>
	<path class="st1" d="M365.25,72.79c1.36-4.22,2.25-6.94,2.68-8.16c0.14-0.42,0.29-0.75,0.43-0.99c0.14-0.24,0.37-0.45,0.67-0.63
		c0.3-0.17,0.67-0.19,1.1-0.05c0.36,0.14,0.62,0.28,0.8,0.42c0.18,0.14,0.27,0.32,0.27,0.55c0,0.23-0.01,0.4-0.03,0.52
		c-0.02,0.12-0.1,0.36-0.24,0.71c-0.14,0.35-0.23,0.56-0.27,0.63c-0.64,1.81-0.91,2.75-0.8,2.82c0.07,0.04,0.16,0.02,0.27-0.05
		c0.11-0.07,0.24-0.18,0.4-0.34s0.3-0.3,0.43-0.44c0.13-0.14,0.26-0.29,0.4-0.44c0.14-0.16,0.23-0.24,0.27-0.24
		c1-1.05,2.09-1.92,3.27-2.61c0.71-0.45,1.44-0.82,2.17-1.1c0.73-0.28,1.56-0.47,2.47-0.58s1.69,0.04,2.33,0.42
		c0.71,0.38,1.13,0.92,1.23,1.62c0.11,0.7,0.02,1.38-0.27,2.04c-0.29,0.66-0.6,1.4-0.94,2.2c-0.34,0.8-0.53,1.39-0.56,1.78
		c0,1.12,1.5,0.31,4.5-2.41c0.18-0.14,0.3-0.26,0.38-0.37c0.68-0.59,1.2-1.08,1.55-1.46c0.71-0.8,1.3-1.24,1.77-1.31
		c0.61-0.03,1.06,0.22,1.37,0.76c0.3,0.54,0.28,1.07-0.08,1.59c-0.86,1.15-1.84,2.22-2.95,3.22c-1.11,0.99-2.43,1.8-3.97,2.43
		c-1.54,0.63-2.95,0.75-4.23,0.37c-0.29-0.1-0.54-0.24-0.75-0.39s-0.38-0.3-0.51-0.44c-0.12-0.14-0.21-0.33-0.27-0.58
		c-0.05-0.24-0.1-0.44-0.13-0.6c-0.04-0.16-0.03-0.37,0.03-0.65c0.05-0.28,0.1-0.5,0.13-0.65c0.04-0.16,0.12-0.39,0.24-0.71
		c0.13-0.31,0.22-0.53,0.27-0.65c0.05-0.12,0.16-0.35,0.32-0.68c0.16-0.33,0.24-0.53,0.24-0.6c0.43-0.73,0.56-1.27,0.4-1.62
		c-0.16-0.35-0.74-0.37-1.74-0.05c-0.61,0.17-1.21,0.4-1.8,0.68c-0.59,0.28-1.15,0.65-1.69,1.1c-0.54,0.45-1.01,0.85-1.42,1.2
		c-0.41,0.35-0.86,0.85-1.34,1.52c-0.48,0.66-0.86,1.17-1.13,1.52c-0.27,0.35-0.63,0.92-1.1,1.73c-0.47,0.8-0.78,1.35-0.94,1.65
		c-0.16,0.3-0.48,0.89-0.97,1.78c-0.48,0.89-0.76,1.44-0.83,1.65c-0.04,0.04-0.1,0.13-0.19,0.29c-0.09,0.16-0.15,0.27-0.19,0.34
		c-0.04,0.07-0.1,0.17-0.19,0.31c-0.09,0.14-0.16,0.24-0.21,0.31c-0.05,0.07-0.13,0.16-0.22,0.26s-0.19,0.17-0.29,0.21
		c-0.11,0.04-0.21,0.08-0.32,0.13c-0.11,0.05-0.22,0.07-0.35,0.05c-0.13-0.02-0.28-0.04-0.46-0.08c-0.89-0.28-1.2-0.94-0.91-1.99
		c0.21-0.77,0.56-1.86,1.05-3.29C364.9,73.98,365.18,73.1,365.25,72.79z"/>
	<path class="st1" d="M408.89,65.73c0.54,0.1,0.9,0.42,1.1,0.94c0.2,0.52,0.13,0.99-0.19,1.41h-0.21v0.21
		c-1.47,1.25-4.13,1.88-7.99,1.88c-0.54,0-0.89,0.1-1.07,0.31c-0.18,0.21-0.27,0.59-0.27,1.15c-0.43,1.95-1.14,3.5-2.14,4.65
		c-0.86,1.25-2,2.23-3.43,2.93l-0.43,0.21c-0.93,0.45-2.02,0.8-3.27,1.05c-1.25,0.24-2.39,0.31-3.43,0.21
		c-0.86-0.03-1.54-0.32-2.04-0.86c-0.5-0.54-0.8-1.23-0.88-2.06c-0.09-0.84-0.11-1.64-0.05-2.41c0.05-0.77,0.17-1.52,0.35-2.25
		c0.29-0.94,0.67-1.92,1.15-2.93c0.48-1.01,1.08-2.05,1.8-3.11c0.71-1.06,1.5-1.94,2.36-2.64c0.86-0.7,1.81-1.19,2.87-1.49
		c1.05-0.3,2.15-0.2,3.3,0.29c1,0.42,1.76,0.95,2.28,1.59c0.52,0.65,0.87,1.19,1.05,1.65c0.18,0.45,0.36,0.71,0.54,0.78
		c1.25,0.35,2.42,0.38,3.51,0.1c1.09-0.28,2.17-0.63,3.24-1.05C408.08,65.89,408.71,65.7,408.89,65.73z M389.05,77.34
		c0.57-0.45,1.13-1.05,1.66-1.78c0.54-0.73,1.11-1.59,1.72-2.59c0.61-0.99,1.05-1.72,1.34-2.17c0.14-0.21,0.3-0.4,0.46-0.58
		c0.16-0.17,0.29-0.32,0.38-0.44c0.09-0.12,0.24-0.27,0.46-0.44c0.22-0.17,0.36-0.3,0.43-0.37c0.07-0.07,0.25-0.22,0.54-0.44
		c0.29-0.23,0.48-0.37,0.59-0.44c0.29-0.24,0.42-0.42,0.4-0.52c-0.02-0.1-0.15-0.28-0.4-0.52c-0.68-0.84-1.45-1.25-2.3-1.25
		c-0.86,0-1.68,0.35-2.47,1.05c-1.11,1.05-2.1,2.56-2.98,4.55c-0.88,1.99-1.31,3.76-1.31,5.33c0,0.63,0.12,0.99,0.35,1.1
		C388.13,77.91,388.51,77.76,389.05,77.34z M394.25,76.08c0.93-0.45,1.8-1.52,2.63-3.19c0.43-0.91,0.5-1.32,0.21-1.25
		c-0.18,0.07-0.55,0.49-1.13,1.25c-0.36,0.35-0.88,1.13-1.55,2.35C394.09,75.87,394.04,76.15,394.25,76.08z"/>
	<path class="st1" d="M403.1,82.78c0.18-0.56,0.9-2.75,2.17-6.59c1.27-3.83,2.21-6.76,2.81-8.78c0.04-0.1,0.14-0.46,0.32-1.07
		c0.18-0.61,0.32-1.09,0.43-1.44c0.11-0.35,0.29-0.73,0.54-1.15c0.25-0.42,0.52-0.68,0.8-0.78c0.57-0.24,1.05-0.17,1.42,0.21
		c0.38,0.38,0.54,0.85,0.51,1.41v0.16c-0.07,0.35-0.4,1.32-0.99,2.9c-0.59,1.59-0.85,2.5-0.78,2.75c0.07,0.24,0.68-0.33,1.82-1.73
		c1.32-1.46,2.88-2.64,4.66-3.53c1.79-0.89,3.52-1.14,5.2-0.76c1.32,0.31,2.14,1.02,2.47,2.12c0.32,1.1,0.18,2.21-0.43,3.32
		c-0.32,0.73-0.84,1.55-1.55,2.46c-0.64,0.77-1.55,1.71-2.73,2.82c-1.11,1.01-0.79,1.1,0.97,0.26c0.11-0.03,0.27-0.1,0.48-0.21
		c0.14-0.1,0.23-0.16,0.27-0.16c2.29-1.12,4.23-2.16,5.82-3.14c1.59-0.98,3.17-2.18,4.74-3.61c0.32-0.31,0.58-0.55,0.78-0.71
		c0.2-0.16,0.47-0.33,0.83-0.52c0.36-0.19,0.69-0.26,0.99-0.21c0.3,0.05,0.58,0.24,0.83,0.55c0.11,0.17,0.19,0.34,0.24,0.5
		c0.05,0.16,0.06,0.31,0.03,0.47c-0.04,0.16-0.09,0.31-0.16,0.47c-0.07,0.16-0.18,0.32-0.32,0.5c-0.14,0.17-0.27,0.33-0.37,0.47
		c-0.11,0.14-0.26,0.3-0.46,0.47c-0.2,0.17-0.35,0.31-0.46,0.39c-0.11,0.09-0.26,0.21-0.46,0.37c-0.2,0.16-0.31,0.25-0.35,0.29
		c-3.29,2.68-6.67,4.78-10.16,6.27c-3.48,1.5-7.48,2.7-11.98,3.61c-0.18,0-0.55,0.04-1.1,0.13c-0.55,0.09-0.99,0.16-1.31,0.21
		c-0.32,0.05-0.69,0.17-1.1,0.34c-0.41,0.17-0.71,0.38-0.89,0.63c-0.21,0.24-0.43,0.61-0.64,1.1c-0.21,0.49-0.39,0.94-0.54,1.36
		c-0.14,0.42-0.29,0.93-0.46,1.54c-0.16,0.61-0.28,1.02-0.35,1.23c-0.82,2.61-1.45,4.6-1.88,5.96c-0.54,1.64-1.3,2.28-2.3,1.93
		c-0.25-0.07-0.45-0.18-0.59-0.34c-0.14-0.16-0.23-0.36-0.27-0.6c-0.04-0.24-0.05-0.47-0.05-0.68c0-0.21,0.05-0.47,0.13-0.78
		c0.09-0.31,0.16-0.57,0.21-0.76c0.05-0.19,0.14-0.44,0.27-0.73c0.13-0.3,0.21-0.5,0.24-0.6C400.63,90.5,401.52,87.73,403.1,82.78z
		 M410.33,77.81c4.61-2.13,8.09-4.88,10.45-8.26c1.14-1.67,1-2.47-0.43-2.41c-0.97,0.04-2,0.37-3.11,0.99
		c-2.47,1.4-5.09,4.44-7.88,9.15c-0.32,0.56-0.37,0.85-0.13,0.89C409.47,78.21,409.83,78.09,410.33,77.81z"/>
	<path class="st1" d="M454.66,65.73c0.54,0.1,0.9,0.42,1.1,0.94c0.2,0.52,0.13,0.99-0.19,1.41h-0.21v0.21
		c-1.47,1.25-4.13,1.88-7.99,1.88c-0.54,0-0.89,0.1-1.07,0.31c-0.18,0.21-0.27,0.59-0.27,1.15c-0.43,1.95-1.14,3.5-2.14,4.65
		c-0.86,1.25-2,2.23-3.43,2.93l-0.43,0.21c-0.93,0.45-2.02,0.8-3.27,1.05c-1.25,0.24-2.39,0.31-3.43,0.21
		c-0.86-0.03-1.54-0.32-2.04-0.86c-0.5-0.54-0.8-1.23-0.88-2.06c-0.09-0.84-0.11-1.64-0.05-2.41c0.05-0.77,0.17-1.52,0.35-2.25
		c0.29-0.94,0.67-1.92,1.15-2.93c0.48-1.01,1.08-2.05,1.8-3.11c0.71-1.06,1.5-1.94,2.36-2.64c0.86-0.7,1.81-1.19,2.87-1.49
		c1.05-0.3,2.15-0.2,3.3,0.29c1,0.42,1.76,0.95,2.28,1.59c0.52,0.65,0.87,1.19,1.05,1.65c0.18,0.45,0.36,0.71,0.54,0.78
		c1.25,0.35,2.42,0.38,3.51,0.1c1.09-0.28,2.17-0.63,3.24-1.05C453.86,65.89,454.49,65.7,454.66,65.73z M434.83,77.34
		c0.57-0.45,1.13-1.05,1.66-1.78c0.54-0.73,1.11-1.59,1.72-2.59c0.61-0.99,1.05-1.72,1.34-2.17c0.14-0.21,0.3-0.4,0.46-0.58
		c0.16-0.17,0.29-0.32,0.38-0.44c0.09-0.12,0.24-0.27,0.46-0.44c0.22-0.17,0.36-0.3,0.43-0.37c0.07-0.07,0.25-0.22,0.54-0.44
		c0.29-0.23,0.48-0.37,0.59-0.44c0.29-0.24,0.42-0.42,0.4-0.52c-0.02-0.1-0.15-0.28-0.4-0.52c-0.68-0.84-1.45-1.25-2.3-1.25
		c-0.86,0-1.68,0.35-2.47,1.05c-1.11,1.05-2.1,2.56-2.98,4.55c-0.88,1.99-1.31,3.76-1.31,5.33c0,0.63,0.12,0.99,0.35,1.1
		C433.91,77.91,434.29,77.76,434.83,77.34z M440.03,76.08c0.93-0.45,1.8-1.52,2.63-3.19c0.43-0.91,0.5-1.32,0.21-1.25
		c-0.18,0.07-0.55,0.49-1.13,1.25c-0.36,0.35-0.88,1.13-1.55,2.35C439.87,75.87,439.82,76.15,440.03,76.08z"/>
	<path class="st1" d="M453.49,77.18c0.29-0.07,0.53-0.13,0.72-0.18c0.2-0.05,0.48-0.14,0.86-0.26c0.37-0.12,0.7-0.24,0.99-0.37
		c0.29-0.12,0.59-0.26,0.91-0.42c0.32-0.16,0.59-0.33,0.8-0.52c0.22-0.19,0.39-0.4,0.54-0.63c0.14-0.23,0.21-0.47,0.19-0.73
		c-0.02-0.26-0.12-0.51-0.29-0.76c-0.25-0.38-0.68-0.82-1.29-1.31c-0.61-0.49-1.19-0.93-1.74-1.33c-0.55-0.4-1.05-0.84-1.47-1.33
		c-0.43-0.49-0.63-1.02-0.62-1.59c0.02-0.58,0.31-1.18,0.88-1.8c0.68-0.7,1.74-1.41,3.19-2.14c1.45-0.73,2.56-0.99,3.35-0.78
		l0.11,0.05c0.61,0.28,0.89,0.71,0.83,1.28c-0.05,0.58-0.38,1.04-0.99,1.39c-0.07,0.04-0.47,0.18-1.21,0.44
		c-0.73,0.26-1.31,0.53-1.74,0.81c-0.43,0.28-0.64,0.58-0.64,0.89c0,0.28,0.19,0.59,0.56,0.94c0.38,0.35,0.84,0.71,1.39,1.07
		c0.55,0.37,0.9,0.64,1.05,0.81c0.29,0.28,0.57,0.63,0.86,1.05c0.54,0.8,0.81,1.65,0.83,2.54c0.02,0.89-0.28,1.72-0.88,2.48
		c-0.79,0.87-2.1,1.67-3.94,2.41s-3.49,1.24-4.96,1.52c-0.64,0.1-1.21,0.07-1.69-0.1c-0.48-0.17-0.71-0.58-0.67-1.2
		c0-0.28,0.1-0.53,0.29-0.76c0.2-0.23,0.47-0.42,0.83-0.58c0.36-0.16,0.68-0.28,0.97-0.37c0.29-0.09,0.66-0.18,1.13-0.29
		S453.38,77.22,453.49,77.18z"/>
	<path class="st1" d="M494.07,66.1c0.14,0.14,0.26,0.28,0.35,0.42c0.09,0.14,0.13,0.3,0.11,0.47c-0.02,0.17-0.04,0.31-0.05,0.42
		c-0.02,0.1-0.08,0.25-0.19,0.44c-0.11,0.19-0.19,0.32-0.24,0.39c-0.05,0.07-0.16,0.21-0.32,0.42c-0.16,0.21-0.26,0.33-0.29,0.37
		c-0.11,0.1-0.44,0.49-0.99,1.15c-0.55,0.66-0.92,1.1-1.1,1.31c-0.18,0.21-0.55,0.64-1.13,1.28c-0.57,0.65-0.99,1.1-1.26,1.36
		c-0.27,0.26-0.68,0.67-1.23,1.23c-0.55,0.56-1,0.99-1.34,1.28c-0.34,0.3-0.78,0.66-1.31,1.1c-0.54,0.44-1.02,0.78-1.45,1.05
		c-0.43,0.26-0.9,0.52-1.42,0.78c-0.52,0.26-1.03,0.46-1.53,0.6c-2.22,0.8-3.86,0.8-4.93,0c-0.64-0.45-1.07-1.36-1.29-2.72
		c0-0.42-0.07-0.7-0.21-0.84c-0.14,0-0.73,0.49-1.77,1.46c-1.11,0.77-2.37,1.37-3.78,1.8c-1.41,0.44-2.74,0.6-3.99,0.5
		c-0.86-0.03-1.52-0.3-1.98-0.78c-0.46-0.49-0.71-1.09-0.75-1.8c-0.04-0.71,0.02-1.42,0.16-2.12c0.14-0.7,0.36-1.38,0.64-2.04
		c0.61-1.39,1.46-2.81,2.57-4.24c1.11-1.43,2.39-2.72,3.86-3.87c1.46-1.15,3.01-1.96,4.64-2.43c1.63-0.47,3.26-0.46,4.91,0.03
		c0.71,0.24,1.31,0.63,1.8,1.15c0.48,0.52,0.67,1.12,0.56,1.78c-0.14,0.7-0.64,0.92-1.5,0.68c-0.32-0.1-0.69-0.25-1.1-0.44
		c-0.41-0.19-0.78-0.32-1.1-0.39c-0.32-0.07-0.73-0.09-1.23-0.05c-1.79,0-3.53,0.68-5.23,2.04c-1.7,1.36-3.12,2.93-4.26,4.71
		c-0.32,0.56-0.6,1.09-0.83,1.59c-0.23,0.51-0.45,1.09-0.64,1.75c-0.2,0.66-0.13,1.14,0.21,1.44c0.34,0.3,0.97,0.32,1.9,0.08
		c2.04-0.66,3.75-1.79,5.15-3.4c0.46-0.49,0.88-0.98,1.26-1.49c0.38-0.5,0.64-0.91,0.8-1.2c0.16-0.3,0.43-0.78,0.8-1.46
		c0.38-0.68,0.65-1.18,0.83-1.49c1.11-1.46,2.04-1.74,2.79-0.84c0.43,0.45,0.27,2.09-0.48,4.91c-0.79,2.89-1.04,4.64-0.75,5.23
		c0.39,0.73,1.52,0.51,3.38-0.68c0.86-0.59,1.78-1.34,2.76-2.25c0.98-0.91,1.79-1.71,2.41-2.41c0.62-0.7,1.47-1.66,2.55-2.9
		c1.07-1.24,1.82-2.08,2.25-2.54c0.04-0.03,0.18-0.15,0.43-0.34c0.25-0.19,0.42-0.31,0.51-0.37c0.09-0.05,0.24-0.14,0.46-0.26
		c0.21-0.12,0.39-0.19,0.54-0.21c0.14-0.02,0.31,0,0.51,0.05C493.7,65.86,493.89,65.96,494.07,66.1z"/>
	<path class="st1" d="M490.15,72.84c0.71-3.49,2.3-8.68,4.77-15.58c1.18-3.38,1.97-5.59,2.36-6.64c0.46-1.22,1.14-1.73,2.04-1.52
		c0.39,0.07,0.68,0.31,0.86,0.71c0.18,0.4,0.21,0.81,0.11,1.23c-0.04,0.24-0.12,0.54-0.24,0.89c-0.13,0.35-0.28,0.73-0.46,1.15
		c-0.18,0.42-0.29,0.71-0.32,0.89c-0.72,1.92-1.66,4.71-2.84,8.39c-1.18,3.68-1.89,5.88-2.14,6.61c0,0.04-0.1,0.34-0.29,0.92
		c-0.2,0.58-0.35,1.05-0.46,1.41c-0.11,0.37-0.26,0.88-0.46,1.54c-0.2,0.66-0.34,1.23-0.43,1.7s-0.15,0.96-0.19,1.46
		c-0.04,0.51-0.01,0.92,0.08,1.25c0.09,0.33,0.26,0.55,0.51,0.65c0.54,0.31,1.43,0.07,2.68-0.73c1.25-0.8,2.59-1.92,4.02-3.35
		c1.43-1.43,2.64-2.67,3.62-3.74c0.98-1.06,1.8-1.98,2.44-2.75c0-0.03,0.04-0.07,0.11-0.1c0.14-0.21,0.26-0.37,0.35-0.47
		c0.09-0.1,0.21-0.24,0.38-0.42c0.16-0.17,0.31-0.3,0.46-0.39c0.14-0.09,0.3-0.16,0.48-0.23c0.18-0.07,0.36-0.1,0.54-0.08
		c0.18,0.02,0.36,0.08,0.54,0.18l0.16,0.1c0.86,0.59,0.77,1.53-0.27,2.82c-1.14,1.43-2.22,2.69-3.22,3.79c-1,1.1-2.23,2.34-3.7,3.71
		c-1.47,1.38-2.98,2.46-4.53,3.24c-1.55,0.78-3.06,1.19-4.53,1.23c-0.5,0-0.94-0.07-1.31-0.21c-0.37-0.14-0.66-0.36-0.86-0.65
		c-0.2-0.3-0.37-0.6-0.51-0.92c-0.14-0.31-0.22-0.72-0.24-1.23c-0.02-0.5-0.03-0.92-0.03-1.25c0-0.33,0.05-0.78,0.13-1.36
		s0.15-0.98,0.19-1.2C489.97,73.69,490.05,73.33,490.15,72.84z"/>
</g>
<path class="st1" d="M213.28,95.17H52.71c-3.86,0-6.98-3.13-6.98-6.98v-61.2c0-3.86,3.13-6.98,6.98-6.98h160.57
	c3.86,0,6.98,3.13,6.98,6.98v61.2C220.26,92.04,217.14,95.17,213.28,95.17z"/>
<g>
	<g>
		<path class="st1" d="M380.81,256.3v14.82h6.04v4.01H375.9V256.3H380.81z"/>
		<path class="st1" d="M387.9,261.22c0.23-1.24,0.61-2.25,1.13-3.03c0.53-0.78,1.22-1.35,2.08-1.71c0.86-0.36,1.92-0.54,3.16-0.54
			s2.3,0.18,3.16,0.54s1.56,0.93,2.08,1.71c0.53,0.78,0.91,1.79,1.13,3.03s0.34,2.74,0.34,4.5c0,1.76-0.11,3.26-0.34,4.5
			s-0.61,2.25-1.13,3.03s-1.22,1.34-2.08,1.67c-0.86,0.33-1.92,0.5-3.16,0.5s-2.3-0.17-3.16-0.5c-0.86-0.33-1.56-0.89-2.08-1.67
			c-0.53-0.78-0.91-1.79-1.13-3.03s-0.34-2.74-0.34-4.5C387.56,263.96,387.67,262.46,387.9,261.22z M392.67,268.87
			c0.04,0.83,0.11,1.5,0.22,1.99c0.11,0.49,0.28,0.84,0.5,1.03c0.22,0.19,0.51,0.29,0.88,0.29s0.66-0.1,0.88-0.29
			c0.22-0.19,0.39-0.54,0.5-1.03c0.11-0.49,0.19-1.16,0.22-1.99s0.05-1.89,0.05-3.15s-0.02-2.32-0.05-3.15
			c-0.04-0.83-0.11-1.5-0.22-1.99c-0.12-0.49-0.28-0.83-0.5-1.03c-0.22-0.19-0.51-0.29-0.88-0.29s-0.66,0.1-0.88,0.29
			s-0.39,0.54-0.5,1.03s-0.19,1.16-0.22,1.99c-0.04,0.84-0.05,1.89-0.05,3.15S392.64,268.03,392.67,268.87z"/>
		<path class="st1" d="M409.97,259.83c-0.21-0.39-0.55-0.58-1.03-0.58c-0.37,0-0.66,0.1-0.88,0.29s-0.39,0.54-0.5,1.03
			s-0.19,1.16-0.22,1.99c-0.04,0.84-0.05,1.89-0.05,3.15s0.02,2.32,0.05,3.15s0.11,1.5,0.22,1.99c0.11,0.49,0.28,0.84,0.5,1.03
			c0.22,0.19,0.51,0.29,0.88,0.29c0.3,0,0.54-0.07,0.74-0.22c0.19-0.15,0.34-0.4,0.45-0.75c0.11-0.35,0.18-0.82,0.22-1.41
			c0.04-0.59,0.07-1.33,0.07-2.23h4.75v1.4c0,1.32-0.18,2.4-0.53,3.24c-0.35,0.84-0.82,1.51-1.4,1.99s-1.24,0.81-1.99,0.98
			s-1.52,0.25-2.31,0.25c-1.37,0-2.5-0.17-3.38-0.5c-0.88-0.33-1.56-0.89-2.06-1.67s-0.83-1.79-1.02-3.03s-0.28-2.74-0.28-4.5
			c0-1.79,0.11-3.31,0.33-4.56c0.22-1.25,0.59-2.26,1.12-3.03c0.53-0.77,1.22-1.33,2.08-1.67s1.92-0.51,3.19-0.51
			c1.11,0,2.05,0.14,2.82,0.42s1.4,0.68,1.89,1.2c0.48,0.52,0.83,1.14,1.05,1.87c0.22,0.73,0.33,1.55,0.33,2.47v1.19h-4.75v-1.05
			C410.29,260.95,410.18,260.22,409.97,259.83z"/>
		<path class="st1" d="M426.19,256.3l4.59,18.83h-5.22l-0.5-3.3h-3.9l-0.5,3.3h-5.14l4.51-18.83H426.19z M423.08,260.15l-1.35,7.99
			h2.74l-1.34-7.99H423.08z"/>
		<path class="st1" d="M430.43,260.47v-4.17h12.24v4.17h-3.69v14.66h-4.91v-14.66H430.43z"/>
		<path class="st1" d="M448.5,256.3v18.83h-4.9V256.3H448.5z"/>
		<path class="st1" d="M450.42,261.22c0.23-1.24,0.61-2.25,1.13-3.03c0.53-0.78,1.22-1.35,2.08-1.71c0.86-0.36,1.92-0.54,3.16-0.54
			s2.3,0.18,3.16,0.54s1.56,0.93,2.08,1.71c0.53,0.78,0.91,1.79,1.13,3.03s0.34,2.74,0.34,4.5c0,1.76-0.11,3.26-0.34,4.5
			s-0.61,2.25-1.13,3.03s-1.22,1.34-2.08,1.67c-0.86,0.33-1.92,0.5-3.16,0.5s-2.3-0.17-3.16-0.5c-0.86-0.33-1.56-0.89-2.08-1.67
			c-0.53-0.78-0.91-1.79-1.13-3.03s-0.34-2.74-0.34-4.5C450.08,263.96,450.19,262.46,450.42,261.22z M455.19,268.87
			c0.04,0.83,0.11,1.5,0.22,1.99c0.11,0.49,0.28,0.84,0.5,1.03c0.22,0.19,0.51,0.29,0.88,0.29s0.66-0.1,0.88-0.29
			c0.22-0.19,0.39-0.54,0.5-1.03c0.11-0.49,0.19-1.16,0.22-1.99s0.05-1.89,0.05-3.15s-0.02-2.32-0.05-3.15
			c-0.04-0.83-0.11-1.5-0.22-1.99c-0.12-0.49-0.28-0.83-0.5-1.03c-0.22-0.19-0.51-0.29-0.88-0.29s-0.66,0.1-0.88,0.29
			s-0.39,0.54-0.5,1.03s-0.19,1.16-0.22,1.99c-0.04,0.84-0.05,1.89-0.05,3.15S455.16,268.03,455.19,268.87z"/>
		<path class="st1" d="M470.78,256.3l3.17,11.6H474v-11.6h4.59v18.83h-5.38l-3.27-11.63h-0.05v11.63h-4.59V256.3H470.78z"/>
		<path class="st1" d="M494.88,256.3c1.42,0,2.53,0.26,3.32,0.78c0.79,0.52,1.38,1.21,1.78,2.08c0.4,0.87,0.64,1.87,0.73,3.01
			s0.13,2.32,0.13,3.55s-0.04,2.41-0.13,3.55c-0.09,1.13-0.33,2.14-0.73,3.01c-0.4,0.87-0.99,1.56-1.78,2.08
			c-0.79,0.52-1.9,0.78-3.32,0.78h-7.12V256.3H494.88z M493.64,271.6c0.47,0,0.85-0.07,1.13-0.2s0.5-0.41,0.65-0.83
			c0.15-0.42,0.25-1.02,0.29-1.79c0.04-0.77,0.07-1.79,0.07-3.06s-0.02-2.29-0.07-3.06c-0.04-0.77-0.14-1.37-0.29-1.79
			c-0.15-0.42-0.37-0.7-0.65-0.83s-0.66-0.2-1.13-0.2h-0.98v11.76H493.64z"/>
		<path class="st1" d="M514.05,256.3v4.01h-6.25v3.22h5.85v3.85h-5.85v3.74h6.49v4.01H502.9V256.3H514.05z"/>
		<path class="st1" d="M514.92,260.47v-4.17h12.24v4.17h-3.69v14.66h-4.91v-14.66H514.92z"/>
		<path class="st1" d="M537.52,256.3l4.59,18.83h-5.22l-0.5-3.3h-3.9l-0.5,3.3h-5.14l4.51-18.83H537.52z M534.41,260.15l-1.34,7.99
			h2.74l-1.34-7.99H534.41z"/>
		<path class="st1" d="M547.65,256.3v18.83h-4.9V256.3H547.65z"/>
		<path class="st1" d="M554.69,256.3v14.82h6.04v4.01h-10.94V256.3H554.69z"/>
		<path class="st1" d="M569.32,261.28c0-0.56-0.12-1.04-0.34-1.44c-0.23-0.4-0.58-0.59-1.05-0.59c-0.53,0-0.92,0.17-1.16,0.51
			c-0.25,0.34-0.37,0.73-0.37,1.15c0,0.62,0.2,1.1,0.59,1.46c0.4,0.36,0.89,0.67,1.49,0.94c0.6,0.26,1.24,0.53,1.92,0.8
			s1.33,0.63,1.92,1.07s1.09,1.02,1.49,1.73s0.59,1.64,0.59,2.78c0,2-0.57,3.46-1.71,4.36c-1.14,0.91-2.79,1.36-4.96,1.36
			c-1.02,0-1.92-0.08-2.7-0.25c-0.78-0.17-1.44-0.46-1.98-0.87s-0.94-0.95-1.23-1.62c-0.28-0.67-0.42-1.49-0.42-2.48v-0.66h4.75
			v0.45c0,0.81,0.15,1.38,0.45,1.7c0.3,0.33,0.69,0.49,1.16,0.49c0.51,0,0.9-0.18,1.17-0.53c0.27-0.35,0.41-0.78,0.41-1.29
			c0-0.62-0.19-1.1-0.57-1.46s-0.85-0.67-1.42-0.92c-0.57-0.25-1.19-0.51-1.86-0.78s-1.29-0.61-1.86-1.03
			c-0.57-0.42-1.05-0.98-1.42-1.66c-0.38-0.69-0.57-1.58-0.57-2.69c0-1.92,0.51-3.38,1.53-4.38s2.57-1.5,4.64-1.5
			c2.14,0,3.7,0.46,4.65,1.38c0.96,0.92,1.44,2.4,1.44,4.42h-4.59V261.28z"/>
	</g>
</g>
<g>
	<g>
		<path class="st1" d="M78.11,499.1v14.82h6.04v4.01H73.21V499.1H78.11z"/>
		<path class="st1" d="M85.21,504.02c0.23-1.24,0.61-2.25,1.13-3.03c0.53-0.78,1.22-1.35,2.08-1.71c0.86-0.36,1.92-0.54,3.16-0.54
			c1.25,0,2.3,0.18,3.16,0.54s1.56,0.93,2.08,1.71c0.53,0.78,0.91,1.79,1.13,3.03s0.34,2.74,0.34,4.5s-0.11,3.26-0.34,4.5
			c-0.23,1.24-0.61,2.25-1.13,3.03s-1.22,1.34-2.08,1.67c-0.86,0.33-1.92,0.5-3.16,0.5c-1.25,0-2.3-0.17-3.16-0.5
			c-0.86-0.33-1.56-0.89-2.08-1.67c-0.53-0.78-0.91-1.79-1.13-3.03c-0.23-1.24-0.34-2.74-0.34-4.5S84.98,505.26,85.21,504.02z
			 M89.98,511.67c0.04,0.83,0.11,1.5,0.22,1.99c0.11,0.49,0.28,0.84,0.5,1.03c0.22,0.19,0.51,0.29,0.88,0.29s0.66-0.1,0.88-0.29
			c0.22-0.19,0.39-0.54,0.5-1.03c0.11-0.49,0.19-1.16,0.22-1.99c0.04-0.83,0.05-1.89,0.05-3.15s-0.02-2.32-0.05-3.15
			c-0.04-0.83-0.11-1.5-0.22-1.99c-0.11-0.49-0.28-0.83-0.5-1.03c-0.22-0.19-0.51-0.29-0.88-0.29s-0.66,0.1-0.88,0.29
			s-0.39,0.54-0.5,1.03s-0.19,1.16-0.22,1.99s-0.05,1.89-0.05,3.15S89.95,510.83,89.98,511.67z"/>
		<path class="st1" d="M107.28,502.63c-0.21-0.39-0.55-0.58-1.03-0.58c-0.37,0-0.66,0.1-0.88,0.29s-0.39,0.54-0.5,1.03
			s-0.19,1.16-0.22,1.99s-0.05,1.89-0.05,3.15s0.02,2.32,0.05,3.15c0.04,0.83,0.11,1.5,0.22,1.99c0.11,0.49,0.28,0.84,0.5,1.03
			c0.22,0.19,0.51,0.29,0.88,0.29c0.3,0,0.54-0.07,0.74-0.22c0.19-0.15,0.34-0.4,0.45-0.75c0.11-0.35,0.18-0.82,0.22-1.41
			c0.04-0.59,0.07-1.33,0.07-2.23h4.75v1.4c0,1.32-0.18,2.4-0.53,3.24c-0.35,0.84-0.82,1.51-1.4,1.99
			c-0.58,0.48-1.24,0.81-1.99,0.98c-0.75,0.17-1.52,0.25-2.31,0.25c-1.37,0-2.5-0.17-3.38-0.5c-0.88-0.33-1.56-0.89-2.06-1.67
			s-0.83-1.79-1.02-3.03c-0.18-1.24-0.28-2.74-0.28-4.5c0-1.79,0.11-3.31,0.33-4.56c0.22-1.25,0.59-2.26,1.12-3.03
			c0.53-0.77,1.22-1.33,2.08-1.67c0.86-0.34,1.92-0.51,3.19-0.51c1.11,0,2.05,0.14,2.82,0.42s1.4,0.68,1.89,1.2
			c0.48,0.52,0.83,1.14,1.05,1.87c0.22,0.73,0.33,1.55,0.33,2.47v1.19h-4.75v-1.05C107.6,503.75,107.49,503.02,107.28,502.63z"/>
		<path class="st1" d="M123.5,499.1l4.59,18.83h-5.22l-0.5-3.3h-3.9l-0.5,3.3h-5.14l4.51-18.83H123.5z M120.39,502.95l-1.35,7.99
			h2.74l-1.34-7.99H120.39z"/>
		<path class="st1" d="M127.74,503.27v-4.17h12.24v4.17h-3.69v14.66h-4.9v-14.66H127.74z"/>
		<path class="st1" d="M145.81,499.1v18.83h-4.9V499.1H145.81z"/>
		<path class="st1" d="M147.73,504.02c0.23-1.24,0.61-2.25,1.13-3.03c0.53-0.78,1.22-1.35,2.08-1.71c0.86-0.36,1.92-0.54,3.16-0.54
			c1.25,0,2.3,0.18,3.16,0.54s1.56,0.93,2.08,1.71c0.53,0.78,0.91,1.79,1.13,3.03s0.34,2.74,0.34,4.5s-0.11,3.26-0.34,4.5
			c-0.23,1.24-0.61,2.25-1.13,3.03s-1.22,1.34-2.08,1.67c-0.86,0.33-1.92,0.5-3.16,0.5c-1.25,0-2.3-0.17-3.16-0.5
			c-0.86-0.33-1.56-0.89-2.08-1.67c-0.53-0.78-0.91-1.79-1.13-3.03c-0.23-1.24-0.34-2.74-0.34-4.5S147.5,505.26,147.73,504.02z
			 M152.5,511.67c0.04,0.83,0.11,1.5,0.22,1.99c0.11,0.49,0.28,0.84,0.5,1.03c0.22,0.19,0.51,0.29,0.88,0.29s0.66-0.1,0.88-0.29
			c0.22-0.19,0.39-0.54,0.5-1.03c0.11-0.49,0.19-1.16,0.22-1.99c0.04-0.83,0.05-1.89,0.05-3.15s-0.02-2.32-0.05-3.15
			c-0.04-0.83-0.11-1.5-0.22-1.99c-0.11-0.49-0.28-0.83-0.5-1.03c-0.22-0.19-0.51-0.29-0.88-0.29s-0.66,0.1-0.88,0.29
			s-0.39,0.54-0.5,1.03s-0.19,1.16-0.22,1.99s-0.05,1.89-0.05,3.15S152.47,510.83,152.5,511.67z"/>
		<path class="st1" d="M168.09,499.1l3.16,11.6h0.05v-11.6h4.59v18.83h-5.38l-3.27-11.63h-0.05v11.63h-4.59V499.1H168.09z"/>
		<path class="st1" d="M192.64,499.1c1.76,0,3.05,0.43,3.89,1.28c0.83,0.85,1.25,1.99,1.25,3.42c0,0.49-0.06,0.97-0.17,1.44
			c-0.11,0.47-0.29,0.89-0.53,1.27s-0.54,0.7-0.91,0.96s-0.82,0.45-1.35,0.55v0.05c0.62,0.05,1.14,0.21,1.58,0.49
			c0.44,0.27,0.8,0.61,1.08,1.02s0.49,0.85,0.62,1.33c0.13,0.48,0.2,0.97,0.2,1.46c0,0.81-0.11,1.56-0.32,2.24s-0.54,1.28-0.99,1.77
			s-1.03,0.87-1.75,1.15c-0.72,0.27-1.59,0.41-2.61,0.41h-7.41V499.1H192.64z M191.32,506.48c0.51,0,0.9-0.19,1.16-0.57
			s0.4-0.82,0.4-1.33c0-0.53-0.13-0.98-0.4-1.37s-0.65-0.58-1.16-0.58h-1.19v3.85H191.32z M191.5,514.39c0.46,0,0.86-0.19,1.21-0.57
			c0.35-0.38,0.53-0.96,0.53-1.75c0-0.74-0.18-1.3-0.53-1.69c-0.35-0.39-0.76-0.58-1.21-0.58h-1.37v4.59H191.5z"/>
		<path class="st1" d="M211.36,499.1v4.01h-6.25v3.22h5.85v3.85h-5.85v3.74h6.49v4.01h-11.39V499.1H211.36z"/>
		<path class="st1" d="M218.88,499.1l3.16,11.6h0.05v-11.6h4.59v18.83h-5.38l-3.27-11.63h-0.05v11.63h-4.59V499.1H218.88z"/>
		<path class="st1" d="M240.16,499.1v4.01h-6.25v3.22h5.85v3.85h-5.85v3.74h6.49v4.01H229V499.1H240.16z"/>
		<path class="st1" d="M253.34,499.1v4.01h-6.25v3.22h5.85v3.85h-5.85v7.75h-4.9V499.1H253.34z"/>
		<path class="st1" d="M259.59,499.1v18.83h-4.9V499.1H259.59z"/>
		<path class="st1" d="M260.57,503.27v-4.17h12.24v4.17h-3.69v14.66h-4.9v-14.66H260.57z"/>
		<path class="st1" d="M281.24,504.08c0-0.56-0.11-1.04-0.34-1.44c-0.23-0.4-0.58-0.59-1.05-0.59c-0.53,0-0.91,0.17-1.16,0.51
			c-0.25,0.34-0.37,0.72-0.37,1.15c0,0.62,0.2,1.1,0.59,1.46s0.89,0.67,1.49,0.94c0.6,0.26,1.24,0.53,1.92,0.8s1.33,0.63,1.93,1.07
			c0.6,0.44,1.09,1.01,1.49,1.73s0.59,1.64,0.59,2.78c0,2-0.57,3.46-1.71,4.36c-1.14,0.91-2.8,1.36-4.96,1.36
			c-1.02,0-1.92-0.08-2.7-0.25c-0.78-0.17-1.44-0.46-1.98-0.87s-0.94-0.95-1.23-1.62c-0.28-0.67-0.42-1.49-0.42-2.48v-0.66h4.75
			v0.45c0,0.81,0.15,1.38,0.45,1.7s0.69,0.49,1.16,0.49c0.51,0,0.9-0.17,1.17-0.53c0.27-0.35,0.41-0.78,0.41-1.29
			c0-0.62-0.19-1.1-0.57-1.46c-0.38-0.36-0.85-0.67-1.42-0.92c-0.57-0.25-1.19-0.51-1.86-0.78c-0.67-0.26-1.29-0.61-1.86-1.03
			c-0.57-0.42-1.05-0.98-1.42-1.66c-0.38-0.69-0.57-1.58-0.57-2.69c0-1.92,0.51-3.38,1.53-4.38c1.02-1,2.57-1.5,4.64-1.5
			c2.14,0,3.7,0.46,4.65,1.38c0.96,0.92,1.44,2.4,1.44,4.42h-4.59V504.08z"/>
	</g>
</g>
<line class="st2" x1="525.33" y1="720.02" x2="525.33" y2="773.36"/>
<g>
	<path class="st1" d="M43.36,731.58c-0.13-0.67-0.4-1.22-0.8-1.63c-0.4-0.41-0.9-0.68-1.5-0.81c-0.6-0.13-1.21-0.2-1.84-0.21
		c-0.63-0.01-1.32,0.06-2.09,0.23c-0.76,0.16-1.42,0.32-1.97,0.47c-0.55,0.15-1.11,0.33-1.68,0.53c-0.3,0.12-0.54,0.18-0.71,0.16
		s-0.36-0.12-0.57-0.31c-0.25-0.23-0.5-0.3-0.74-0.23s-0.44,0.26-0.57,0.58c-0.04,0.08-0.08,0.19-0.13,0.33s-0.08,0.22-0.1,0.25
		c-0.02,0.03-0.05,0.08-0.09,0.15c-0.04,0.07-0.09,0.12-0.16,0.14c-0.07,0.02-0.14,0.06-0.23,0.11c-0.09,0.05-0.21,0.1-0.36,0.17
		c-0.38,0.17-2.17,0.97-5.37,2.41c-0.09,0.05-0.24,0.11-0.44,0.2c-0.2,0.08-0.38,0.16-0.54,0.23s-0.31,0.14-0.44,0.21
		c-0.44,0.21-0.69,0.46-0.76,0.75c-0.07,0.29,0.02,0.53,0.26,0.71c0.24,0.18,0.51,0.22,0.81,0.11c1.52-0.48,2.75-0.62,3.68-0.44
		c0.32,0.07,0.6,0.16,0.83,0.28c0.23,0.12,0.39,0.28,0.49,0.49c0.1,0.2,0.16,0.39,0.2,0.55c0.04,0.17,0.03,0.41-0.01,0.71
		c-0.05,0.31-0.09,0.55-0.14,0.73c-0.05,0.18-0.12,0.45-0.21,0.82c-0.04,0.08-0.06,0.14-0.06,0.18c-0.15,0.49-0.3,0.81-0.43,0.95
		c-0.1,0.08-0.22,0.16-0.37,0.23s-0.33,0.13-0.53,0.19c-0.2,0.06-0.34,0.1-0.41,0.12c-0.32,0.12-0.54,0.31-0.66,0.57
		c-0.11,0.26-0.05,0.49,0.2,0.7c0.15,0.12,0.33,0.19,0.53,0.2c0.2,0.01,0.34,0.01,0.41,0.01c0.08-0.01,0.14,0.05,0.2,0.18
		c0.06,0.13,0.01,0.37-0.14,0.73c-0.55,1.76-1.05,3.32-1.49,4.67c-0.02,0.02-0.06,0.12-0.13,0.31c-0.07,0.19-0.11,0.32-0.13,0.4
		c-0.02,0.08-0.05,0.21-0.1,0.39s-0.07,0.33-0.06,0.43s0.02,0.22,0.03,0.35c0.01,0.13,0.05,0.23,0.13,0.3
		c0.08,0.07,0.18,0.12,0.31,0.14c0.57,0.12,1-0.32,1.29-1.31c0.17-0.62,0.44-1.52,0.81-2.7c0.37-1.18,0.63-2.04,0.79-2.61
		c0.04-0.14,0.09-0.33,0.16-0.58s0.11-0.41,0.13-0.48c0.02-0.07,0.06-0.17,0.13-0.31c0.07-0.14,0.13-0.22,0.19-0.24
		c0.06-0.02,0.15-0.07,0.29-0.12c0.13-0.06,0.28-0.09,0.43-0.09c0.15,0,0.35,0,0.6,0.02c3.58,0.14,6.45,1.31,8.63,3.5
		c0.13,0.16,0.31,0.23,0.53,0.23c0.22-0.01,0.41-0.09,0.57-0.25c0.16-0.16,0.25-0.35,0.27-0.57c0.02-0.22-0.04-0.4-0.17-0.54
		c-1.77-1.84-3.85-3.01-6.23-3.48c-0.3-0.07-0.47-0.1-0.49-0.1c-0.42-0.12-0.36-0.28,0.17-0.5c0.17-0.05,0.47-0.16,0.9-0.32
		c0.43-0.16,0.76-0.29,0.99-0.39c2.32-0.98,4.12-1.98,5.4-2.99c0.86-0.68,1.53-1.45,2.03-2.29
		C43.37,733.35,43.53,732.48,43.36,731.58z M28.28,734.27c-0.09-0.05-0.17-0.09-0.21-0.11c-0.05-0.02-0.08-0.05-0.11-0.09
		c-0.03-0.04-0.03-0.07,0-0.11c0.03-0.04,0.1-0.09,0.21-0.16c0.99-0.45,1.55-0.66,1.68-0.63c0.13,0.03,0.14,0.23,0.03,0.61
		c-0.11,0.38-0.22,0.62-0.31,0.73C29.38,734.69,28.95,734.61,28.28,734.27z M35.51,737.78c-0.74,0.33-2.37,0.94-4.88,1.83
		c-0.02,0-0.07,0.02-0.16,0.06c-0.09,0.04-0.17,0.07-0.26,0.11s-0.18,0.07-0.27,0.1c-0.1,0.03-0.18,0.04-0.24,0.04
		c-0.07,0-0.11-0.02-0.12-0.05c-0.01-0.03,0.12-0.49,0.39-1.38c0.27-0.89,0.57-1.88,0.91-2.98c0.34-1.1,0.52-1.66,0.54-1.7
		c0.04-0.12,0.09-0.29,0.14-0.51c0.06-0.22,0.09-0.37,0.11-0.42c0.02-0.06,0.06-0.15,0.13-0.28c0.07-0.13,0.14-0.22,0.23-0.26
		c0.08-0.05,0.2-0.11,0.36-0.19c0.15-0.08,0.33-0.16,0.54-0.23c0.04,0,0.1-0.02,0.17-0.04c5.52-1.82,8.43-1.73,8.71,0.27
		C42.09,733.96,39.98,735.85,35.51,737.78z"/>
	<path class="st1" d="M78.9,726.96c0.08-0.29,0.07-0.54-0.01-0.74c-0.08-0.2-0.27-0.32-0.56-0.35c-0.1,0.03-0.18,0.03-0.24,0.01
		c-0.07-0.02-0.14,0.01-0.21,0.09c-0.08,0.08-0.14,0.14-0.19,0.16c-0.05,0.02-0.09,0.08-0.14,0.18c-0.05,0.1-0.09,0.17-0.11,0.21
		c-0.03,0.04-0.06,0.12-0.1,0.25c-0.04,0.13-0.07,0.21-0.09,0.25c-0.02,0.04-0.04,0.12-0.07,0.23c-0.03,0.12-0.04,0.19-0.04,0.2
		c-0.13,0.45-0.37,1.21-0.71,2.28c-0.34,1.07-0.58,1.88-0.71,2.45c-0.02,0.06-0.05,0.17-0.09,0.32c-0.04,0.16-0.06,0.25-0.07,0.28
		c-0.01,0.03-0.03,0.1-0.07,0.21c-0.04,0.11-0.07,0.17-0.09,0.19c-0.02,0.02-0.05,0.07-0.08,0.15c-0.04,0.08-0.08,0.13-0.13,0.14
		s-0.1,0.05-0.16,0.1c-0.06,0.05-0.12,0.09-0.2,0.1c-0.08,0.02-0.16,0.04-0.26,0.08c-0.09,0.04-0.2,0.07-0.31,0.1
		c-1.2,0.28-2.29,0.74-3.29,1.4c-0.21,0.14-0.41,0.29-0.61,0.44c-0.07,0.02-0.13,0.05-0.22,0.11c-0.11,0.08-0.2,0.13-0.24,0.16
		c-0.05,0.03-0.14,0.11-0.27,0.22c-0.13,0.12-0.21,0.19-0.23,0.21c-0.13,0.15-0.31,0.37-0.54,0.66c-0.29,0.31-0.57,0.63-0.84,0.99
		c-0.17,0.22-0.31,0.43-0.45,0.65c-0.28,0.35-0.52,0.65-0.72,0.89c-0.33,0.41-0.76,0.89-1.29,1.43c-0.52,0.54-1.01,0.99-1.47,1.36
		c-0.99,0.73-1.59,0.91-1.8,0.53c-0.15-0.31-0.02-1.27,0.4-2.89c0.4-1.58,0.49-2.48,0.26-2.71c-0.4-0.46-0.9-0.26-1.48,0.59
		c-0.1,0.18-0.24,0.46-0.44,0.85c-0.2,0.39-0.34,0.67-0.43,0.84s-0.23,0.4-0.43,0.69c-0.2,0.29-0.42,0.58-0.67,0.87
		c-0.74,0.94-1.66,1.64-2.74,2.1c-0.5,0.18-0.83,0.19-1.01,0.05c-0.18-0.15-0.22-0.4-0.11-0.78c0.1-0.37,0.22-0.7,0.34-0.99
		c0.12-0.29,0.27-0.59,0.44-0.91c0.25-0.43,0.55-0.82,0.85-1.21c0.47-0.42,0.91-0.85,1.32-1.29c0.08-0.12,0.13-0.22,0.18-0.33
		c0.88-0.78,1.78-1.21,2.7-1.29c0.27-0.04,0.49-0.05,0.66-0.03c0.17,0.02,0.37,0.08,0.59,0.16c0.22,0.09,0.41,0.15,0.59,0.19
		c0.46,0.09,0.72-0.05,0.8-0.44c0.06-0.37-0.04-0.68-0.3-0.94c-0.26-0.26-0.58-0.44-0.96-0.54c-0.88-0.19-1.75-0.12-2.61,0.21
		c-0.87,0.33-1.69,0.85-2.47,1.54c-0.06,0.05-0.11,0.11-0.16,0.16c-0.13,0.1-0.27,0.22-0.41,0.37c-0.08,0.1-0.17,0.19-0.26,0.29
		c-0.13,0.13-0.26,0.27-0.38,0.4c-1.09,1.11-2.64,2.28-4.65,3.51c-2.84,1.73-5.12,2.77-6.85,3.11c-1.14,0.21-1.66-0.03-1.54-0.72
		c0.06-0.48,0.18-0.81,0.36-0.97c0.18-0.17,0.52-0.3,1.01-0.4c0.57-0.09,1.17-0.24,1.79-0.46c0.62-0.22,1.24-0.49,1.86-0.83
		c0.62-0.34,1.15-0.77,1.59-1.28c0.44-0.51,0.69-1.06,0.77-1.64c0.12-0.81-0.04-1.41-0.46-1.79c-0.42-0.38-1.04-0.48-1.86-0.29
		c-1.2,0.31-2.33,0.94-3.38,1.88s-1.92,2.02-2.58,3.24c-0.27,0.48-0.48,0.99-0.64,1.54c-0.16,0.55-0.26,1.1-0.3,1.65
		c-0.04,0.56,0.1,1,0.43,1.35c0.32,0.34,0.84,0.48,1.54,0.42c2.17-0.13,4.77-1.04,7.8-2.72c0.99-0.55,1.91-1.12,2.77-1.69
		c-0.08,0.24-0.15,0.49-0.2,0.74c-0.08,0.39-0.11,0.78-0.09,1.16c0.02,0.39,0.15,0.71,0.4,0.95c0.25,0.25,0.6,0.36,1.06,0.34
		c0.67,0,1.38-0.15,2.13-0.46c0.75-0.3,1.42-0.69,2.01-1.16c0.55-0.58,0.87-0.88,0.94-0.88c0.08,0.07,0.11,0.22,0.11,0.45
		c0.11,0.73,0.34,1.21,0.69,1.43c0.57,0.39,1.45,0.31,2.63-0.23c0.27-0.1,0.54-0.23,0.81-0.4c0.28-0.17,0.53-0.33,0.76-0.5
		c0.23-0.16,0.49-0.38,0.77-0.64c0.05-0.05,0.09-0.08,0.14-0.13c0.02,0.22,0.06,0.45,0.13,0.65c0.18,0.49,0.54,0.8,1.07,0.92
		c0.57,0.12,1.24,0.04,2-0.23c0.76-0.28,1.42-0.63,1.97-1.06c0.02-0.02,0.13-0.12,0.33-0.3c0.2-0.18,0.38-0.33,0.54-0.46
		c0.16-0.13,0.26-0.18,0.3-0.14c0.06,0.05-0.14,0.75-0.6,2.08c0,0.04-0.04,0.15-0.11,0.34c-0.08,0.19-0.13,0.34-0.16,0.44
		c-0.03,0.11-0.07,0.25-0.11,0.42c-0.05,0.18-0.06,0.32-0.04,0.43c0.02,0.11,0.04,0.23,0.07,0.35c0.03,0.12,0.09,0.22,0.2,0.28
		c0.1,0.07,0.24,0.11,0.41,0.14c0.44,0,0.75-0.32,0.94-0.97c0.76-2.5,2.44-7.97,5.03-16.41L78.9,726.96z M45.08,740.54
		c0-0.06,0.02-0.11,0.07-0.16s0.11-0.08,0.19-0.09c0.99-1.23,2.02-2.05,3.08-2.47c0.48-0.21,0.79-0.23,0.93-0.05
		c0.14,0.18,0.07,0.48-0.21,0.9c-0.29,0.42-0.69,0.82-1.2,1.19c-0.51,0.37-1.04,0.63-1.57,0.79c-0.27,0.16-0.61,0.26-1.03,0.32
		C44.88,741.03,44.79,740.89,45.08,740.54z M74.58,735.79c-0.38,1.08-1,2.22-1.86,3.42c-0.53,0.75-1.15,1.43-1.84,2.05
		c-0.7,0.61-1.39,0.99-2.07,1.12c-0.72,0.12-1.03-0.16-0.91-0.83c0.07-0.39,0.23-0.81,0.46-1.25c0.14-0.16,0.32-0.37,0.56-0.68
		c0.3-0.38,0.5-0.63,0.6-0.75c0.09-0.12,0.29-0.38,0.59-0.77c0.29-0.39,0.47-0.61,0.53-0.67c0,0,0.01-0.02,0.02-0.03
		c0.41-0.36,0.86-0.71,1.38-1.02c0.67-0.41,1.29-0.71,1.89-0.89c0.21-0.09,0.39-0.12,0.54-0.09
		C74.62,735.42,74.66,735.55,74.58,735.79z"/>
	<path class="st1" d="M75.32,750.83c0.67,0.06,1.35-0.13,2.04-0.55c0.7-0.42,1.32-0.95,1.89-1.59c0.56-0.64,1.11-1.39,1.66-2.26
		c0.54-0.87,0.99-1.64,1.33-2.33c0.34-0.69,0.65-1.35,0.92-1.98c0.11-0.18,0.29-0.54,0.51-1.09c0.23-0.54,0.41-0.91,0.54-1.09
		c0.3-0.56,2.37-2.16,6.2-4.8c0.4-0.3,0.48-0.69,0.23-1.16c-0.27-0.38-0.65-0.42-1.14-0.13c-0.27,0.21-0.69,0.54-1.26,0.97
		c-0.57,0.43-1,0.75-1.29,0.97c-0.06,0.02-0.19,0.12-0.39,0.28c-0.2,0.16-0.4,0.31-0.6,0.44s-0.33,0.2-0.39,0.21
		c-0.06-0.01-0.06-0.14,0-0.37s0.14-0.49,0.24-0.78c0.11-0.29,0.18-0.45,0.21-0.49c0.27-0.54,0.46-1.05,0.57-1.54
		c0.06-0.31,0.03-0.56-0.07-0.77c-0.11-0.2-0.27-0.32-0.5-0.36c-0.17,0.02-0.33,0.07-0.47,0.16c-0.14,0.09-0.25,0.17-0.31,0.26
		c-0.07,0.08-0.15,0.21-0.24,0.39c-0.42,1.1-1,2.11-1.76,3.02c-0.75,0.91-1.62,1.64-2.61,2.19c-0.13,0.09-0.34,0.19-0.63,0.31
		c-0.29,0.12-0.57,0.19-0.86,0.2c-0.28,0.02-0.45-0.06-0.49-0.23c-0.04-0.36,0.39-1.04,1.27-2.04c0.89-1,1.61-1.73,2.19-2.18
		c0.06-0.06,0.19-0.17,0.4-0.32c0.21-0.15,0.36-0.28,0.46-0.38c0.09-0.1,0.2-0.24,0.31-0.4c0.11-0.16,0.16-0.32,0.13-0.48
		c-0.03-0.16-0.12-0.32-0.27-0.48c-0.13-0.12-0.29-0.17-0.47-0.16c-0.18,0.02-0.31,0.05-0.39,0.1s-0.21,0.15-0.4,0.28
		c-3.68,2.66-5.51,5.01-5.51,7.05c0.1,1.42,1.55,1.44,4.37,0.05c1.28-0.63,1.93-0.94,1.97-0.94c0.15-0.01,0.03,0.19-0.37,0.6
		c-0.38,0.4-1.25,1.23-2.61,2.5c-1.36,1.27-2.5,2.42-3.43,3.44c-0.92,1.02-1.59,1.96-2.01,2.82c-0.19,0.42-0.29,0.83-0.31,1.23
		c-0.02,0.4,0.08,0.74,0.31,1.03C74.53,750.72,74.87,750.86,75.32,750.83z M75.81,748.73c0.21-0.53,0.6-1.17,1.19-1.92
		c0.58-0.75,1.14-1.38,1.67-1.9c1.24-1.33,2.05-2.12,2.43-2.38c0.06-0.06,0.1-0.1,0.14-0.1c0.06,0.01,0,0.22-0.17,0.62
		c-0.06,0.18-0.09,0.27-0.09,0.29c-1.31,2.46-2.58,4.21-3.8,5.27c-0.19,0.21-0.46,0.38-0.8,0.53c-0.29,0.2-0.5,0.25-0.63,0.17
		C75.62,749.23,75.64,749.04,75.81,748.73z"/>
	<path class="st1" d="M92.29,731.1c0.55-0.11,1.33-0.23,2.33-0.36c1-0.13,1.67-0.23,2.01-0.28c0.04-0.02,0.18-0.05,0.44-0.1
		c0.26-0.04,0.47-0.08,0.63-0.11c0.16-0.03,0.34-0.05,0.54-0.06c0.2-0.01,0.35,0.01,0.44,0.06c0.27,0.09,0.26,0.54-0.03,1.34
		c-0.27,0.69-0.55,1.53-0.86,2.53c-2,6.57-3.24,10.62-3.71,12.15c-0.38,1.25-0.58,1.93-0.6,2.02c-0.04,0.37,0.08,0.63,0.34,0.78
		c0.27,0.16,0.53,0.14,0.8-0.06c0.11-0.07,0.21-0.19,0.3-0.35c0.08-0.17,0.15-0.31,0.2-0.43c0.05-0.12,0.11-0.3,0.17-0.54
		c0.07-0.24,0.1-0.39,0.1-0.42c0.32-1.08,0.68-2.22,1.06-3.43c0.38-1.21,0.8-2.56,1.26-4.04c0.46-1.48,0.81-2.63,1.06-3.45
		c0.82-2.7,1.29-4.24,1.4-4.61c0.02-0.12,0.06-0.3,0.13-0.54c0.07-0.24,0.11-0.4,0.13-0.47c0.02-0.07,0.06-0.18,0.13-0.34
		c0.07-0.16,0.13-0.26,0.2-0.3s0.16-0.1,0.29-0.18c0.12-0.08,0.27-0.14,0.43-0.18c0.16-0.04,0.36-0.07,0.59-0.09
		c0.76-0.1,1.86-0.26,3.3-0.46c1.44-0.2,2.48-0.34,3.13-0.42c0.02-0.02,0.12-0.04,0.3-0.05c0.18-0.02,0.31-0.03,0.4-0.05
		c0.09-0.02,0.21-0.04,0.37-0.07s0.29-0.07,0.39-0.12s0.19-0.11,0.29-0.18c0.09-0.07,0.17-0.16,0.21-0.26
		c0.05-0.1,0.06-0.21,0.04-0.35c-0.04-0.53-0.46-0.74-1.26-0.63c-0.02,0-1.87,0.27-5.54,0.8c-0.11,0.01-0.29,0.04-0.54,0.09
		c-0.25,0.05-0.48,0.09-0.69,0.12c-0.21,0.03-0.39,0.05-0.54,0.06l-0.11-0.02c-0.1-0.01-0.17-0.03-0.23-0.07s-0.1-0.09-0.11-0.16
		c-0.02-0.07-0.03-0.14-0.03-0.21c0-0.07,0.01-0.15,0.04-0.25c0.03-0.1,0.05-0.18,0.07-0.23c0.02-0.06,0.05-0.14,0.1-0.25
		c0.05-0.11,0.07-0.17,0.07-0.19c0.23-0.67,0.42-1.25,0.57-1.76c0.08-0.27,0.06-0.52-0.04-0.75c-0.1-0.23-0.28-0.36-0.53-0.4
		c-0.44-0.06-0.77,0.22-1,0.83c-0.15,0.41-0.27,0.72-0.34,0.92c-0.08,0.2-0.2,0.44-0.36,0.73c-0.16,0.29-0.36,0.56-0.59,0.81
		c-0.32,0.37-0.7,0.69-1.11,0.94c-0.42,0.26-0.9,0.46-1.46,0.61c-0.55,0.15-1,0.26-1.36,0.33c-0.35,0.07-0.85,0.15-1.5,0.25
		c-0.13,0.01-0.24,0.03-0.31,0.06c-0.04,0-0.27,0.03-0.7,0.08c-0.43,0.05-0.74,0.1-0.93,0.15c-0.42,0.08-0.69,0.26-0.8,0.56
		c-0.11,0.3-0.07,0.56,0.14,0.79C91.62,731.09,91.91,731.17,92.29,731.1z"/>
	<path class="st1" d="M109.4,733.06c-0.1-0.03-0.19-0.16-0.29-0.4c-0.09-0.24-0.28-0.52-0.56-0.85c-0.28-0.33-0.68-0.58-1.21-0.77
		c-0.61-0.21-1.19-0.21-1.76,0c-0.56,0.21-1.07,0.53-1.53,0.95c-0.46,0.42-0.88,0.94-1.26,1.55c-0.38,0.61-0.7,1.21-0.96,1.78
		c-0.26,0.58-0.46,1.13-0.61,1.65c-0.1,0.41-0.16,0.82-0.19,1.24c-0.03,0.42-0.02,0.86,0.03,1.31c0.05,0.45,0.2,0.81,0.47,1.09
		c0.27,0.27,0.63,0.4,1.09,0.38c0.55,0.01,1.16-0.08,1.83-0.27c0.67-0.19,1.25-0.43,1.74-0.72l0.23-0.13
		c0.76-0.45,1.37-1.03,1.83-1.76c0.53-0.68,0.91-1.56,1.14-2.64c0-0.3,0.05-0.52,0.14-0.64c0.09-0.12,0.29-0.2,0.57-0.22
		c2.06-0.18,3.48-0.65,4.26-1.4v-0.11l0.11-0.01c0.17-0.24,0.2-0.5,0.1-0.78s-0.3-0.43-0.59-0.46c-0.09-0.01-0.43,0.12-1,0.4
		s-1.15,0.52-1.73,0.72C110.69,733.15,110.07,733.19,109.4,733.06z M105.23,736.55c-0.32,0.57-0.63,1.07-0.91,1.49
		s-0.58,0.77-0.89,1.05c-0.29,0.25-0.49,0.36-0.61,0.31c-0.12-0.05-0.19-0.24-0.19-0.58c0-0.86,0.23-1.85,0.7-2.97
		c0.47-1.13,1-2,1.59-2.62c0.42-0.42,0.86-0.65,1.31-0.69c0.46-0.04,0.87,0.15,1.23,0.58c0.13,0.12,0.2,0.21,0.21,0.27
		c0.01,0.06-0.06,0.16-0.21,0.3c-0.06,0.04-0.16,0.13-0.31,0.27c-0.15,0.14-0.25,0.23-0.29,0.27c-0.04,0.04-0.11,0.12-0.23,0.22
		c-0.11,0.11-0.2,0.19-0.24,0.26c-0.05,0.07-0.12,0.16-0.2,0.26c-0.09,0.1-0.17,0.21-0.24,0.33
		C105.79,735.56,105.55,735.98,105.23,736.55z M107.6,736.3c-0.44,0.95-0.9,1.57-1.4,1.87c-0.12,0.05-0.09-0.11,0.08-0.46
		c0.36-0.7,0.64-1.15,0.83-1.36c0.3-0.45,0.5-0.69,0.6-0.74C107.87,735.55,107.83,735.78,107.6,736.3z"/>
	<path class="st1" d="M115.78,742.2c0.09,0.08,0.2,0.14,0.33,0.19c0.21,0.04,0.4,0.01,0.57-0.09c0.17-0.1,0.29-0.21,0.37-0.33
		c0.08-0.12,0.17-0.3,0.29-0.54c0.36-0.79,0.89-1.93,1.57-3.41c0.68-1.48,1.18-2.54,1.49-3.17c0.78-1.71,1.2-2.58,1.26-2.62
		c0.02,0,0.03,0.02,0.04,0.05c0.01,0.04,0.01,0.1,0,0.19c-0.01,0.09-0.01,0.16-0.01,0.23s-0.01,0.17-0.03,0.3
		c-0.29,3.01,0.17,4.56,1.37,4.62c0.21,0,0.43-0.04,0.66-0.13c0.23-0.09,0.46-0.23,0.69-0.45c0.23-0.21,0.45-0.42,0.66-0.64
		c0.21-0.22,0.43-0.49,0.66-0.83c0.23-0.33,0.43-0.63,0.6-0.88s0.37-0.57,0.59-0.95c0.22-0.38,0.38-0.67,0.5-0.87
		c0.11-0.2,0.26-0.48,0.44-0.82c0.18-0.35,0.29-0.56,0.33-0.64c0.02-0.04,0.18-0.33,0.47-0.86c0.29-0.53,0.5-0.9,0.6-1.11
		c0.1-0.21,0.31-0.59,0.61-1.14c0.3-0.55,0.55-0.97,0.73-1.26c0.18-0.29,0.42-0.67,0.7-1.15c0.29-0.47,0.53-0.86,0.73-1.15
		c0.2-0.29,0.41-0.6,0.64-0.91c0.23-0.31,0.43-0.57,0.6-0.75c0.25-0.25,0.44-0.4,0.57-0.45c0.38-0.13,0.43,0.42,0.14,1.64
		c-0.09,0.39-0.21,0.8-0.36,1.25c-0.14,0.44-0.27,0.84-0.39,1.19c-0.11,0.35-0.27,0.79-0.47,1.33c-0.2,0.53-0.36,0.94-0.47,1.21
		c-0.11,0.28-0.29,0.71-0.51,1.29c-0.23,0.58-0.38,0.97-0.46,1.17c-1.35,3.36-2.19,5.79-2.51,7.3c0,0.02-0.01,0.05-0.03,0.09
		c-0.3,1.36-0.17,2.09,0.4,2.19c0.29,0.07,0.51,0.01,0.69-0.17c0.17-0.19,0.28-0.43,0.31-0.74c0.09-0.77,0.22-1.43,0.37-1.97
		c0.17-0.62,0.4-1.35,0.69-2.17s0.51-1.45,0.67-1.87c0.16-0.42,0.47-1.2,0.92-2.32c0.45-1.12,0.7-1.76,0.76-1.89
		c0.04-0.1,0.09-0.24,0.17-0.41c1.41-3.51,2.1-5.89,2.08-7.12c-0.02-0.67-0.22-1.14-0.6-1.42c-0.38-0.28-0.89-0.33-1.51-0.14
		c-1.43,0.47-3.34,2.97-5.74,7.5c-0.19,0.34-0.46,0.85-0.81,1.54c-0.35,0.69-0.64,1.25-0.87,1.69c-0.23,0.44-0.51,0.95-0.84,1.53
		c-0.33,0.58-0.65,1.1-0.96,1.54c-0.46,0.69-0.82,1.07-1.09,1.15c-0.59,0.2-0.62-1.14-0.08-4.02c0.34-1.76,0.83-3.73,1.46-5.9
		c0.02-0.1,0.07-0.27,0.16-0.51c0.08-0.25,0.16-0.47,0.21-0.68c0.06-0.2,0.09-0.37,0.11-0.48c0.06-0.37-0.04-0.63-0.3-0.8
		c-0.26-0.17-0.53-0.16-0.81,0.01c-0.1,0.07-0.2,0.17-0.3,0.33c-0.11,0.15-0.19,0.28-0.24,0.39c-0.06,0.11-0.14,0.28-0.24,0.52
		c-0.11,0.24-0.16,0.37-0.16,0.39c-0.44,0.95-2.03,4.38-4.77,10.27c-1.29,2.76-2.02,4.31-2.17,4.65c-0.04,0.04-0.1,0.14-0.19,0.3
		s-0.15,0.28-0.19,0.37c-0.04,0.09-0.09,0.21-0.14,0.37c-0.06,0.16-0.09,0.28-0.1,0.38c-0.01,0.1,0,0.21,0.01,0.33
		C115.65,742.02,115.7,742.12,115.78,742.2z"/>
	<path class="st1" d="M134.79,732.01c-0.59,0.83-1.05,1.64-1.37,2.43c-0.15,0.38-0.27,0.76-0.34,1.14s-0.1,0.78-0.08,1.16
		c0.02,0.39,0.15,0.71,0.4,0.95c0.25,0.25,0.6,0.36,1.06,0.34c0.67,0,1.38-0.15,2.13-0.46c0.75-0.3,1.42-0.69,2.01-1.16
		c0.55-0.58,0.87-0.88,0.94-0.88c0.08,0.07,0.11,0.22,0.11,0.45c0.11,0.73,0.34,1.21,0.69,1.43c0.57,0.39,1.45,0.31,2.63-0.23
		c0.27-0.1,0.54-0.23,0.81-0.4c0.28-0.17,0.53-0.33,0.76-0.49c0.23-0.16,0.49-0.38,0.77-0.64c0.29-0.26,0.52-0.48,0.7-0.66
		c0.18-0.18,0.42-0.43,0.71-0.76c0.29-0.33,0.51-0.57,0.66-0.73c0.09-0.09,0.21-0.24,0.36-0.42c-0.11,0.37-0.22,0.73-0.34,1.11
		c-0.38,1.25-0.57,1.89-0.57,1.91c-0.08,0.25-0.06,0.48,0.06,0.67c0.11,0.19,0.29,0.29,0.54,0.31c0.17,0.02,0.32,0,0.46-0.08
		c0.13-0.08,0.25-0.22,0.36-0.42c0.1-0.2,0.18-0.35,0.21-0.45s0.09-0.29,0.16-0.57c0.07-0.28,0.11-0.42,0.13-0.43
		c0.09-0.41,0.18-0.63,0.24-0.68c0.07-0.04,0.21,0.08,0.44,0.36c0.27,0.38,0.5,0.68,0.71,0.92s0.5,0.47,0.87,0.68
		c0.37,0.22,0.74,0.31,1.1,0.28c0.59-0.05,1.19-0.23,1.81-0.53c0.62-0.3,1.16-0.64,1.63-1.01c0.27-0.22,0.57-0.49,0.87-0.8
		c0,0.01,0,0.01,0,0.02c-0.04,0.56,0.1,1,0.43,1.35c0.32,0.34,0.84,0.48,1.54,0.42c2.17-0.13,4.77-1.04,7.8-2.73
		c3.03-1.68,5.42-3.47,7.17-5.35c0.42-0.63,0.46-1.1,0.11-1.41c-0.44-0.3-0.94-0.15-1.51,0.48c-1.08,1.31-2.85,2.72-5.28,4.2
		c-2.84,1.73-5.12,2.77-6.85,3.11c-1.14,0.21-1.66-0.03-1.54-0.72c0.06-0.48,0.18-0.81,0.36-0.97c0.18-0.17,0.52-0.3,1.01-0.4
		c0.57-0.09,1.17-0.24,1.79-0.46c0.62-0.22,1.24-0.49,1.86-0.83c0.62-0.34,1.15-0.77,1.59-1.28c0.44-0.51,0.69-1.06,0.77-1.64
		c0.12-0.81-0.04-1.41-0.46-1.79c-0.42-0.38-1.04-0.48-1.86-0.29c-1.14,0.3-2.22,0.89-3.23,1.76c-0.03,0.01-0.06,0.01-0.09,0.02
		c-0.06,0.02-0.1,0.04-0.14,0.06c-0.04,0.01-0.08,0.04-0.13,0.08c-0.05,0.04-0.08,0.07-0.1,0.09c-0.02,0.02-0.06,0.07-0.11,0.14
		c-0.06,0.07-0.1,0.12-0.11,0.14c-0.21,0.26-0.51,0.63-0.89,1.09c-0.01,0.01-0.02,0.03-0.03,0.04c-0.18,0.23-0.38,0.47-0.61,0.75
		c-0.7,0.86-1.23,1.52-1.61,1.97c-0.36,0.41-0.68,0.76-0.96,1.06c-0.28,0.29-0.61,0.61-1,0.96c-0.39,0.35-0.75,0.58-1.08,0.71
		c-0.33,0.12-0.68,0.2-1.03,0.22c-0.35,0.02-0.7-0.11-1.03-0.4c-0.33-0.28-0.63-0.7-0.9-1.25c-0.21-0.4-0.28-0.71-0.21-0.92
		c0.07-0.21,0.32-0.42,0.76-0.61c0.65-0.3,1.27-0.61,1.86-0.91l1.97-0.97l0.12-0.07c0.4-0.26,0.54-0.58,0.43-0.97
		c-0.11-0.38-0.37-0.55-0.77-0.52c-0.25,0.02-1.41,0.58-3.48,1.68c-0.15,0.09-0.25,0.15-0.3,0.17c-0.05,0.02-0.11,0.06-0.2,0.1
		c-0.09,0.05-0.15,0.07-0.19,0.07c-0.04,0-0.07,0.01-0.08,0.01c-0.02-0.06,0.76-2.63,2.34-7.72c0.06-0.18,0.17-0.51,0.33-1
		s0.28-0.86,0.36-1.12c0.25-0.86,0.05-1.32-0.6-1.38c-0.19,0-0.35,0.05-0.49,0.16c-0.13,0.11-0.23,0.22-0.29,0.34
		c-0.06,0.12-0.11,0.28-0.17,0.47c-0.36,1.17-1.26,4.09-2.69,8.77c-0.05,0.04-0.12,0.1-0.23,0.19c-0.13,0.12-0.21,0.19-0.23,0.21
		c-0.23,0.27-0.63,0.77-1.2,1.49c-0.57,0.73-1.02,1.29-1.36,1.7c-0.33,0.41-0.76,0.89-1.29,1.43c-0.52,0.54-1.01,0.99-1.47,1.36
		c-0.99,0.73-1.59,0.91-1.8,0.53c-0.15-0.31-0.02-1.27,0.4-2.89c0.4-1.58,0.49-2.48,0.26-2.71c-0.4-0.46-0.89-0.26-1.48,0.59
		c-0.1,0.18-0.24,0.46-0.44,0.85c-0.2,0.39-0.34,0.67-0.43,0.84c-0.09,0.17-0.23,0.4-0.43,0.69c-0.2,0.29-0.42,0.58-0.67,0.87
		c-0.74,0.94-1.66,1.64-2.74,2.1c-0.5,0.18-0.83,0.19-1.01,0.05c-0.18-0.15-0.22-0.4-0.12-0.78c0.11-0.37,0.22-0.7,0.34-0.99
		c0.12-0.29,0.27-0.59,0.44-0.91c0.61-1.02,1.37-1.95,2.27-2.77s1.83-1.27,2.79-1.36c0.27-0.04,0.49-0.05,0.66-0.03
		c0.17,0.02,0.37,0.08,0.58,0.16s0.41,0.15,0.59,0.19c0.46,0.09,0.72-0.05,0.8-0.44c0.06-0.37-0.04-0.68-0.3-0.94
		c-0.26-0.26-0.58-0.44-0.96-0.54c-0.88-0.19-1.75-0.12-2.61,0.21c-0.87,0.33-1.69,0.85-2.47,1.54
		C136.07,730.41,135.38,731.17,134.79,732.01z M164.14,727.72c0.14,0.18,0.07,0.48-0.21,0.9c-0.29,0.42-0.69,0.82-1.2,1.19
		c-0.51,0.37-1.04,0.63-1.57,0.79c-0.27,0.16-0.61,0.26-1.03,0.32c-0.46,0.06-0.54-0.09-0.26-0.43c0-0.06,0.02-0.11,0.07-0.16
		s0.11-0.08,0.19-0.09c0.99-1.23,2.02-2.05,3.08-2.47C163.69,727.56,164,727.55,164.14,727.72z"/>
	<path class="st1" d="M72.04,765.27c-0.09-0.07-0.2-0.11-0.3-0.13c-0.1-0.02-0.2-0.02-0.27,0s-0.17,0.06-0.29,0.14
		s-0.2,0.13-0.24,0.16c-0.05,0.03-0.14,0.11-0.27,0.22c-0.13,0.12-0.21,0.19-0.23,0.21c-0.23,0.27-0.63,0.76-1.2,1.49
		c-0.57,0.73-1.02,1.29-1.36,1.7c-0.33,0.41-0.76,0.89-1.29,1.43c-0.52,0.54-1.01,0.99-1.47,1.36c-0.99,0.73-1.59,0.91-1.8,0.53
		c-0.15-0.31-0.02-1.27,0.4-2.89c0.4-1.58,0.49-2.48,0.26-2.71c-0.4-0.46-0.9-0.26-1.48,0.59c-0.1,0.18-0.24,0.46-0.44,0.85
		c-0.2,0.39-0.34,0.67-0.43,0.84c-0.09,0.17-0.23,0.4-0.43,0.69c-0.2,0.29-0.42,0.58-0.67,0.87c-0.74,0.94-1.66,1.64-2.74,2.1
		c-0.5,0.18-0.83,0.19-1.01,0.05c-0.18-0.15-0.22-0.4-0.12-0.78c0.11-0.37,0.22-0.7,0.34-0.99c0.12-0.29,0.27-0.59,0.44-0.91
		c0.61-1.02,1.37-1.95,2.27-2.77s1.83-1.27,2.79-1.36c0.27-0.04,0.49-0.05,0.66-0.03c0.17,0.02,0.37,0.08,0.59,0.16
		c0.22,0.09,0.41,0.15,0.58,0.19c0.46,0.09,0.72-0.05,0.8-0.44c0.06-0.37-0.04-0.68-0.3-0.94c-0.26-0.26-0.58-0.44-0.96-0.54
		c-0.88-0.19-1.75-0.12-2.61,0.21c-0.87,0.33-1.69,0.85-2.47,1.54c-0.78,0.7-1.47,1.46-2.06,2.29c-0.59,0.83-1.05,1.64-1.37,2.43
		c-0.15,0.38-0.27,0.76-0.34,1.14c-0.08,0.39-0.11,0.78-0.09,1.16c0.02,0.39,0.15,0.71,0.4,0.95c0.25,0.25,0.6,0.36,1.06,0.34
		c0.67,0,1.38-0.15,2.13-0.46c0.75-0.3,1.42-0.69,2.01-1.16c0.55-0.58,0.87-0.88,0.94-0.88c0.08,0.07,0.11,0.22,0.11,0.45
		c0.11,0.73,0.34,1.21,0.69,1.43c0.57,0.39,1.45,0.31,2.63-0.23c0.27-0.1,0.54-0.23,0.81-0.4c0.28-0.17,0.53-0.33,0.76-0.5
		c0.23-0.16,0.49-0.38,0.77-0.64c0.29-0.26,0.52-0.48,0.7-0.66c0.18-0.18,0.42-0.43,0.71-0.76s0.51-0.57,0.66-0.73
		c0.14-0.16,0.37-0.42,0.67-0.8s0.5-0.63,0.6-0.75c0.09-0.12,0.29-0.38,0.59-0.77c0.29-0.39,0.47-0.61,0.53-0.67
		c0.02-0.02,0.07-0.09,0.16-0.21c0.09-0.12,0.14-0.2,0.17-0.24c0.03-0.04,0.07-0.12,0.13-0.23c0.06-0.11,0.09-0.19,0.1-0.25
		s0.02-0.13,0.03-0.23c0.01-0.1-0.01-0.18-0.06-0.25C72.18,765.41,72.11,765.34,72.04,765.27z"/>
	<path class="st1" d="M118.27,759.21c0.07-0.24,0.11-0.4,0.13-0.47c0.02-0.07,0.06-0.18,0.13-0.34s0.13-0.26,0.2-0.3
		c0.07-0.04,0.16-0.1,0.29-0.18c0.12-0.08,0.27-0.14,0.43-0.18c0.16-0.04,0.36-0.07,0.59-0.09c0.76-0.1,1.86-0.26,3.3-0.46
		c1.44-0.2,2.48-0.34,3.13-0.42c0.02-0.02,0.12-0.04,0.3-0.05c0.18-0.02,0.31-0.03,0.4-0.05c0.08-0.02,0.21-0.04,0.37-0.07
		s0.29-0.07,0.39-0.12c0.09-0.05,0.19-0.11,0.29-0.18c0.09-0.08,0.17-0.16,0.21-0.26c0.05-0.1,0.06-0.21,0.04-0.35
		c-0.04-0.53-0.46-0.74-1.26-0.63c-0.02,0-1.87,0.27-5.54,0.8c-0.11,0.01-0.3,0.04-0.54,0.09c-0.25,0.05-0.48,0.09-0.69,0.12
		s-0.39,0.05-0.54,0.06l-0.11-0.02c-0.1-0.01-0.17-0.03-0.23-0.07c-0.06-0.03-0.09-0.09-0.11-0.16c-0.02-0.07-0.03-0.15-0.03-0.21
		c0-0.07,0.01-0.15,0.04-0.25c0.03-0.1,0.05-0.18,0.07-0.23c0.02-0.06,0.05-0.14,0.1-0.25c0.05-0.11,0.07-0.17,0.07-0.19
		c0.23-0.67,0.42-1.25,0.57-1.76c0.08-0.27,0.06-0.52-0.04-0.75c-0.11-0.23-0.28-0.36-0.53-0.4c-0.44-0.06-0.77,0.22-1,0.83
		c-0.15,0.41-0.27,0.72-0.34,0.92c-0.08,0.2-0.2,0.44-0.36,0.73c-0.16,0.29-0.36,0.56-0.59,0.81c-0.32,0.37-0.7,0.69-1.11,0.94
		c-0.42,0.26-0.9,0.46-1.46,0.61c-0.55,0.15-1,0.26-1.36,0.33c-0.35,0.07-0.85,0.15-1.5,0.25c-0.13,0.01-0.24,0.03-0.31,0.06
		c-0.04,0-0.27,0.03-0.7,0.08c-0.17,0.02-0.3,0.04-0.44,0.06c0.01-0.06,0.03-0.11,0.02-0.18c-0.04-0.53-0.46-0.74-1.26-0.63
		c-0.02,0-1.87,0.27-5.54,0.8c-0.11,0.01-0.3,0.04-0.54,0.09c-0.25,0.05-0.48,0.09-0.69,0.12s-0.39,0.05-0.54,0.06l-0.11-0.02
		c-0.1-0.01-0.17-0.03-0.23-0.07c-0.06-0.03-0.1-0.09-0.11-0.16c-0.02-0.07-0.03-0.15-0.03-0.21c0-0.07,0.01-0.15,0.04-0.25
		c0.03-0.1,0.05-0.18,0.07-0.23c0.02-0.06,0.05-0.14,0.1-0.25c0.05-0.11,0.07-0.17,0.07-0.19c0.23-0.67,0.42-1.25,0.57-1.76
		c0.08-0.27,0.06-0.52-0.04-0.75c-0.11-0.23-0.28-0.36-0.53-0.4c-0.44-0.06-0.77,0.22-1,0.83c-0.15,0.41-0.27,0.72-0.34,0.92
		c-0.08,0.2-0.2,0.44-0.36,0.73c-0.16,0.29-0.36,0.56-0.59,0.81c-0.32,0.37-0.7,0.69-1.11,0.94c-0.42,0.26-0.9,0.46-1.46,0.61
		c-0.55,0.15-1,0.26-1.36,0.33c-0.35,0.07-0.85,0.15-1.5,0.25c-0.13,0.01-0.24,0.03-0.31,0.06c-0.04,0-0.27,0.03-0.7,0.08
		c-0.43,0.05-0.74,0.1-0.93,0.15c-0.09,0.02-0.18,0.04-0.25,0.07c0.2-0.34,0.4-0.71,0.61-1.13c0.22-0.44,0.36-0.84,0.43-1.19
		c0.07-0.36,0.1-0.7,0.1-1.02c0-0.32-0.1-0.59-0.31-0.81c-0.21-0.22-0.51-0.38-0.91-0.48c-0.88-0.19-2-0.04-3.36,0.46
		s-2.7,1.19-4.03,2.08c-1.32,0.89-2.56,1.8-3.7,2.75c-1.14,0.95-2.05,1.8-2.71,2.57c-0.48,0.56-0.85,1.09-1.11,1.61
		c-0.27,0.52-0.42,1.02-0.47,1.51s0.12,0.91,0.5,1.26c0.38,0.35,0.97,0.58,1.77,0.7c0.23,0.04,0.69,0.1,1.37,0.19
		c0.68,0.09,1.18,0.17,1.5,0.23c0.31,0.06,0.74,0.15,1.27,0.27c0.53,0.12,1.01,0.27,1.43,0.43c0.42,0.16,0.84,0.36,1.26,0.59
		c0.55,0.33,0.89,0.68,1.01,1.04c0.12,0.36,0.05,0.71-0.21,1.03c-0.27,0.33-0.6,0.62-0.99,0.87c-0.39,0.25-0.82,0.48-1.3,0.67
		c-0.86,0.36-1.77,0.6-2.74,0.73s-1.94,0.06-2.91-0.2s-1.7-0.74-2.17-1.44c-0.04-0.07-0.14-0.3-0.31-0.67
		c-0.17-0.38-0.35-0.65-0.53-0.84c-0.18-0.18-0.39-0.25-0.61-0.19c-0.36,0.07-0.57,0.28-0.63,0.64c-0.06,0.36-0.02,0.66,0.11,0.92
		c0.36,0.92,0.93,1.66,1.7,2.22s1.64,0.91,2.6,1.06c0.96,0.14,1.95,0.16,2.96,0.04c1.01-0.12,1.97-0.36,2.88-0.72
		c0.48-0.19,0.94-0.43,1.4-0.71c0.46-0.28,0.9-0.6,1.33-0.97c0.43-0.37,0.74-0.8,0.94-1.28c0.2-0.48,0.24-0.98,0.13-1.48
		c-0.11-0.47-0.37-0.9-0.76-1.29c-0.39-0.39-0.8-0.71-1.24-0.93c-0.44-0.23-0.98-0.44-1.63-0.64c-0.65-0.2-1.18-0.34-1.61-0.43
		c-0.43-0.09-0.93-0.18-1.5-0.28c-0.08-0.01-0.26-0.04-0.56-0.08c-0.29-0.04-0.56-0.08-0.8-0.12c-0.24-0.04-0.5-0.08-0.79-0.13
		c-0.29-0.05-0.53-0.11-0.73-0.18c-0.2-0.07-0.33-0.15-0.39-0.24c-0.19-0.19-0.18-0.5,0.04-0.92c0.22-0.42,0.56-0.88,1.03-1.38
		c0.47-0.5,0.87-0.9,1.2-1.22c0.33-0.31,0.63-0.59,0.9-0.82l0.06-0.06l0.14-0.13c1.01-0.85,2.09-1.66,3.23-2.42
		c0.99-0.64,2.08-1.25,3.29-1.83c1.2-0.58,2.11-0.81,2.74-0.7c0.23,0.04,0.37,0.15,0.43,0.33c0.06,0.19,0.04,0.42-0.06,0.7
		c-0.1,0.28-0.22,0.58-0.37,0.88c-0.15,0.3-0.33,0.61-0.54,0.92c-0.21,0.31-0.39,0.57-0.53,0.77c-0.14,0.2-0.26,0.38-0.36,0.52
		c-0.02,0.02-0.13,0.15-0.34,0.39c-0.21,0.24-0.36,0.42-0.44,0.55c-0.09,0.13-0.19,0.31-0.31,0.54c-0.12,0.23-0.18,0.42-0.16,0.58
		c0.02,0.16,0.11,0.3,0.26,0.42c0.42,0.33,0.93,0.1,1.54-0.68c0.19-0.25,0.37-0.48,0.53-0.7c0.16-0.22,0.39-0.54,0.67-0.96
		c0.07-0.1,0.12-0.19,0.19-0.28c0.03,0.12,0.09,0.24,0.19,0.35c0.21,0.23,0.5,0.31,0.89,0.24c0.55-0.11,1.33-0.23,2.33-0.36
		c1-0.13,1.67-0.23,2.01-0.28c0.04-0.02,0.18-0.05,0.44-0.1c0.26-0.04,0.47-0.08,0.63-0.11c0.16-0.03,0.34-0.05,0.54-0.06
		c0.2-0.01,0.35,0.01,0.44,0.06c0.27,0.09,0.26,0.54-0.03,1.34c-0.27,0.69-0.55,1.53-0.86,2.53c-2,6.57-3.24,10.62-3.71,12.15
		c-0.38,1.25-0.58,1.93-0.6,2.02c-0.04,0.37,0.08,0.63,0.34,0.78c0.27,0.16,0.53,0.14,0.8-0.06c0.11-0.07,0.21-0.19,0.3-0.35
		c0.09-0.17,0.15-0.31,0.2-0.43c0.05-0.12,0.1-0.3,0.17-0.54c0.07-0.24,0.1-0.39,0.1-0.42c0.32-1.08,0.68-2.22,1.06-3.43
		c0.38-1.21,0.8-2.56,1.26-4.04c0.46-1.48,0.81-2.63,1.06-3.45c0.82-2.7,1.29-4.24,1.4-4.61c0.02-0.12,0.06-0.3,0.13-0.54
		c0.07-0.24,0.11-0.4,0.13-0.47c0.02-0.07,0.06-0.18,0.13-0.34s0.13-0.26,0.2-0.3c0.07-0.04,0.16-0.1,0.29-0.18
		c0.12-0.08,0.27-0.14,0.43-0.18c0.16-0.04,0.36-0.07,0.59-0.09c0.76-0.1,1.86-0.26,3.3-0.46c1.44-0.2,2.48-0.34,3.13-0.42
		c0.02-0.02,0.12-0.04,0.3-0.05c0.15-0.01,0.26-0.03,0.34-0.04c-0.04,0.23,0.02,0.44,0.19,0.62c0.21,0.23,0.5,0.31,0.89,0.24
		c0.55-0.11,1.33-0.23,2.33-0.36c1-0.13,1.67-0.23,2.01-0.28c0.04-0.02,0.18-0.05,0.44-0.1c0.26-0.04,0.47-0.08,0.63-0.11
		c0.16-0.03,0.34-0.05,0.54-0.06s0.35,0.01,0.44,0.06c0.27,0.09,0.26,0.54-0.03,1.34c-0.2,0.51-0.41,1.11-0.62,1.79
		c-0.08,0.05-0.15,0.1-0.19,0.13c-0.05,0.03-0.14,0.11-0.27,0.22c-0.13,0.12-0.21,0.19-0.23,0.21c-0.23,0.27-0.63,0.76-1.2,1.49
		c-0.57,0.73-1.02,1.29-1.36,1.7c-0.33,0.41-0.76,0.89-1.29,1.43c-0.52,0.54-1.01,0.99-1.47,1.36c-0.99,0.73-1.59,0.91-1.8,0.53
		c-0.15-0.31-0.02-1.27,0.4-2.89c0.4-1.58,0.49-2.48,0.26-2.71c-0.4-0.46-0.89-0.26-1.48,0.59c-0.1,0.18-0.24,0.46-0.44,0.85
		c-0.2,0.39-0.34,0.67-0.43,0.84c-0.08,0.17-0.23,0.4-0.43,0.69c-0.2,0.29-0.42,0.58-0.67,0.87c-0.74,0.94-1.66,1.64-2.74,2.1
		c-0.5,0.18-0.83,0.19-1.01,0.05c-0.18-0.15-0.22-0.4-0.11-0.78c0.1-0.37,0.22-0.7,0.34-0.99c0.12-0.29,0.27-0.59,0.44-0.91
		c0.61-1.02,1.37-1.95,2.27-2.77c0.9-0.82,1.83-1.27,2.79-1.36c0.27-0.04,0.49-0.05,0.66-0.03c0.17,0.02,0.37,0.08,0.59,0.16
		c0.22,0.09,0.41,0.15,0.59,0.19c0.46,0.09,0.72-0.05,0.8-0.44c0.06-0.37-0.04-0.68-0.3-0.95c-0.26-0.26-0.58-0.44-0.96-0.54
		c-0.88-0.19-1.75-0.12-2.61,0.21s-1.69,0.85-2.47,1.54c-0.78,0.7-1.47,1.46-2.06,2.29c-0.59,0.83-1.05,1.64-1.37,2.43
		c-0.15,0.38-0.27,0.76-0.34,1.14c-0.08,0.39-0.1,0.78-0.08,1.16c0.02,0.39,0.15,0.71,0.4,0.95c0.25,0.25,0.6,0.36,1.06,0.34
		c0.67,0,1.38-0.15,2.13-0.46c0.75-0.3,1.42-0.69,2.01-1.16c0.55-0.58,0.87-0.88,0.94-0.88c0.08,0.07,0.11,0.22,0.11,0.45
		c0.11,0.73,0.34,1.21,0.69,1.43c0.57,0.39,1.45,0.31,2.63-0.23c0.27-0.1,0.54-0.23,0.81-0.4c0.28-0.17,0.53-0.33,0.76-0.5
		c0.23-0.16,0.49-0.38,0.77-0.64c0.29-0.26,0.52-0.48,0.7-0.66c0.18-0.18,0.42-0.43,0.71-0.76c0.29-0.33,0.51-0.57,0.66-0.73
		c0.14-0.15,0.36-0.41,0.65-0.78c-1.46,4.78-2.39,7.82-2.78,9.09c-0.38,1.25-0.58,1.93-0.6,2.02c-0.04,0.37,0.08,0.63,0.34,0.78
		c0.27,0.16,0.53,0.14,0.8-0.06c0.11-0.07,0.21-0.19,0.3-0.35c0.09-0.17,0.15-0.31,0.2-0.43c0.05-0.12,0.1-0.3,0.17-0.54
		c0.07-0.24,0.1-0.39,0.1-0.42c0.32-1.08,0.68-2.22,1.06-3.43c0.38-1.21,0.8-2.56,1.26-4.04c0.46-1.48,0.81-2.63,1.06-3.45
		c0.82-2.7,1.29-4.23,1.4-4.61C118.16,759.63,118.2,759.45,118.27,759.21z"/>
	<path class="st1" d="M191.1,748c-0.02,0,0.1,0.1-3.58,0.63c-0.12,0.01-0.3,0.04-0.54,0.09c-0.25,0.05-0.48,0.09-0.69,0.12
		c-0.21,0.03-0.39,0.05-0.54,0.06l-0.11-0.02c-0.1-0.01-0.17-0.03-0.23-0.07c-0.06-0.03-0.1-0.09-0.11-0.16
		c-0.02-0.07-0.03-0.15-0.03-0.21c0-0.07,0.01-0.15,0.04-0.25c0.03-0.1,0.05-0.18,0.07-0.23c0.02-0.06,0.05-0.14,0.1-0.25
		c0.05-0.11,0.07-0.17,0.07-0.19c0.23-0.67,0.42-1.25,0.57-1.76c0.08-0.27,0.06-0.52-0.04-0.75c-0.1-0.23-0.28-0.36-0.53-0.4
		c-0.44-0.06-0.77,0.22-1,0.83c-0.15,0.41-0.27,0.72-0.34,0.92c-0.08,0.2-0.2,0.44-0.36,0.73c-0.16,0.29-0.36,0.56-0.59,0.81
		c-0.32,0.37-0.7,0.69-1.11,0.94c-0.42,0.26-0.91,0.46-1.46,0.61c-0.55,0.15-1,0.26-1.36,0.33c-0.35,0.07-0.85,0.15-1.5,0.25
		c-0.13,0.01-0.24,0.03-0.31,0.06c-0.04,0-0.27,0.03-0.7,0.08c-0.43,0.05-0.74,0.1-0.93,0.15c-0.42,0.08-0.69,0.26-0.8,0.56
		c-0.11,0.3-0.07,0.56,0.14,0.79c0.21,0.23,0.5,0.31,0.88,0.24c0.55-0.11,1.33-0.23,2.33-0.36c1-0.13,1.67-0.23,2.01-0.28
		c0.04-0.02,0.18-0.05,0.44-0.1c0.26-0.04,0.47-0.08,0.63-0.11c0.16-0.03,0.34-0.05,0.54-0.06c0.2-0.01,0.35,0.01,0.44,0.06
		c0.27,0.09,0.26,0.54-0.03,1.35c-0.27,0.69-0.55,1.53-0.86,2.53c-0.13,0.42-0.25,0.82-0.37,1.22c-0.01,0.01-0.02,0.02-0.03,0.03
		c-0.17,0.19-0.66,0.79-1.46,1.81s-1.48,1.84-2.04,2.46c-0.56,0.62-1.12,1.14-1.67,1.55l-0.11,0.1c-0.88,0.61-1.45,0.8-1.73,0.58
		c-0.28-0.22-0.32-0.82-0.13-1.79c0.04-0.19,0.17-0.68,0.4-1.46c0.23-0.78,0.4-1.46,0.53-2.03c0.12-0.57,0.14-1.14,0.04-1.7
		c-0.1-0.56-0.36-0.91-0.8-1.04c-0.67-0.19-1.43-0.06-2.28,0.4c-0.86,0.46-1.61,1.01-2.26,1.65c-0.09,0.08-0.31,0.33-0.66,0.74
		c-0.34,0.41-0.58,0.66-0.71,0.75c-0.13,0.06-0.15-0.11-0.08-0.47c0.08-0.18,0.13-0.35,0.13-0.5c0.03-0.1,0.05-0.19,0.09-0.31
		c0.04-0.08,0.1-0.21,0.17-0.4s0.13-0.33,0.16-0.43c0.03-0.1,0.05-0.22,0.06-0.36c0.01-0.14-0.02-0.26-0.08-0.36
		c-0.07-0.1-0.18-0.18-0.33-0.24c-0.59-0.25-1.04,0.1-1.34,1.06c-0.05,0.19-0.13,0.45-0.22,0.77c-0.08,0.07-0.15,0.12-0.23,0.21
		c-1.09,1.31-2.85,2.72-5.28,4.2c-2.84,1.73-5.12,2.77-6.85,3.11c-1.14,0.21-1.66-0.03-1.54-0.72c0.06-0.48,0.18-0.81,0.36-0.97
		c0.18-0.17,0.52-0.3,1.01-0.4c0.57-0.09,1.17-0.24,1.79-0.46c0.62-0.22,1.24-0.49,1.86-0.83s1.15-0.77,1.59-1.28
		c0.44-0.51,0.69-1.06,0.77-1.64c0.11-0.81-0.04-1.41-0.46-1.79c-0.42-0.38-1.04-0.48-1.86-0.29c-1.16,0.31-2.26,0.91-3.28,1.8
		c-0.29,0.14-0.61,0.42-0.97,0.86c-0.08,0.1-0.39,0.5-0.94,1.2s-1,1.25-1.36,1.68c-0.35,0.42-0.8,0.93-1.34,1.52
		s-1.05,1.05-1.51,1.39c-0.47,0.34-0.88,0.54-1.24,0.61c-0.38,0.07-0.61-0.12-0.69-0.58c-0.08-0.46,0-1.1,0.21-1.93
		c0.22-0.83,0.39-1.44,0.5-1.83c0.11-0.39,0.26-0.83,0.43-1.32c0.02-0.06,0.08-0.21,0.17-0.44s0.16-0.42,0.2-0.56
		c0.04-0.14,0.08-0.31,0.13-0.53s0.05-0.39,0-0.54c-0.05-0.15-0.13-0.27-0.24-0.38c-0.38-0.27-0.83-0.15-1.34,0.38
		c-0.44,0.44-2.05,2.01-4.83,4.71c-0.51,0.48-0.83,0.74-0.94,0.77c-0.17,0.05-0.15-0.19,0.06-0.72c0.06-0.16,0.16-0.41,0.31-0.77
		c0.15-0.36,0.26-0.61,0.31-0.77c0.06-0.16,0.12-0.38,0.19-0.67c0.07-0.29,0.1-0.59,0.1-0.89c-0.02-1.01-0.45-1.53-1.29-1.57
		c-0.76-0.03-1.54,0.19-2.33,0.66c-0.79,0.47-1.52,1.06-2.19,1.76c-0.74,0.83-1.13,1.24-1.17,1.25c-0.12,0.05,0.02-0.44,0.4-1.46
		c0.06-0.1,0.09-0.16,0.09-0.18c0.25-0.82,0.14-1.31-0.31-1.46c-0.55-0.16-0.98,0.22-1.29,1.14c-0.06,0.18-0.09,0.3-0.11,0.38
		c-0.02,0.07-0.04,0.15-0.06,0.23c-0.1,0.08-0.2,0.17-0.31,0.28c-1.08,1.31-2.85,2.72-5.28,4.2c-2.84,1.73-5.12,2.77-6.85,3.11
		c-1.14,0.21-1.66-0.03-1.54-0.72c0.06-0.48,0.18-0.81,0.36-0.97c0.18-0.17,0.52-0.3,1.01-0.4c0.57-0.09,1.17-0.24,1.79-0.46
		c0.62-0.22,1.24-0.49,1.86-0.83c0.62-0.34,1.15-0.77,1.59-1.28c0.44-0.51,0.69-1.06,0.77-1.64c0.12-0.81-0.04-1.41-0.46-1.79
		c-0.42-0.38-1.04-0.48-1.86-0.29c-1.2,0.31-2.33,0.94-3.38,1.88c-1.06,0.94-1.92,2.02-2.58,3.24c-0.27,0.48-0.48,0.99-0.64,1.54
		c-0.16,0.55-0.26,1.1-0.3,1.65c-0.04,0.56,0.1,1.01,0.43,1.35c0.32,0.34,0.84,0.48,1.54,0.42c2.17-0.13,4.77-1.04,7.8-2.72
		c1.98-1.1,3.68-2.25,5.12-3.44c-0.27,0.89-0.57,1.85-0.89,2.88c0,0.02-0.04,0.15-0.13,0.4c-0.09,0.25-0.14,0.42-0.16,0.51
		c-0.02,0.1-0.04,0.24-0.07,0.43c-0.03,0.19-0.01,0.34,0.06,0.45s0.17,0.21,0.3,0.29c0.48,0.26,0.99-0.12,1.54-1.14
		c0.04-0.1,0.12-0.26,0.23-0.48c0.42-0.78,0.75-1.38,0.99-1.8c0.24-0.42,0.57-0.95,0.99-1.6c0.42-0.65,0.85-1.21,1.29-1.7
		c0.44-0.49,0.91-0.91,1.43-1.28c0.27-0.19,0.63-0.4,1.09-0.62c0.46-0.22,0.76-0.29,0.91-0.21c0.19,0.25,0.02,0.98-0.51,2.19
		c-0.09,0.24-0.27,0.6-0.51,1.1c-0.25,0.5-0.47,0.96-0.66,1.37c-0.19,0.42-0.31,0.76-0.37,1.03c-0.11,0.56,0,0.92,0.34,1.07
		s0.74,0.09,1.2-0.18c1.31-0.69,3.04-2.15,5.17-4.39c0.21-0.21,0.38-0.35,0.5-0.42c0.12-0.07,0.2-0.06,0.23,0.02
		c0.03,0.08,0.04,0.2,0.03,0.34c-0.01,0.14-0.04,0.33-0.1,0.57c-0.09,0.31-0.16,0.54-0.19,0.67c-0.03,0.14-0.08,0.38-0.16,0.74
		c-0.08,0.36-0.12,0.64-0.13,0.85s-0.02,0.47-0.04,0.79c-0.02,0.32,0.01,0.57,0.09,0.76c0.08,0.19,0.17,0.38,0.29,0.57
		c0.12,0.19,0.28,0.33,0.5,0.43s0.48,0.14,0.79,0.13c0.34-0.01,0.69-0.06,1.03-0.15c0.34-0.09,0.7-0.24,1.06-0.46
		c0.36-0.22,0.69-0.43,0.99-0.61c0.29-0.19,0.63-0.47,1-0.84c0.11-0.11,0.21-0.21,0.31-0.31c0,0.02-0.01,0.04-0.01,0.05
		c-0.04,0.56,0.1,1,0.43,1.35c0.32,0.34,0.84,0.48,1.54,0.42c2.17-0.13,4.77-1.04,7.8-2.72c1.94-1.08,3.61-2.2,5.03-3.36
		c-0.09,0.29-0.18,0.57-0.26,0.82c-0.02,0.08-0.15,0.51-0.4,1.31c-0.25,0.79-0.43,1.39-0.54,1.78c-0.08,0.27-0.06,0.51,0.04,0.72
		c0.1,0.21,0.29,0.31,0.56,0.31c0.5-0.01,0.9-0.36,1.2-1.08c0.99-2.3,2.19-4.19,3.6-5.68c0.34-0.39,0.78-0.78,1.31-1.17
		c1.47-1.1,2.16-1.09,2.08,0.02c-0.02,0.48-0.19,1.23-0.5,2.24c-0.31,1.02-0.5,1.74-0.56,2.16c-0.15,1-0.06,1.76,0.29,2.27
		c0.34,0.51,1.01,0.67,2,0.47c0.36-0.09,0.73-0.23,1.11-0.43c0.38-0.19,0.72-0.39,1.03-0.58c0.3-0.19,0.66-0.47,1.06-0.85
		c0.4-0.38,0.71-0.67,0.93-0.88c0.22-0.21,0.54-0.57,0.96-1.07c0.07-0.08,0.12-0.15,0.18-0.22c-1.07,3.5-1.77,5.78-2.1,6.84
		c-0.38,1.25-0.58,1.93-0.6,2.02c-0.04,0.37,0.08,0.63,0.34,0.78c0.27,0.16,0.53,0.14,0.8-0.06c0.12-0.07,0.21-0.19,0.3-0.35
		c0.08-0.17,0.15-0.31,0.2-0.43c0.05-0.12,0.11-0.3,0.17-0.54c0.07-0.24,0.1-0.39,0.1-0.42c0.32-1.08,0.68-2.22,1.06-3.43
		c0.38-1.21,0.8-2.56,1.26-4.04c0.46-1.48,0.81-2.63,1.06-3.45c0.04-0.15,0.08-0.28,0.13-0.41c0.01-0.01,0.01-0.01,0.02-0.03
		c0.08-0.11,0.13-0.21,0.17-0.29c0.04-0.08,0.07-0.17,0.08-0.28c0.02-0.1,0.01-0.19-0.01-0.27c0.58-1.91,0.92-3.03,1.01-3.34
		c0.02-0.12,0.06-0.3,0.13-0.54c0.07-0.24,0.11-0.4,0.13-0.47c0.02-0.07,0.06-0.18,0.13-0.34c0.07-0.16,0.13-0.26,0.2-0.3
		c0.07-0.04,0.16-0.1,0.29-0.18c0.12-0.08,0.27-0.14,0.43-0.18c0.16-0.04,0.36-0.07,0.59-0.09c0.76-0.1,1.86-0.26,3.3-0.46
		c1.44-0.2,0.52-0.18,1.16-0.25c0.02-0.02,0.12-0.04,0.3-0.05c0.18-0.02,0.31-0.03,0.4-0.05s0.21-0.04,0.37-0.08
		c0.16-0.03,0.29-0.07,0.38-0.12c0.1-0.05,0.19-0.11,0.29-0.18c0.09-0.07,0.17-0.16,0.21-0.26c0.05-0.1,0.06-0.21,0.04-0.35
		C192.31,748.11,191.9,747.89,191.1,748z M121.31,763.44c0-0.06,0.02-0.11,0.07-0.16c0.05-0.05,0.11-0.08,0.19-0.09
		c0.99-1.23,2.02-2.05,3.08-2.47c0.48-0.21,0.79-0.23,0.93-0.05c0.14,0.18,0.07,0.48-0.21,0.9c-0.29,0.42-0.69,0.82-1.2,1.19
		c-0.51,0.37-1.04,0.63-1.57,0.79c-0.27,0.16-0.61,0.26-1.03,0.32C121.11,763.94,121.02,763.79,121.31,763.44z M158.86,757.76
		c0.14,0.18,0.07,0.48-0.21,0.9c-0.29,0.42-0.69,0.82-1.2,1.19c-0.51,0.37-1.04,0.63-1.57,0.79c-0.27,0.16-0.61,0.26-1.03,0.32
		c-0.46,0.06-0.54-0.09-0.26-0.43c0-0.06,0.02-0.11,0.07-0.16c0.05-0.05,0.11-0.08,0.19-0.09c0.99-1.23,2.02-2.05,3.08-2.47
		C158.4,757.6,158.71,757.58,158.86,757.76z"/>
	<path class="st1" d="M206.06,746.15c-0.25-0.88-0.79-1.51-1.61-1.92c-0.85-0.43-1.79-0.58-2.81-0.46c-1.03,0.12-2.03,0.4-3,0.83
		c-0.98,0.43-1.84,0.97-2.6,1.6c-0.76,0.6-1.41,1.34-1.96,2.23c-0.55,0.88-0.8,1.7-0.73,2.45c0.06,0.5,0.3,0.84,0.71,1.03
		c0.41,0.19,0.8,0.14,1.18-0.15c0.28-0.18,0.5-0.5,0.64-0.95c0.14-0.45,0.38-0.96,0.71-1.53c0.33-0.57,0.83-1.08,1.49-1.55
		c0.5-0.33,1.12-0.64,1.84-0.94c0.73-0.3,1.47-0.44,2.22-0.41s1.21,0.35,1.37,0.97c0.19,0.68,0.06,1.37-0.38,2.09
		c-0.44,0.72-1.05,1.41-1.82,2.07c-0.77,0.67-1.56,1.36-2.36,2.08c-0.8,0.72-1.54,1.55-2.2,2.51c-0.66,0.96-1.95,5.47-2.1,6.53
		c-0.03,0.44,0.08,0.81,0.33,1.11c0.25,0.29,0.6,0.41,1.04,0.33c0.28-0.02,0.52-0.12,0.71-0.3c0.19-0.17,0.32-0.34,0.38-0.51
		c0.06-0.16,0.14-0.41,0.24-0.73c0.1-0.32,1.03-4.06,1.06-4.19c0.35-0.88,1.41-2.13,3.19-3.76c1.78-1.62,2.88-2.69,3.29-3.2
		c0.57-0.74,0.97-1.58,1.21-2.52C206.32,747.93,206.32,747.03,206.06,746.15z"/>
	<path class="st1" d="M195.58,766.35c-0.56-0.25-1.06-0.1-1.5,0.46c-0.44,0.56-0.66,1.17-0.64,1.84c0.01,0.67,0.22,1.17,0.63,1.51
		c0.4,0.19,0.75,0.19,1.07,0.02c0.32-0.17,0.58-0.46,0.8-0.88c0.16-0.38,0.27-0.75,0.33-1.11c0.06-0.36,0.04-0.72-0.07-1.09
		C196.08,766.73,195.88,766.48,195.58,766.35z"/>
</g>
</svg>
