<?xml version="1.0" encoding="utf-8"?>
<!-- Generator: Adobe Illustrator 27.7.0, SVG Export Plug-In . SVG Version: 6.00 Build 0)  -->
<svg version="1.1" id="Layer_1" xmlns="http://www.w3.org/2000/svg" xmlns:xlink="http://www.w3.org/1999/xlink" x="0px" y="0px"
	 viewBox="0 0 612 792" style="enable-background:new 0 0 612 792;" xml:space="preserve">
<style type="text/css">
	.st0{fill:#FFFFFF;}
</style>
<g>
	<path class="st0" d="M271.78,27.92c-0.65-0.97-1.52-1.68-2.59-2.13c-1.07-0.45-2.38-0.67-3.93-0.67c-1.55,0-2.86,0.22-3.93,0.67
		c-1.07,0.45-1.93,1.16-2.58,2.13c-0.65,0.97-1.12,2.23-1.41,3.76c-0.28,1.54-0.43,3.4-0.43,5.58c0,2.18,0.14,4.04,0.43,5.58
		c0.28,1.54,0.75,2.79,1.41,3.76c0.65,0.97,1.52,1.66,2.58,2.08s2.38,0.62,3.93,0.62c1.55,0,2.86-0.21,3.93-0.62
		c1.07-0.41,1.93-1.11,2.59-2.08c0.65-0.97,1.12-2.23,1.41-3.76s0.43-3.4,0.43-5.58c0-2.18-0.14-4.04-0.43-5.58
		S272.44,28.89,271.78,27.92z M267.27,41.17c-0.04,1.04-0.14,1.86-0.28,2.47c-0.14,0.61-0.35,1.04-0.62,1.28
		c-0.27,0.24-0.64,0.36-1.1,0.36s-0.82-0.12-1.1-0.36c-0.27-0.24-0.48-0.67-0.62-1.28c-0.14-0.61-0.23-1.43-0.28-2.47
		c-0.04-1.04-0.07-2.34-0.07-3.91s0.02-2.87,0.07-3.91c0.04-1.04,0.14-1.86,0.28-2.47s0.35-1.04,0.62-1.28
		c0.27-0.24,0.64-0.36,1.1-0.36s0.82,0.12,1.1,0.36c0.27,0.24,0.48,0.67,0.62,1.28c0.14,0.61,0.23,1.43,0.28,2.47
		c0.04,1.04,0.07,2.34,0.07,3.91S267.31,40.13,267.27,41.17z"/>
	<path class="st0" d="M285.3,42.43c0,1.13-0.16,1.89-0.49,2.27s-0.77,0.57-1.34,0.57s-1.01-0.19-1.34-0.57s-0.49-1.14-0.49-2.27
		V25.58h-6.09v15.32c0,1.64,0.17,3,0.52,4.09c0.35,1.09,0.86,1.96,1.52,2.62c0.67,0.65,1.49,1.1,2.49,1.34s2.12,0.36,3.39,0.36
		c1.29,0,2.42-0.12,3.4-0.36c0.98-0.24,1.81-0.69,2.47-1.34c0.67-0.65,1.17-1.53,1.52-2.62c0.35-1.09,0.52-2.45,0.52-4.09V25.58
		h-6.09V42.43z"/>
	<polygon class="st0" points="292.56,30.75 297.08,30.75 297.08,48.94 303.17,48.94 303.17,30.75 307.75,30.75 307.75,25.58 
		292.56,25.58 	"/>
	<path class="st0" d="M324.29,45.39c0.49-1.08,0.79-2.32,0.9-3.73s0.16-2.87,0.16-4.4c0-1.53-0.05-2.99-0.16-4.4
		s-0.41-2.65-0.9-3.73s-1.23-1.94-2.21-2.59c-0.98-0.64-2.36-0.97-4.12-0.97h-8.84v23.37h8.84c1.77,0,3.14-0.32,4.12-0.97
		S323.8,46.47,324.29,45.39z M318.99,41.06c-0.05,0.96-0.17,1.7-0.36,2.23c-0.19,0.52-0.45,0.87-0.8,1.03
		c-0.35,0.16-0.82,0.25-1.41,0.25h-1.21v-14.6h1.21c0.59,0,1.06,0.08,1.41,0.25c0.35,0.16,0.62,0.51,0.8,1.03s0.31,1.27,0.36,2.23
		s0.08,2.23,0.08,3.8S319.05,40.1,318.99,41.06z"/>
	<path class="st0" d="M329.05,46.6c0.66,0.97,1.52,1.66,2.59,2.08c1.07,0.41,2.38,0.62,3.93,0.62s2.86-0.21,3.93-0.62
		c1.07-0.41,1.93-1.11,2.59-2.08c0.65-0.97,1.12-2.23,1.41-3.76c0.28-1.54,0.42-3.4,0.42-5.58c0-2.18-0.14-4.04-0.42-5.58
		c-0.28-1.54-0.75-2.79-1.41-3.76c-0.65-0.97-1.52-1.68-2.59-2.13c-1.07-0.45-2.38-0.67-3.93-0.67s-2.86,0.22-3.93,0.67
		c-1.07,0.45-1.93,1.16-2.59,2.13c-0.65,0.97-1.12,2.23-1.41,3.76s-0.42,3.4-0.42,5.58c0,2.18,0.14,4.04,0.42,5.58
		S328.4,45.63,329.05,46.6z M333.57,33.35c0.04-1.04,0.14-1.86,0.28-2.47c0.14-0.61,0.35-1.04,0.62-1.28
		c0.27-0.24,0.64-0.36,1.1-0.36s0.82,0.12,1.1,0.36c0.27,0.24,0.48,0.67,0.62,1.28s0.23,1.43,0.28,2.47
		c0.04,1.04,0.07,2.34,0.07,3.91s-0.02,2.88-0.07,3.91c-0.04,1.04-0.14,1.86-0.28,2.47c-0.14,0.61-0.35,1.04-0.62,1.28
		c-0.27,0.24-0.64,0.36-1.1,0.36s-0.82-0.12-1.1-0.36c-0.27-0.24-0.48-0.67-0.62-1.28c-0.14-0.61-0.24-1.43-0.28-2.47
		c-0.04-1.04-0.07-2.34-0.07-3.91S333.53,34.39,333.57,33.35z"/>
	<path class="st0" d="M347.25,46.6c0.66,0.97,1.52,1.66,2.59,2.08c1.07,0.41,2.38,0.62,3.93,0.62s2.86-0.21,3.93-0.62
		c1.07-0.41,1.93-1.11,2.59-2.08c0.65-0.97,1.12-2.23,1.41-3.76c0.28-1.54,0.42-3.4,0.42-5.58c0-2.18-0.14-4.04-0.42-5.58
		c-0.28-1.54-0.75-2.79-1.41-3.76c-0.65-0.97-1.52-1.68-2.59-2.13c-1.07-0.45-2.38-0.67-3.93-0.67s-2.86,0.22-3.93,0.67
		c-1.07,0.45-1.93,1.16-2.59,2.13c-0.65,0.97-1.12,2.23-1.41,3.76s-0.42,3.4-0.42,5.58c0,2.18,0.14,4.04,0.42,5.58
		S346.59,45.63,347.25,46.6z M351.76,33.35c0.04-1.04,0.14-1.86,0.28-2.47c0.14-0.61,0.35-1.04,0.62-1.28
		c0.27-0.24,0.64-0.36,1.1-0.36s0.82,0.12,1.1,0.36c0.27,0.24,0.48,0.67,0.62,1.28s0.23,1.43,0.28,2.47
		c0.04,1.04,0.07,2.34,0.07,3.91s-0.02,2.88-0.07,3.91c-0.04,1.04-0.14,1.86-0.28,2.47c-0.14,0.61-0.35,1.04-0.62,1.28
		c-0.27,0.24-0.64,0.36-1.1,0.36s-0.82-0.12-1.1-0.36c-0.27-0.24-0.48-0.67-0.62-1.28c-0.14-0.61-0.24-1.43-0.28-2.47
		c-0.04-1.04-0.07-2.34-0.07-3.91S351.72,34.39,351.76,33.35z"/>
	<path class="st0" d="M370.39,39.58h1.6c0.37,0,0.68,0.05,0.93,0.15c0.25,0.1,0.46,0.27,0.62,0.52c0.16,0.25,0.28,0.59,0.34,1.03
		c0.07,0.44,0.1,0.98,0.1,1.64v1.57c0,0.24,0,0.55,0.02,0.93c0.01,0.38,0.03,0.78,0.07,1.19c0.03,0.42,0.09,0.83,0.16,1.24
		c0.08,0.42,0.19,0.77,0.34,1.08h6.48v-0.33c-0.2-0.11-0.34-0.22-0.43-0.34c-0.09-0.12-0.17-0.25-0.26-0.38
		c-0.07-0.13-0.12-0.32-0.16-0.56c-0.04-0.24-0.08-0.51-0.1-0.8s-0.03-0.61-0.03-0.93s0-0.64,0-0.95v-2c0-1.57-0.27-2.8-0.82-3.7
		c-0.55-0.89-1.55-1.41-3.01-1.54v-0.07c1.4-0.22,2.41-0.81,3.04-1.77c0.63-0.96,0.95-2.23,0.95-3.8c0-0.89-0.11-1.72-0.34-2.49
		c-0.23-0.76-0.6-1.42-1.11-1.98s-1.18-0.99-2-1.29s-1.81-0.46-2.96-0.46h-9.52v23.37h6.09V39.58z M370.39,29.96h1.18
		c0.92,0,1.58,0.21,1.98,0.62s0.61,1.11,0.61,2.09c0,0.83-0.21,1.5-0.62,2.01c-0.42,0.51-1.06,0.77-1.93,0.77h-1.21V29.96z"/>
	<path class="st0" d="M396.83,44.85h4.84l0.62,4.09h6.48l-5.69-23.37h-7.66l-5.6,23.37h6.38L396.83,44.85z M399.22,30.35h0.07
		l1.67,9.92h-3.4L399.22,30.35z"/>
	<path class="st0" d="M422.75,47.98c0.98-0.64,1.72-1.51,2.21-2.59s0.79-2.32,0.9-3.73s0.16-2.87,0.16-4.4
		c0-1.53-0.05-2.99-0.16-4.4s-0.41-2.65-0.9-3.73s-1.23-1.94-2.21-2.59c-0.98-0.64-2.36-0.97-4.12-0.97h-8.84v23.37h8.84
		C420.39,48.94,421.76,48.62,422.75,47.98z M417.08,44.56h-1.21v-14.6h1.21c0.59,0,1.06,0.08,1.41,0.25
		c0.35,0.16,0.62,0.51,0.8,1.03s0.31,1.27,0.36,2.23s0.08,2.23,0.08,3.8s-0.03,2.84-0.08,3.8s-0.17,1.7-0.36,2.23
		c-0.19,0.52-0.45,0.87-0.8,1.03C418.14,44.47,417.67,44.56,417.08,44.56z"/>
	<polygon class="st0" points="439.57,48.94 444.61,25.58 438.13,25.58 435.67,43.18 435.61,43.18 433.15,25.58 426.77,25.58 
		431.71,48.94 	"/>
	<polygon class="st0" points="459.72,43.97 451.68,43.97 451.68,39.32 458.94,39.32 458.94,34.54 451.68,34.54 451.68,30.55 
		459.43,30.55 459.43,25.58 445.59,25.58 445.59,48.94 459.72,48.94 	"/>
	<path class="st0" d="M468.04,39.58h1.6c0.37,0,0.68,0.05,0.93,0.15c0.25,0.1,0.46,0.27,0.62,0.52c0.16,0.25,0.28,0.59,0.34,1.03
		c0.07,0.44,0.1,0.98,0.1,1.64v1.57c0,0.24,0,0.55,0.02,0.93c0.01,0.38,0.03,0.78,0.07,1.19c0.03,0.42,0.09,0.83,0.16,1.24
		c0.08,0.42,0.19,0.77,0.34,1.08h6.48v-0.33c-0.2-0.11-0.34-0.22-0.43-0.34c-0.09-0.12-0.17-0.25-0.26-0.38
		c-0.07-0.13-0.12-0.32-0.16-0.56c-0.04-0.24-0.08-0.51-0.1-0.8s-0.03-0.61-0.03-0.93s0-0.64,0-0.95v-2c0-1.57-0.27-2.8-0.82-3.7
		c-0.55-0.89-1.55-1.41-3.01-1.54v-0.07c1.4-0.22,2.41-0.81,3.04-1.77c0.63-0.96,0.95-2.23,0.95-3.8c0-0.89-0.11-1.72-0.34-2.49
		c-0.23-0.76-0.6-1.42-1.11-1.98s-1.18-0.99-2-1.29s-1.81-0.46-2.96-0.46h-9.52v23.37h6.09V39.58z M468.04,29.96h1.18
		c0.92,0,1.58,0.21,1.98,0.62s0.61,1.11,0.61,2.09c0,0.83-0.21,1.5-0.62,2.01c-0.42,0.51-1.06,0.77-1.93,0.77h-1.21V29.96z"/>
	<polygon class="st0" points="483.81,48.94 489.9,48.94 489.9,30.75 494.48,30.75 494.48,25.58 479.3,25.58 479.3,30.75 
		483.81,30.75 	"/>
	<rect x="495.63" y="25.58" class="st0" width="6.09" height="23.37"/>
	<path class="st0" d="M517.19,36.6c-0.74-0.55-1.54-0.99-2.39-1.33c-0.85-0.34-1.65-0.67-2.39-1c-0.74-0.33-1.36-0.71-1.85-1.16
		c-0.49-0.45-0.74-1.05-0.74-1.82c0-0.52,0.15-1,0.46-1.42c0.31-0.43,0.79-0.64,1.44-0.64c0.59,0,1.03,0.25,1.31,0.74
		c0.28,0.49,0.43,1.09,0.43,1.78v0.56h5.69c0-2.51-0.59-4.34-1.78-5.48c-1.19-1.15-3.11-1.72-5.78-1.72c-2.57,0-4.49,0.62-5.76,1.87
		c-1.26,1.24-1.9,3.05-1.9,5.43c0,1.37,0.23,2.49,0.7,3.34c0.47,0.85,1.06,1.54,1.77,2.06c0.71,0.52,1.48,0.95,2.31,1.28
		c0.83,0.33,1.6,0.65,2.31,0.97s1.3,0.7,1.77,1.15c0.47,0.45,0.7,1.05,0.7,1.82c0,0.63-0.17,1.17-0.51,1.6
		c-0.34,0.44-0.82,0.65-1.46,0.65c-0.59,0-1.07-0.2-1.44-0.61s-0.56-1.11-0.56-2.11V42h-5.89v0.82c0,1.22,0.17,2.25,0.52,3.08
		c0.35,0.83,0.86,1.5,1.52,2.01c0.67,0.51,1.48,0.87,2.45,1.08c0.97,0.21,2.09,0.31,3.35,0.31c2.68,0,4.73-0.56,6.15-1.69
		c1.42-1.12,2.13-2.93,2.13-5.42c0-1.42-0.25-2.57-0.74-3.45C518.55,37.86,517.93,37.15,517.19,36.6z"/>
	<rect x="521.71" y="25.58" class="st0" width="6.09" height="23.37"/>
	<polygon class="st0" points="541.24,39.98 541.18,39.98 537.25,25.58 530.44,25.58 530.44,48.94 536.14,48.94 536.14,34.51 
		536.2,34.51 540.26,48.94 546.94,48.94 546.94,25.58 541.24,25.58 	"/>
	<path class="st0" d="M557.67,40.37h2.16c0,1-0.05,1.83-0.15,2.47c-0.1,0.64-0.23,1.15-0.41,1.51c-0.17,0.36-0.39,0.61-0.64,0.74
		c-0.25,0.13-0.54,0.2-0.87,0.2c-0.46,0-0.82-0.12-1.1-0.36c-0.27-0.24-0.48-0.67-0.62-1.28c-0.14-0.61-0.23-1.43-0.28-2.47
		c-0.04-1.04-0.07-2.34-0.07-3.91s0.02-2.87,0.07-3.91c0.04-1.04,0.14-1.86,0.28-2.47s0.36-1.04,0.66-1.28
		c0.29-0.24,0.69-0.36,1.19-0.36c0.72,0,1.19,0.34,1.41,1.01c0.22,0.57,0.33,1.47,0.33,2.72h5.89c0-1.42-0.19-2.62-0.56-3.62
		c-0.37-0.99-0.88-1.8-1.54-2.44c-0.65-0.63-1.43-1.09-2.34-1.37c-0.91-0.28-1.89-0.43-2.96-0.43c-1.79,0-3.25,0.27-4.38,0.8
		c-1.13,0.53-2.02,1.31-2.67,2.34c-0.64,1.03-1.08,2.29-1.31,3.8c-0.23,1.51-0.34,3.24-0.34,5.2c0,1.94,0.06,3.67,0.18,5.17
		c0.12,1.51,0.41,2.77,0.87,3.8c0.46,1.03,1.13,1.79,2.03,2.31c0.89,0.51,2.12,0.77,3.67,0.77c0.52,0,1.04-0.03,1.55-0.1
		s0.99-0.18,1.44-0.34c0.45-0.16,0.85-0.41,1.21-0.74c0.36-0.33,0.64-0.74,0.83-1.24h0.07l0.13,2.06h4.12v-12.7h-7.85V40.37z"/>
	<path class="st0" d="M360.5,59.94l-0.05-0.16c-0.21-1.25-0.69-2.3-1.44-3.14c-0.75-0.84-1.69-1.42-2.82-1.75
		c-1.13-0.33-2.3-0.55-3.5-0.65c-1.2-0.1-2.53-0.06-3.97,0.13c-1.45,0.19-2.68,0.39-3.69,0.6c-1.01,0.21-2.06,0.45-3.14,0.73
		c-0.21,0.04-0.38,0.06-0.52,0.08c-0.14,0.02-0.25,0.03-0.34,0.03c-0.09,0-0.19-0.03-0.31-0.08s-0.2-0.1-0.23-0.13
		c-0.04-0.03-0.12-0.12-0.26-0.26c-0.14-0.14-0.24-0.24-0.31-0.31c-0.38-0.35-0.79-0.49-1.23-0.42c-0.44,0.07-0.78,0.31-1.02,0.73
		c-0.1,0.21-0.18,0.47-0.24,0.78c-0.05,0.31-0.15,0.55-0.29,0.71c-0.14,0.16-0.42,0.31-0.84,0.44c-2.51,0.73-6.38,2.11-11.61,4.13
		c-0.04,0.04-0.27,0.12-0.71,0.26c-0.44,0.14-0.73,0.25-0.89,0.34c-0.16,0.09-0.37,0.22-0.65,0.39c-0.28,0.17-0.46,0.38-0.55,0.6
		c-0.09,0.23-0.1,0.48-0.03,0.76c0.17,0.98,0.99,1.34,2.46,1.1c1.64-0.31,2.84-0.47,3.61-0.47h0.21c1.5,0.04,2.68,0.3,3.56,0.78
		c0.7,0.38,1.16,0.9,1.38,1.54c0.23,0.65,0.3,1.25,0.24,1.83c-0.07,0.58-0.23,1.26-0.47,2.07c-0.04,0.07-0.12,0.37-0.26,0.89
		c-0.14,0.52-0.26,0.91-0.37,1.15c-0.17,0.49-0.45,0.85-0.84,1.07c-0.38,0.23-0.77,0.34-1.15,0.34s-0.78,0.07-1.18,0.21
		c-0.4,0.14-0.69,0.4-0.86,0.78c-0.31,0.56-0.32,0.97-0.03,1.23c0.3,0.26,0.72,0.47,1.28,0.63c0.56,0.16,0.89,0.34,0.99,0.55
		c0.1,0.04,0.13,0.22,0.08,0.55c-0.05,0.33-0.11,0.58-0.18,0.76c-0.07,0.17-0.17,0.44-0.29,0.78c-0.12,0.35-0.2,0.54-0.24,0.58
		c-0.24,0.77-0.87,2.77-1.88,6.01c-0.07,0.24-0.21,0.67-0.42,1.28c-0.21,0.61-0.37,1.09-0.47,1.44c-0.45,1.5-0.14,2.35,0.94,2.56
		c0.91,0.14,1.55-0.5,1.93-1.93c0.35-1.12,0.92-2.88,1.7-5.31c0.78-2.42,1.35-4.28,1.7-5.57c0.03-0.1,0.1-0.36,0.21-0.76
		c0.11-0.4,0.17-0.64,0.21-0.71c0.03-0.07,0.11-0.22,0.24-0.44c0.12-0.23,0.24-0.37,0.37-0.42c0.12-0.05,0.3-0.13,0.52-0.24
		c0.23-0.1,0.51-0.21,0.86-0.31c4.36-1.01,8.14-2.07,11.35-3.19c1.32-0.45,2.51-0.91,3.56-1.36c1.04-0.45,2.26-1.08,3.66-1.88
		c1.39-0.8,2.54-1.62,3.45-2.46s1.64-1.86,2.2-3.08C360.48,62.54,360.67,61.27,360.5,59.94z M334.09,62.87
		c-0.24-0.14-0.61-0.33-1.1-0.58c-0.1-0.03-0.23-0.09-0.37-0.16c-0.24-0.1-0.4-0.18-0.47-0.24s-0.07-0.11,0-0.18
		c0.07-0.07,0.26-0.17,0.58-0.31c1.71-0.7,2.7-0.94,2.98-0.73c0.17,0.17,0.15,0.6-0.08,1.28c-0.23,0.68-0.44,1.16-0.65,1.44
		C334.74,63.29,334.44,63.12,334.09,62.87z M346.91,69.62c-1.88,0.66-5.14,1.6-9.78,2.82c-0.04,0.04-0.14,0.08-0.31,0.13
		c-0.17,0.05-0.33,0.1-0.47,0.13c-0.14,0.04-0.29,0.06-0.44,0.08c-0.16,0.02-0.29,0.01-0.39-0.03c-0.1-0.03-0.16-0.1-0.16-0.21
		c-0.04-0.1,0.5-1.88,1.62-5.33c1.05-3.35,1.57-5.05,1.57-5.12c0.07-0.24,0.16-0.56,0.26-0.94c0.1-0.38,0.18-0.64,0.24-0.76
		c0.05-0.12,0.13-0.3,0.24-0.52c0.1-0.23,0.24-0.38,0.39-0.47c0.16-0.09,0.37-0.19,0.63-0.31c0.26-0.12,0.58-0.24,0.97-0.34
		c10.35-2.58,15.81-2.02,16.37,1.67C358.11,63.76,354.54,66.83,346.91,69.62z"/>
	<path class="st0" d="M452.63,76.57c-0.14-0.17-0.48-0.44-1.02-0.81c-0.54-0.37-0.99-0.72-1.36-1.07c-0.37-0.35-0.55-0.66-0.55-0.94
		c0-0.31,0.21-0.61,0.63-0.89c0.42-0.28,0.98-0.55,1.7-0.81c0.71-0.26,1.11-0.41,1.18-0.44c0.59-0.35,0.92-0.81,0.97-1.39
		s-0.22-1-0.81-1.28l-0.1-0.05c-0.77-0.21-1.86,0.05-3.27,0.78c-1.35,0.7-2.35,1.38-3.01,2.05c-0.31,0.1-0.72,0.25-1.25,0.46
		c-1.05,0.42-2.1,0.77-3.16,1.05c-1.06,0.28-2.21,0.24-3.42-0.1c-0.17-0.07-0.35-0.33-0.52-0.78c-0.17-0.45-0.51-1-1.02-1.65
		c-0.5-0.64-1.25-1.18-2.22-1.59c-1.12-0.49-2.19-0.58-3.22-0.29c-1.03,0.3-1.96,0.79-2.8,1.49c-0.82,0.68-1.57,1.54-2.25,2.57
		c-0.02,0.01-0.03,0.01-0.05,0.02c-0.35,0.19-0.62,0.37-0.81,0.52s-0.44,0.39-0.76,0.71c-1.53,1.43-3.08,2.63-4.63,3.61
		c-1.55,0.98-3.44,2.02-5.67,3.14c-0.04,0-0.12,0.05-0.26,0.16c-0.21,0.1-0.37,0.17-0.47,0.21c-1.71,0.84-2.02,0.75-0.94-0.26
		c1.15-1.11,2.04-2.06,2.67-2.82c0.7-0.91,1.2-1.73,1.52-2.46c0.59-1.12,0.73-2.22,0.42-3.32c-0.31-1.1-1.12-1.8-2.41-2.12
		c-1.64-0.38-3.33-0.13-5.07,0.76c-1.74,0.89-3.26,2.07-4.55,3.53c-1.12,1.39-1.71,1.97-1.78,1.73c-0.07-0.24,0.18-1.16,0.76-2.75
		c0.58-1.59,0.9-2.55,0.97-2.9v-0.16c0.04-0.56-0.13-1.03-0.5-1.41c-0.37-0.38-0.83-0.45-1.39-0.21c-0.28,0.1-0.54,0.37-0.78,0.78
		c-0.24,0.42-0.42,0.8-0.52,1.15c-0.07,0.23-0.16,0.54-0.26,0.88c-0.31,0.07-0.8,0.25-1.52,0.53c-1.05,0.42-2.1,0.77-3.16,1.05
		c-1.06,0.28-2.21,0.24-3.42-0.1c-0.17-0.07-0.35-0.33-0.52-0.78c-0.17-0.45-0.51-1-1.02-1.65c-0.5-0.64-1.25-1.18-2.22-1.59
		c-1.12-0.49-2.19-0.58-3.22-0.29c-1.03,0.3-1.96,0.79-2.8,1.49c-0.36,0.3-0.7,0.64-1.04,1.01c-0.39,0.19-0.84,0.58-1.37,1.19
		c-0.35,0.38-0.86,0.87-1.52,1.46c-0.07,0.1-0.19,0.23-0.37,0.37c-2.93,2.72-4.39,3.52-4.39,2.41c0.04-0.38,0.22-0.98,0.55-1.78
		c0.33-0.8,0.63-1.53,0.91-2.2c0.28-0.66,0.37-1.34,0.26-2.04c-0.11-0.7-0.51-1.24-1.2-1.62c-0.63-0.38-1.38-0.52-2.27-0.42
		s-1.69,0.3-2.41,0.58c-0.71,0.28-1.42,0.65-2.12,1.1c-1.15,0.7-2.21,1.57-3.19,2.61c-0.04,0-0.12,0.08-0.26,0.24
		c-0.14,0.16-0.27,0.31-0.39,0.44c-0.12,0.14-0.26,0.29-0.42,0.44s-0.29,0.27-0.39,0.34c-0.11,0.07-0.19,0.09-0.26,0.05
		c-0.1-0.07,0.16-1.01,0.78-2.82c0.03-0.07,0.12-0.28,0.26-0.63c0.14-0.35,0.22-0.58,0.24-0.71c0.02-0.12,0.03-0.3,0.03-0.52
		c0-0.23-0.09-0.41-0.26-0.55c-0.17-0.14-0.44-0.28-0.78-0.42c-0.42-0.14-0.78-0.12-1.07,0.05c-0.3,0.17-0.51,0.38-0.65,0.63
		c-0.14,0.24-0.28,0.58-0.42,0.99c-0.42,1.22-1.29,3.94-2.61,8.16c-0.07,0.31-0.34,1.19-0.81,2.61c-0.47,1.43-0.81,2.53-1.02,3.29
		c-0.28,1.05,0.02,1.71,0.89,1.99c0.17,0.04,0.32,0.06,0.44,0.08c0.12,0.02,0.24,0,0.34-0.05s0.21-0.1,0.31-0.13
		c0.1-0.03,0.2-0.1,0.29-0.21s0.16-0.19,0.21-0.26c0.05-0.07,0.12-0.17,0.21-0.31c0.09-0.14,0.15-0.24,0.18-0.31
		c0.03-0.07,0.1-0.18,0.18-0.34c0.09-0.16,0.15-0.25,0.18-0.29c0.07-0.21,0.34-0.76,0.81-1.65c0.47-0.89,0.78-1.48,0.94-1.78
		c0.16-0.3,0.46-0.84,0.92-1.65c0.45-0.8,0.81-1.38,1.07-1.73c0.26-0.35,0.63-0.85,1.1-1.52c0.47-0.66,0.91-1.17,1.31-1.52
		c0.4-0.35,0.86-0.75,1.39-1.2c0.52-0.45,1.07-0.82,1.65-1.1c0.58-0.28,1.16-0.5,1.75-0.68c0.98-0.31,1.54-0.3,1.7,0.05
		c0.16,0.35,0.03,0.89-0.39,1.62c0,0.07-0.08,0.27-0.23,0.6c-0.16,0.33-0.26,0.56-0.31,0.68c-0.05,0.12-0.14,0.34-0.26,0.65
		c-0.12,0.31-0.2,0.55-0.23,0.71c-0.04,0.16-0.08,0.38-0.13,0.65c-0.05,0.28-0.06,0.5-0.03,0.65c0.03,0.16,0.08,0.36,0.13,0.6
		c0.05,0.24,0.14,0.44,0.26,0.58c0.12,0.14,0.29,0.29,0.5,0.44s0.45,0.29,0.73,0.39c1.25,0.38,2.63,0.26,4.13-0.37
		c0.38-0.16,0.74-0.33,1.1-0.51c-0.03,0.1-0.07,0.2-0.1,0.3c-0.17,0.73-0.29,1.48-0.34,2.25c-0.05,0.77-0.04,1.57,0.05,2.41
		c0.09,0.84,0.37,1.52,0.86,2.06c0.49,0.54,1.15,0.83,1.99,0.86c1.01,0.1,2.12,0.04,3.35-0.21c1.22-0.24,2.28-0.59,3.19-1.05
		l0.42-0.21c1.39-0.7,2.51-1.67,3.35-2.93c0.98-1.15,1.67-2.7,2.09-4.65c0-0.56,0.09-0.94,0.26-1.15c0.17-0.21,0.52-0.31,1.04-0.31
		c2.37,0,4.27-0.25,5.72-0.75c-0.55,1.8-1.26,4.05-2.14,6.76c-1.24,3.83-1.94,6.03-2.12,6.59c-1.53,4.95-2.41,7.72-2.62,8.31
		c-0.03,0.1-0.11,0.3-0.23,0.6c-0.12,0.3-0.21,0.54-0.26,0.73c-0.05,0.19-0.12,0.44-0.21,0.76c-0.09,0.31-0.13,0.58-0.13,0.78
		c0,0.21,0.02,0.44,0.05,0.68c0.04,0.24,0.12,0.44,0.26,0.6c0.14,0.16,0.33,0.27,0.58,0.34c0.98,0.35,1.73-0.3,2.25-1.93
		c0.42-1.36,1.03-3.35,1.83-5.96c0.07-0.21,0.18-0.62,0.34-1.23c0.16-0.61,0.3-1.12,0.44-1.54s0.31-0.87,0.52-1.36
		c0.21-0.49,0.42-0.85,0.63-1.1c0.17-0.24,0.46-0.45,0.86-0.63c0.4-0.17,0.76-0.29,1.07-0.34c0.31-0.05,0.74-0.12,1.28-0.21
		c0.54-0.09,0.9-0.13,1.07-0.13c4.39-0.91,8.29-2.11,11.69-3.61c2.55-1.12,5.05-2.58,7.49-4.37c-0.17,0.71-0.28,1.44-0.33,2.18
		c-0.05,0.77-0.04,1.57,0.05,2.41c0.09,0.84,0.37,1.52,0.86,2.06c0.49,0.54,1.15,0.83,1.99,0.86c1.01,0.1,2.12,0.04,3.35-0.21
		c1.22-0.24,2.28-0.59,3.19-1.05l0.42-0.21c1.39-0.7,2.51-1.67,3.35-2.93c0.98-1.15,1.67-2.7,2.09-4.65c0-0.56,0.09-0.94,0.26-1.15
		c0.17-0.21,0.52-0.31,1.04-0.31c2.6,0,4.63-0.31,6.12-0.91c0.02,0.02,0.03,0.05,0.05,0.07c0.42,0.49,0.9,0.93,1.44,1.33
		c0.54,0.4,1.11,0.85,1.7,1.33c0.59,0.49,1.01,0.92,1.25,1.31c0.17,0.24,0.27,0.5,0.29,0.76c0.02,0.26-0.04,0.51-0.18,0.73
		c-0.14,0.23-0.31,0.44-0.52,0.63c-0.21,0.19-0.47,0.37-0.78,0.52c-0.31,0.16-0.61,0.3-0.89,0.42c-0.28,0.12-0.6,0.24-0.97,0.37
		c-0.37,0.12-0.65,0.21-0.84,0.26c-0.19,0.05-0.43,0.11-0.71,0.18c-0.1,0.04-0.38,0.1-0.84,0.21s-0.82,0.2-1.1,0.29
		c-0.28,0.09-0.59,0.21-0.94,0.37c-0.35,0.16-0.62,0.35-0.81,0.58c-0.19,0.23-0.29,0.48-0.29,0.76c-0.04,0.63,0.18,1.03,0.65,1.2
		c0.47,0.17,1.02,0.21,1.65,0.1c1.43-0.28,3.04-0.78,4.84-1.52s3.08-1.53,3.84-2.41c0.59-0.77,0.88-1.59,0.86-2.48
		c-0.02-0.89-0.29-1.73-0.81-2.54C453.18,77.2,452.91,76.85,452.63,76.57z M386.85,78.85c-0.59,0.99-1.15,1.86-1.67,2.59
		c-0.52,0.73-1.06,1.33-1.62,1.78c-0.52,0.42-0.9,0.58-1.12,0.47c-0.23-0.1-0.34-0.47-0.34-1.1c0-1.57,0.43-3.35,1.28-5.33
		c0.85-1.99,1.82-3.5,2.9-4.55c0.77-0.7,1.57-1.05,2.41-1.05c0.84,0,1.59,0.42,2.25,1.25c0.24,0.24,0.37,0.42,0.39,0.52
		c0.02,0.1-0.11,0.28-0.39,0.52c-0.1,0.07-0.3,0.22-0.58,0.44c-0.28,0.23-0.45,0.38-0.52,0.44c-0.07,0.07-0.21,0.19-0.42,0.37
		c-0.21,0.17-0.36,0.32-0.44,0.44c-0.09,0.12-0.21,0.27-0.37,0.44c-0.16,0.17-0.3,0.37-0.44,0.58
		C387.88,77.13,387.44,77.85,386.85,78.85z M391.19,78.77c-0.8,1.67-1.66,2.74-2.56,3.19c-0.21,0.07-0.16-0.21,0.16-0.84
		c0.66-1.22,1.17-2,1.52-2.35c0.56-0.77,0.92-1.18,1.1-1.25C391.68,77.44,391.61,77.86,391.19,78.77z M404.32,83.68
		c-0.49,0.28-0.85,0.4-1.07,0.37c-0.23-0.03-0.18-0.33,0.13-0.89c2.72-4.71,5.28-7.76,7.69-9.15c1.08-0.63,2.09-0.96,3.03-0.99
		c1.39-0.07,1.53,0.73,0.42,2.41C412.21,78.8,408.81,81.56,404.32,83.68z M431.5,78.85c-0.59,0.99-1.15,1.86-1.67,2.59
		c-0.52,0.73-1.06,1.33-1.62,1.78c-0.52,0.42-0.9,0.58-1.12,0.47c-0.23-0.1-0.34-0.47-0.34-1.1c0-1.57,0.43-3.35,1.28-5.33
		c0.85-1.99,1.82-3.5,2.9-4.55c0.77-0.7,1.57-1.05,2.41-1.05c0.84,0,1.59,0.42,2.25,1.25c0.24,0.24,0.37,0.42,0.39,0.52
		c0.02,0.1-0.11,0.28-0.39,0.52c-0.1,0.07-0.3,0.22-0.58,0.44c-0.28,0.23-0.45,0.38-0.52,0.44c-0.07,0.07-0.21,0.19-0.42,0.37
		c-0.21,0.17-0.36,0.32-0.44,0.44c-0.09,0.12-0.21,0.27-0.37,0.44c-0.16,0.17-0.3,0.37-0.44,0.58
		C432.53,77.13,432.1,77.85,431.5,78.85z M435.84,78.77c-0.8,1.67-1.66,2.74-2.56,3.19c-0.21,0.07-0.16-0.21,0.16-0.84
		c0.66-1.22,1.17-2,1.52-2.35c0.56-0.77,0.92-1.18,1.1-1.25C436.33,77.44,436.26,77.86,435.84,78.77z"/>
	<path class="st0" d="M500.36,71.81l-0.16-0.1c-0.18-0.1-0.35-0.17-0.52-0.18c-0.17-0.02-0.35,0.01-0.52,0.08
		c-0.17,0.07-0.33,0.15-0.47,0.23c-0.14,0.09-0.29,0.22-0.44,0.39c-0.16,0.17-0.28,0.31-0.37,0.42c-0.09,0.1-0.2,0.26-0.34,0.47
		c-0.07,0.04-0.1,0.07-0.1,0.1c-0.63,0.77-1.42,1.68-2.38,2.75c-0.96,1.06-2.14,2.31-3.53,3.74c-1.39,1.43-2.7,2.54-3.92,3.35
		c-1.22,0.8-2.09,1.05-2.61,0.73c-0.24-0.1-0.41-0.32-0.5-0.65c-0.09-0.33-0.11-0.75-0.08-1.25c0.03-0.5,0.1-0.99,0.18-1.46
		s0.23-1.04,0.42-1.7c0.19-0.66,0.34-1.18,0.44-1.54s0.25-0.84,0.44-1.41c0.19-0.58,0.29-0.88,0.29-0.92
		c0.24-0.73,0.94-2.94,2.09-6.61c1.15-3.68,2.07-6.47,2.77-8.39c0.03-0.17,0.14-0.47,0.31-0.89c0.17-0.42,0.32-0.8,0.44-1.15
		c0.12-0.35,0.2-0.64,0.24-0.89c0.1-0.42,0.07-0.83-0.1-1.23c-0.17-0.4-0.45-0.64-0.84-0.71c-0.87-0.21-1.53,0.3-1.99,1.52
		c-0.38,1.05-1.15,3.26-2.3,6.64c-1.2,3.44-2.18,6.45-2.96,9.04c-0.09,0.07-0.21,0.15-0.39,0.29c-0.24,0.19-0.38,0.31-0.42,0.34
		c-0.42,0.45-1.15,1.3-2.2,2.54c-1.05,1.24-1.87,2.21-2.48,2.9c-0.61,0.7-1.39,1.5-2.35,2.41c-0.96,0.91-1.86,1.66-2.69,2.25
		c-1.81,1.19-2.91,1.41-3.29,0.68c-0.28-0.59-0.04-2.33,0.73-5.23c0.73-2.82,0.89-4.46,0.47-4.91c-0.73-0.91-1.64-0.63-2.72,0.84
		c-0.17,0.31-0.44,0.81-0.81,1.49c-0.37,0.68-0.63,1.17-0.78,1.46c-0.16,0.3-0.42,0.7-0.78,1.2c-0.37,0.51-0.78,1-1.23,1.49
		c-1.36,1.6-3.03,2.74-5.02,3.4c-0.91,0.24-1.53,0.22-1.86-0.08c-0.33-0.3-0.4-0.78-0.21-1.44c0.19-0.66,0.4-1.25,0.63-1.75
		c0.23-0.5,0.5-1.04,0.81-1.59c1.12-1.78,2.5-3.35,4.16-4.71c1.66-1.36,3.35-2.04,5.1-2.04c0.49-0.03,0.89-0.02,1.2,0.05
		c0.31,0.07,0.67,0.2,1.07,0.39c0.4,0.19,0.76,0.34,1.07,0.44c0.84,0.24,1.32,0.02,1.46-0.68c0.1-0.66-0.08-1.25-0.55-1.78
		s-1.05-0.91-1.75-1.15c-1.6-0.49-3.2-0.5-4.78-0.03c-1.59,0.47-3.09,1.28-4.52,2.43c-1.43,1.15-2.68,2.44-3.76,3.87
		c-1.08,1.43-1.92,2.84-2.51,4.24c-0.28,0.66-0.49,1.34-0.63,2.04c-0.14,0.7-0.19,1.4-0.16,2.12c0.03,0.71,0.28,1.32,0.73,1.8
		c0.45,0.49,1.1,0.75,1.93,0.78c1.22,0.1,2.52-0.06,3.9-0.5c1.38-0.44,2.61-1.04,3.69-1.8c1.01-0.98,1.59-1.46,1.73-1.46
		c0.14,0.14,0.21,0.42,0.21,0.84c0.21,1.36,0.63,2.27,1.25,2.72c1.05,0.8,2.65,0.8,4.81,0c0.49-0.14,0.98-0.34,1.49-0.6
		c0.5-0.26,0.97-0.52,1.38-0.78c0.42-0.26,0.89-0.61,1.41-1.05c0.52-0.44,0.95-0.8,1.28-1.1c0.33-0.3,0.77-0.72,1.31-1.28
		c0.54-0.56,0.94-0.97,1.2-1.23c0.25-0.25,0.65-0.69,1.18-1.3c0,0.01,0,0.02-0.01,0.02c-0.1,0.49-0.17,0.85-0.21,1.07
		c-0.04,0.23-0.1,0.63-0.18,1.2s-0.13,1.03-0.13,1.36c0,0.33,0.01,0.75,0.03,1.25c0.02,0.51,0.1,0.92,0.24,1.23
		c0.14,0.31,0.3,0.62,0.5,0.92c0.19,0.3,0.47,0.51,0.84,0.65c0.37,0.14,0.79,0.21,1.28,0.21c1.43-0.03,2.9-0.44,4.42-1.23
		c1.52-0.78,2.99-1.86,4.42-3.24c1.43-1.38,2.63-2.61,3.61-3.71c0.98-1.1,2.02-2.36,3.14-3.79
		C501.11,73.35,501.2,72.41,500.36,71.81z"/>
</g>
</svg>
